<mxfile modified="2023-11-23T20:08:34.591Z" host="Electron" agent="Mozilla/5.0 (Windows NT 10.0; Win64; x64) AppleWebKit/537.36 (KHTML, like Gecko) draw.io/22.1.2 Chrome/114.0.5735.289 Electron/25.9.4 Safari/537.36" etag="aY-mTi-2Jceps5e4iIGf" version="22.1.2" type="device">
  <diagram id="Ht1M8jgEwFfnCIfOTk4-" name="Page-1">
    <mxGraphModel dx="1234" dy="737" grid="1" gridSize="10" guides="1" tooltips="1" connect="1" arrows="1" fold="1" page="1" pageScale="1" pageWidth="1169" pageHeight="827" math="0" shadow="0">
      <root>
        <mxCell id="0" />
        <mxCell id="1" parent="0" />
        <mxCell id="efBHhCPweUTcdTAT2awp-20" value="" style="rounded=0;whiteSpace=wrap;html=1;container=1;" parent="1" vertex="1">
          <mxGeometry x="400" y="420" width="120" height="160" as="geometry" />
        </mxCell>
        <mxCell id="efBHhCPweUTcdTAT2awp-7" value="&lt;font style=&quot;font-size: 30px;&quot;&gt;Volume&lt;/font&gt;" style="shadow=0;dashed=0;html=1;strokeColor=none;fillColor=#4495D1;labelPosition=center;verticalLabelPosition=bottom;verticalAlign=top;align=center;outlineConnect=0;shape=mxgraph.veeam.2d.backup_repository;rounded=0;" parent="efBHhCPweUTcdTAT2awp-20" vertex="1">
          <mxGeometry x="22" y="13" width="86" height="90" as="geometry" />
        </mxCell>
        <mxCell id="efBHhCPweUTcdTAT2awp-8" value="" style="shadow=0;dashed=0;html=1;strokeColor=none;fillColor=#4495D1;labelPosition=center;verticalLabelPosition=bottom;verticalAlign=top;align=center;outlineConnect=0;shape=mxgraph.veeam.2d.user;rounded=0;" parent="1" vertex="1">
          <mxGeometry x="920" y="220" width="32" height="58" as="geometry" />
        </mxCell>
        <mxCell id="efBHhCPweUTcdTAT2awp-19" style="rounded=0;orthogonalLoop=1;jettySize=auto;html=1;entryX=0.5;entryY=0;entryDx=0;entryDy=0;exitX=0.55;exitY=0.95;exitDx=0;exitDy=0;exitPerimeter=0;" parent="1" source="efBHhCPweUTcdTAT2awp-44" target="efBHhCPweUTcdTAT2awp-17" edge="1">
          <mxGeometry relative="1" as="geometry">
            <mxPoint x="159.60131578947357" y="290" as="sourcePoint" />
          </mxGeometry>
        </mxCell>
        <mxCell id="efBHhCPweUTcdTAT2awp-18" value="" style="group;rounded=0;" parent="1" vertex="1" connectable="0">
          <mxGeometry x="80" y="420" width="280" height="160" as="geometry" />
        </mxCell>
        <mxCell id="efBHhCPweUTcdTAT2awp-23" value="" style="group;rounded=0;" parent="efBHhCPweUTcdTAT2awp-18" vertex="1" connectable="0">
          <mxGeometry width="280" height="160" as="geometry" />
        </mxCell>
        <mxCell id="efBHhCPweUTcdTAT2awp-17" value="&lt;br&gt;&lt;br&gt;&lt;br&gt;&lt;br&gt;&lt;br&gt;&lt;br&gt;&lt;font style=&quot;font-size: 20px;&quot;&gt;container&lt;/font&gt;&lt;br&gt;&lt;font style=&quot;font-size: 30px;&quot;&gt;datadump_creator&lt;/font&gt;" style="rounded=0;whiteSpace=wrap;html=1;" parent="efBHhCPweUTcdTAT2awp-23" vertex="1">
          <mxGeometry width="280" height="160" as="geometry" />
        </mxCell>
        <mxCell id="efBHhCPweUTcdTAT2awp-14" value="" style="shape=image;verticalLabelPosition=bottom;labelBackgroundColor=default;verticalAlign=top;aspect=fixed;imageAspect=0;image=data:image/jpeg,/9j/4AAQSkZJRgABAQAAAQABAAD/2wCEAAoHCBASEBARERIYEhEXFxESEhERFxsYEhISFxcYGxobFxsbICwkHB0rHhcYJjklKS4wNTYzGyQ5PjwxPSwyMzABCwsLEA4QHRISHTIhICkwPTgyMDIyMjIyMDQwMD0wPDsyMjAyMzIyMDIyMjI9MDQwMjIyMjIwMjIyMjAwMDAzMv/AABEIAMYA/wMBIgACEQEDEQH/xAAcAAEAAwEBAQEBAAAAAAAAAAAAAQYHBQQCAwj/xABJEAACAQICAwoJCQYGAwEAAAABAgADEQQFEiExBiIyQVFSYXGBoRMWQnKRkrHB0gc0U1RidKOz0SMzc4Ky4RQXY9Pw8UOiwhX/xAAZAQEAAwEBAAAAAAAAAAAAAAAAAQQFAwL/xAAzEQEAAQICBggFBAMAAAAAAAAAAQIDBBEhMTJRcdEFEhMUQZGx8BVhgaHBIjPh8SNCUv/aAAwDAQACEQMRAD8A2aIiAiIgIiICInhxGZUk1X0m5q6+/ZA90+WYAXJsOUzg1s4qNwAFHpbv1d08FWqzm7MWPSbychYquZUV8u55F1941TyVM8TyUJ84gey84l5EZDpvnVQ7FUekn2z8HzWufLt1AfpPHeRJyQ9DY+sf/I3YbT4ONq/SP6xn43kXkZD9v8bW+kf1jPtcxrjZUbtsfbPLeReMh0FzjEDygetR7p+yZ/UHCRW6rj9ZyLyLychYaWfoeEjL1WYe6e2jmVB9ji/I29PfKheJGSV8iUehiqlPgOV6AdXo2Tp4bdC41VEDDnLqb0bD3RkLLE8WEzGjV1K++5ram9HH2T2yAiIgIiICIiAiIgIifFRwoLMbAbSYH3PFjMwSnccJuaOLrPFOdjc0ZrrTuq87yj+k5knIerFY+o+omy81dQ7eWeSJElCbyJF4vAReReRAmfEReAvIvF5F4C8i8XkQF5F4vIvAXkSbyLwF5F5Ei8CbzpYPO6tOwY+ETkbhDqb9bzl3kXgXfA5hSrDetvuNTqYdnH1ie2Z4rkEFSQRrBGog9BlgyvPtiVz0Cpxfzfr/ANyMkrHE+Qb7NYn1ICIiAiJ+dSoqqWY2A1kwPmvXVFLMbDvJ5B0yuY3GPUa51KOCvEP1MY3FtUe51KOCvIP1nmvJQmRIkXkibyLxeRAm8i8i8i8Cbz5vPpEZjoqCx5ALmdPDZG7a6jaI5o1t+g74HJvP0pYd34CM3SBq9OyWehllCnsTSPK++PfqE90jNKr08lrttCp5x19156V3PnyqnYq+8md+JGY4y7n6XG7nqIHun6DI6H2j/NOrEnMcv/8ADw/I3rGQchw/2h1NOrEjMcVtz1HiZx2g+6fg+5vm1exl94MsMScxVKu5+uOCUbqJB7xbvnhr5fXThU2A5QNIekXl5iMxnd4l6xOBo1OGgY87Y3pGucXGbm9pot/K/uYe+MxXZE/bE4Z6baLoUPFfYeo7DPwvJQ6uUZw1EhHu1Lk406V6Oj/ht9OorKGUgqRcEbCJnV51sizU0W0HP7Jj6jco6OX09cTCVziQDJkBK/nGL0n8Gp3q7elv7Tq5jiPB02YcI71es/8ACeyVcmTAm8i8iJKCJEi8CZEi8AEkAC5OoAbSYEEzp4DKGezVLonEPLb9J7ssyoJZ6gu+0LxJ+pnXkZpfhh8MlNdFVAHHynrPHP3iJASv1t12Xo703r2ZGZGHg6hs6khhcLY6wdksExDP/nuM/j1/zHlzCYem9MxVno3f1Kvib1VuImlpvjrln1j8Kr8EeOuWfWPwqvwTIol74fa3z5xyU++3N0eU82ueO2WfWPwqvwR465Z9Y/Cq/BMjkR8Ptb5845Hfbm6PKebXfHbLPrH4VX4I8dss+sfhVfgmRSI+H2t8+ccjvtzdHlPNr3jrln1j8Kr8EeOuWfWPwqvwTIZEfD7W+fOOSe+3N0eU82v+O2V/WPwqvwR47ZX9Y/Cq/BMgkR8Ptb5845Hfbm6PKebZ8Puqy6pwcUg8+6f1gTr0ayOoZGDKdjKQVPaJgM/XDYqpSbTpVGptzkYqe222cqujqf8AWrLj7/D1TjZ/2j39ebeK9FKilXUMp4j/AM1GVbNsjamC9O7ptI8pB7x0/wDc4GSbvqyEJil8MmzwqgLUXpIG9buPXNDwGOpYimtWi4dDsYcR4wRtB6DKF2xXa2o0b/Bct3qLmyoF5E726HKAl61MWQ8NR5JPGOj2eyvXnN1WzcxmWkvgHO+UXQnjTk7PZ1SxTNcPXam6OnCUgj9OrimiYautRFqLwWAYdsiRxs9rXdU4lFz1n+1vTOVefvj6mlVqH7TDsGoeyee8mEJvIvIvIvAm8i8i8i8ATLBkuA0QKrjfHgA+Sp4+s+ycrKsN4SqqngjfN0gcXabS3SJSRESAiIgJiGffPcZ/HxH5jzb5h+f/AD3Gfx8R+Y80ujdqrh+VLHbMcXgiJE1WaREiAiJEBERAiIkwEiJEBOrkGeVcFWDodJDYVKV966+5hxH3XE5UieaqYqjKdMJiZpnONEt5wmJpYiilRDpU6i3F+MHUQR6QR1yk5tgjQrOnk8JSeNTs947J+PyZZodKrhGO9satO/EwsGA6wQexuWWbddhr06dUDWjaJ81v7gemYN612VyaW1ZudpRFSoy37kcTpUnpnajXHmvc+0N6ZT53NydXRxBXnIw7QQfYDOTomqd83W3tnzefeJFnqDkZx3mfleEJvPm8XkXgLyLxeReBYtzlK1N342bR7FH6kztTm5D83Xrf+ozpTykiIgIiICYfn/z3GfeK/wCY83CYfn3z3Gfx6/5jzS6N2quH5Usbsxxc+IkTVZxERCHTyPI62Md0osisih28IzAWJtq0VOudz/LzG/SUPXf/AG5+/wAmHzjE/wANf65pczcVi7lu5NNOrQ0MPh6K6OtVr/llv+XmN+koeu/+3H+XeN+koeu/+3NSiV+/3fl5O3dLW5jOa7k8bhlLugqINbPSOmqjlIIDAdNrThT+g5jO7XLVw2NdUGijqtRFGxQ9wQOjSVrcgNpcwmKm7PVq1quIw8W461OpwYiRLymREQOruVxHg8fhG/1FQ9T7w9zzYc7paWGrj7DN2rvh7JiOWE+HoEbfCU7deks3XHfuavmP/SZk9Ix+qmfl79WlgdmePv0ZredLc81sXRPn/ltOXedXc2mli6XIPCE9Wgw9pEoLrp5zT0K78jWcdu3vBnhvLBuioXVag8k2bzTs7/bK9eIQXkXi8QIvIvF4vAsu5upeky8asfQQPfedmVHIsVoVgDwX3h6D5J9OrtlukSkiIkBERATDs/8AnuM+8V/zHm4zDs/+e4z7xX/MeaXRu1Vw/KljdiOLnxETVZpIiIF3+S/9/if4af1TS5kW4nOqGEq1nrlgHRVXRXSNw15cvH3LudU9QzIxdm5XdmaaZmNDTw12im3ETMR/a1xKp4+5dzqnqGPH7Luc/qGVu7Xf+Z8nft7f/Uea1zI/lGxKvmGipv4OnTpt5xLMR6HE7Gb/AChgqVwlNgxuPC1bb3pVATc9ZHUZQHdmZmYlmYlmY6yzE3JJ5by9gsNXRV169G6FPFX6aqerTpfMRE0lEiIgdDc7QNTG4RRx1aRPmqwZu5TNnzepo4au3+m47SCB3mZ18mmWmpiXxJG8pKVU/wCpUFtXUml6wlz3X4nQw4TjqMBb7K6z36PpmNj6s7kU7o9dLUwdOVEzvlSpY9xlC9WrU4lUIOtjf2L3ytEy/wC5vB+CwyX1M/7Rui9rD1QO+U5W3Uq0w6srawQQe2UzFUGpuyNtB28o4jLvOVnWA8Imkg367BzhydfJ/eRAq14vIMiShN5F4vIvAS15LmPhU0WP7RRr+0Od+v8AeVK8+qNZkZWU6LDWDA0GJzcrzRK624NQcJeXpXlHsnSnlJERATDc/wDnuM+8V/zHm5TDc/8AnuM+8Yj8x5pdG7VXD8qWN2I4vBIiJqs0kRJgJESJAREiEkRElBERAT9cFhKleolKkum7nRVR7TyADWTyCerJ8lxOLfRoISL2ao2qmnnN7hc9E1bczuZo4FLjf1mFqlUjXbmoPJX28fFariMTTajLXVu5rFmxVcndG/k9e5/KUweGSgmsjfO3Pc8I+4dAEqO6HMBXrsVN0TepyEDa3ae4CdvdRnARTh6Z351VGHkLzes9wlTo02dlVRpMxAVRtJmJMzVOc62tERTGUPfkOX/4iuqkfs1s9Tk0eJe06uq80Wc7JstXDUgg1ud87Dym/QbBOjPKSIiBXs7yom9WmNe10HH9odPKJX7zQZws3ybTvUpCzbWXYG6RyGTEitSLyXUgkEEEaiDqIPTPi8lCbyLyJF4H2rlSGUkMNYI1EGWHLt0ANkr6jxVBsPnDi6x3StXi8DRVcMAVIIOsEawR0T7mf4PH1aJuj2HGp1oese+d/B7pkawqqUPOXWvo2jvkZJWGYbn/AM9xn3iv+Y82vD4qnUF0dXH2Te3XyTE8/wDnuM+8V/zHmj0dtVcFLG7EcXgkRJmqzSREiAidXIshr401FommDTCFvCMV1NpWtZTzTO1/l5jufQ9Z/gnKq9bpnKqqIl1ps11RnEaFPidbOtz2KwljWQaBNhUpnSS/ITYEHrAnJnumqKozpnOHiqmaZynQRET08ulk+WUK5C1MYmGN7WqIx/8AbUn/ALTQsq3B4FNF3LYk6iCxApnpCrtHWTMpnvyrOcThWDUKrKL3NPajech1du3pla/auVx+ivL3vjS72rlumf1U5+9zcqVNKaBVVaaKNSqAqqB0DUBK1ne6UDSp4c3OxqvEPM5T0+jllWbdPVxgKu2hbWaSakPTyt27Iw2HeqwSmpZjsA5OU8g6ZiVW5onKrW1qa4qjOnU+FDMwABZmNgBrZmPtMvW57JRh103sazDsprzR08p/4frJMiTDjTazViNbcS34l/WdueZl6IiJAREQEREDn5hldOuLkaL8Trt7eUSq4/LatE78XTideCevkPXL1PllBBBFwdRB2GMxnV5F5bMdufpvdqZ8G3INaHs4uz0Sv43K69K5dLrz01r/AG7bT0PHIkXnzeEPqfN5F5F4S+lcgggkEbCNRHbKjmDE1qxJuS7kk6ySWNyZbLyo4799V89vaZodH7VXBSxuxHF+MiImqzSREiBd/kzxNOm+MNR1S4o20yBexe9r9cv5zfC/Tp2MDMgyDhVepf8A6navMPGx/mq+npDXwv7UfX1lesZm+AqI1Oo6ujAqyaLMGB6hMhzjBrRrutNi9K96bsCCU5DfjGw9V+OWK88mZYfwiEDhDfL18nbGFvdlXp1Tr5+/AxNrtKc41xq9+9Ktz5iJuMgkRED9KNUo6uu0G/XyibbudTDnD06mHH7N1DaR1uTsIY8oNxbiIMw6Xf5N888HVOEqHeVDpUidi1ba16mA9I6ZRx1jr0daNcen8a/Nbwl3q1dWdU+rUYiJjNQiIgIiICIiAiIgIiIHOxeUYeprNMBucm9bu1HtnHxO5dttKoD9lxY+kfpLTECg18nxKbaTEcqb7+nXOewINiLHkOozTp+dSmrCzKGHIQCO+TmMzvKljv3tXz29pm21MmwrbaKjzRo/02mM52gTF4pFFlWtWVRyKKjAbegTR6O2quCljdiOLxSIkTVZpERA6+5/hVepffOwTP0+TjAUq74vwq6YUUSouRrJe+wi+wTQ6WU4ZODRTrKgn0mYeNn/ADVfT0hr4X9qPr6yzqnTZzZFLnkQEnunSw25/FvbeaA5ah0e7b3TQFUAWAAHINQn1KuawxfdbkD4OopYhlqAsGUHRDjhL3g9p5JX5t+6bKBjMJUo6tPh0mPk1F2dh1qehjMRZSCVYEMCQynaCNRB6bzawd7tLeU640cvfyZOJtdSvONU+/fFEREuKxAYghlJVgQVYaiCNYIPEbyIkJbZuVzoYzCrUNvCLvKyjicDaByEWI67cU7sxTcbnn+DxSlzajUtTrcgF9638pPoLTaphYqx2VejVOr38vTJr4e72lOnXGv38/XNMRErO5ERAREQEREBERAREQEREBMK3QfPsZ94r/mPN1mF7ofn2M+8V/zHml0dtVcFLG7EcXOiImqzSIiEr58lP7zG9VD2vNJmb/JT+8xvVQ9rzSJhY39+r6ekNbC/tR9fWSIiVVgmUfKPk3gcQMSg/Z1uHbYtUDX6wF+sNNXnMz3K0xeGq0G1aQujcyoNat2HuuJ3w97sq4nw8XG/b7SiY8fBhUifdekyM6MNFkZkZTtVlNiPSJ8TeY5ESICat8nee+Hw5w7terRAAJ2tR2KeteCf5eWZTPZk+ZPhcRTxCcJDrXidDqZT1jvseKcMRZ7WjLx8HWzd7OrPw8W/RPLgsXTr0qdamdJHAZT0Hl6Z6pg6myREQEREBERAREQEREBERATK8z3H4qricTUV6QDVa7gMz3Aaox12XbriJZw1yqiqeqr4iiKojN5vEfF8+l6zfBI8R8Xz6XrN8ERLXebm/wC0Ofd7e71PEfF8+l6zfBHiPi+fS9ZvgiI7zc3/AGjkd3t7vVatwmQV8G+J8M1NtJaIHgyxtYvt0lHLLpESniZmbkzLvYiItxEERE4OpERAz/dnuQqV8SK+HampdbVRULC7rYAjRU7RYHq6ZX/EbF8+j6z/AARE0bd+uLdOlRrs0TXOg8RMZ9JR9Z/gkeI2L59H1n+CInrvNzf9oR2FG77yeIuM+ko+s/wSPEXGfSUfWf4JETz3m5v+0HYUbvvK6bhsvxWFWph67U3p8OnoFiUY8Ia1Go6j135Zb4iVcTpuTPvUtWYyoiH/2Q==;rounded=0;" parent="efBHhCPweUTcdTAT2awp-23" vertex="1">
          <mxGeometry x="40" y="20" width="90.15" height="70" as="geometry" />
        </mxCell>
        <mxCell id="efBHhCPweUTcdTAT2awp-1" value="" style="image;aspect=fixed;html=1;points=[];align=center;fontSize=12;image=https://user-images.githubusercontent.com/600993/49224326-76230d80-f3e1-11e8-8e5b-5be22ec0e6de.png;rounded=0;" parent="efBHhCPweUTcdTAT2awp-23" vertex="1">
          <mxGeometry x="140" y="20" width="85.37" height="70" as="geometry" />
        </mxCell>
        <mxCell id="efBHhCPweUTcdTAT2awp-21" style="edgeStyle=orthogonalEdgeStyle;rounded=0;orthogonalLoop=1;jettySize=auto;html=1;entryX=0;entryY=0.5;entryDx=0;entryDy=0;" parent="1" source="efBHhCPweUTcdTAT2awp-17" target="efBHhCPweUTcdTAT2awp-20" edge="1">
          <mxGeometry relative="1" as="geometry" />
        </mxCell>
        <mxCell id="efBHhCPweUTcdTAT2awp-32" style="edgeStyle=orthogonalEdgeStyle;rounded=0;orthogonalLoop=1;jettySize=auto;html=1;entryX=0;entryY=0.5;entryDx=0;entryDy=0;" parent="1" source="efBHhCPweUTcdTAT2awp-22" target="efBHhCPweUTcdTAT2awp-27" edge="1">
          <mxGeometry relative="1" as="geometry" />
        </mxCell>
        <mxCell id="efBHhCPweUTcdTAT2awp-22" value="&lt;br&gt;&lt;br&gt;&lt;br&gt;&lt;br&gt;&lt;br&gt;&lt;br&gt;&lt;font style=&quot;font-size: 20px;&quot;&gt;container&lt;/font&gt;&lt;br&gt;&lt;font style=&quot;font-size: 30px;&quot;&gt;webapp&lt;/font&gt;" style="rounded=0;whiteSpace=wrap;html=1;" parent="1" vertex="1">
          <mxGeometry x="560" y="420" width="280" height="160" as="geometry" />
        </mxCell>
        <mxCell id="efBHhCPweUTcdTAT2awp-24" style="edgeStyle=orthogonalEdgeStyle;rounded=0;orthogonalLoop=1;jettySize=auto;html=1;exitX=1;exitY=0.5;exitDx=0;exitDy=0;" parent="1" source="efBHhCPweUTcdTAT2awp-20" target="efBHhCPweUTcdTAT2awp-22" edge="1">
          <mxGeometry relative="1" as="geometry" />
        </mxCell>
        <mxCell id="efBHhCPweUTcdTAT2awp-26" value="" style="rounded=0;whiteSpace=wrap;html=1;labelBackgroundColor=none;fillColor=#dae8fc;strokeColor=#6c8ebf;" parent="1" vertex="1">
          <mxGeometry x="80" y="580" width="1020" height="110" as="geometry" />
        </mxCell>
        <mxCell id="efBHhCPweUTcdTAT2awp-25" value="" style="image;aspect=fixed;html=1;points=[];align=center;fontSize=12;image=img/lib/mscae/Docker.svg;rounded=0;" parent="1" vertex="1">
          <mxGeometry x="540" y="598.1" width="90" height="73.8" as="geometry" />
        </mxCell>
        <mxCell id="efBHhCPweUTcdTAT2awp-12" value="" style="shape=image;verticalLabelPosition=bottom;labelBackgroundColor=default;verticalAlign=top;aspect=fixed;imageAspect=0;image=data:image/jpeg,/9j/4AAQSkZJRgABAQAAAQABAAD/2wCEAAoHCBASEBARERIYEhEXFxESEhERFxsYEhISFxcYGxobFxsbICwkHB0rHhcYJjklKS4wNTYzGyQ5PjwxPSwyMzABCwsLEA4QHRISHTIhICkwPTgyMDIyMjIyMDQwMD0wPDsyMjAyMzIyMDIyMjI9MDQwMjIyMjIwMjIyMjAwMDAzMv/AABEIAMYA/wMBIgACEQEDEQH/xAAcAAEAAwEBAQEBAAAAAAAAAAAAAQYHBQQCAwj/xABJEAACAQICAwoJCQYGAwEAAAABAgADEQQFEiExBiIyQVFSYXGBoRMWQnKRkrHB0gc0U1RidKOz0SMzc4Ky4RQXY9Pw8UOiwhX/xAAZAQEAAwEBAAAAAAAAAAAAAAAAAQQFAwL/xAAzEQEAAQICBggFBAMAAAAAAAAAAQIDBBEhMTJRcdEFEhMUQZGx8BVhgaHBIjPh8SNCUv/aAAwDAQACEQMRAD8A2aIiAiIgIiICInhxGZUk1X0m5q6+/ZA90+WYAXJsOUzg1s4qNwAFHpbv1d08FWqzm7MWPSbychYquZUV8u55F1941TyVM8TyUJ84gey84l5EZDpvnVQ7FUekn2z8HzWufLt1AfpPHeRJyQ9DY+sf/I3YbT4ONq/SP6xn43kXkZD9v8bW+kf1jPtcxrjZUbtsfbPLeReMh0FzjEDygetR7p+yZ/UHCRW6rj9ZyLyLychYaWfoeEjL1WYe6e2jmVB9ji/I29PfKheJGSV8iUehiqlPgOV6AdXo2Tp4bdC41VEDDnLqb0bD3RkLLE8WEzGjV1K++5ram9HH2T2yAiIgIiICIiAiIgIifFRwoLMbAbSYH3PFjMwSnccJuaOLrPFOdjc0ZrrTuq87yj+k5knIerFY+o+omy81dQ7eWeSJElCbyJF4vAReReRAmfEReAvIvF5F4C8i8XkQF5F4vIvAXkSbyLwF5F5Ei8CbzpYPO6tOwY+ETkbhDqb9bzl3kXgXfA5hSrDetvuNTqYdnH1ie2Z4rkEFSQRrBGog9BlgyvPtiVz0Cpxfzfr/ANyMkrHE+Qb7NYn1ICIiAiJ+dSoqqWY2A1kwPmvXVFLMbDvJ5B0yuY3GPUa51KOCvEP1MY3FtUe51KOCvIP1nmvJQmRIkXkibyLxeRAm8i8i8i8Cbz5vPpEZjoqCx5ALmdPDZG7a6jaI5o1t+g74HJvP0pYd34CM3SBq9OyWehllCnsTSPK++PfqE90jNKr08lrttCp5x19156V3PnyqnYq+8md+JGY4y7n6XG7nqIHun6DI6H2j/NOrEnMcv/8ADw/I3rGQchw/2h1NOrEjMcVtz1HiZx2g+6fg+5vm1exl94MsMScxVKu5+uOCUbqJB7xbvnhr5fXThU2A5QNIekXl5iMxnd4l6xOBo1OGgY87Y3pGucXGbm9pot/K/uYe+MxXZE/bE4Z6baLoUPFfYeo7DPwvJQ6uUZw1EhHu1Lk406V6Oj/ht9OorKGUgqRcEbCJnV51sizU0W0HP7Jj6jco6OX09cTCVziQDJkBK/nGL0n8Gp3q7elv7Tq5jiPB02YcI71es/8ACeyVcmTAm8i8iJKCJEi8CZEi8AEkAC5OoAbSYEEzp4DKGezVLonEPLb9J7ssyoJZ6gu+0LxJ+pnXkZpfhh8MlNdFVAHHynrPHP3iJASv1t12Xo703r2ZGZGHg6hs6khhcLY6wdksExDP/nuM/j1/zHlzCYem9MxVno3f1Kvib1VuImlpvjrln1j8Kr8EeOuWfWPwqvwTIol74fa3z5xyU++3N0eU82ueO2WfWPwqvwR465Z9Y/Cq/BMjkR8Ptb5845Hfbm6PKebXfHbLPrH4VX4I8dss+sfhVfgmRSI+H2t8+ccjvtzdHlPNr3jrln1j8Kr8EeOuWfWPwqvwTIZEfD7W+fOOSe+3N0eU82v+O2V/WPwqvwR47ZX9Y/Cq/BMgkR8Ptb5845Hfbm6PKebZ8Puqy6pwcUg8+6f1gTr0ayOoZGDKdjKQVPaJgM/XDYqpSbTpVGptzkYqe222cqujqf8AWrLj7/D1TjZ/2j39ebeK9FKilXUMp4j/AM1GVbNsjamC9O7ptI8pB7x0/wDc4GSbvqyEJil8MmzwqgLUXpIG9buPXNDwGOpYimtWi4dDsYcR4wRtB6DKF2xXa2o0b/Bct3qLmyoF5E726HKAl61MWQ8NR5JPGOj2eyvXnN1WzcxmWkvgHO+UXQnjTk7PZ1SxTNcPXam6OnCUgj9OrimiYautRFqLwWAYdsiRxs9rXdU4lFz1n+1vTOVefvj6mlVqH7TDsGoeyee8mEJvIvIvIvAm8i8i8i8ATLBkuA0QKrjfHgA+Sp4+s+ycrKsN4SqqngjfN0gcXabS3SJSRESAiIgJiGffPcZ/HxH5jzb5h+f/AD3Gfx8R+Y80ujdqrh+VLHbMcXgiJE1WaREiAiJEBERAiIkwEiJEBOrkGeVcFWDodJDYVKV966+5hxH3XE5UieaqYqjKdMJiZpnONEt5wmJpYiilRDpU6i3F+MHUQR6QR1yk5tgjQrOnk8JSeNTs947J+PyZZodKrhGO9satO/EwsGA6wQexuWWbddhr06dUDWjaJ81v7gemYN612VyaW1ZudpRFSoy37kcTpUnpnajXHmvc+0N6ZT53NydXRxBXnIw7QQfYDOTomqd83W3tnzefeJFnqDkZx3mfleEJvPm8XkXgLyLxeReBYtzlK1N342bR7FH6kztTm5D83Xrf+ozpTykiIgIiICYfn/z3GfeK/wCY83CYfn3z3Gfx6/5jzS6N2quH5Usbsxxc+IkTVZxERCHTyPI62Md0osisih28IzAWJtq0VOudz/LzG/SUPXf/AG5+/wAmHzjE/wANf65pczcVi7lu5NNOrQ0MPh6K6OtVr/llv+XmN+koeu/+3H+XeN+koeu/+3NSiV+/3fl5O3dLW5jOa7k8bhlLugqINbPSOmqjlIIDAdNrThT+g5jO7XLVw2NdUGijqtRFGxQ9wQOjSVrcgNpcwmKm7PVq1quIw8W461OpwYiRLymREQOruVxHg8fhG/1FQ9T7w9zzYc7paWGrj7DN2rvh7JiOWE+HoEbfCU7deks3XHfuavmP/SZk9Ix+qmfl79WlgdmePv0ZredLc81sXRPn/ltOXedXc2mli6XIPCE9Wgw9pEoLrp5zT0K78jWcdu3vBnhvLBuioXVag8k2bzTs7/bK9eIQXkXi8QIvIvF4vAsu5upeky8asfQQPfedmVHIsVoVgDwX3h6D5J9OrtlukSkiIkBERATDs/8AnuM+8V/zHm4zDs/+e4z7xX/MeaXRu1Vw/KljdiOLnxETVZpIiIF3+S/9/if4af1TS5kW4nOqGEq1nrlgHRVXRXSNw15cvH3LudU9QzIxdm5XdmaaZmNDTw12im3ETMR/a1xKp4+5dzqnqGPH7Luc/qGVu7Xf+Z8nft7f/Uea1zI/lGxKvmGipv4OnTpt5xLMR6HE7Gb/AChgqVwlNgxuPC1bb3pVATc9ZHUZQHdmZmYlmYlmY6yzE3JJ5by9gsNXRV169G6FPFX6aqerTpfMRE0lEiIgdDc7QNTG4RRx1aRPmqwZu5TNnzepo4au3+m47SCB3mZ18mmWmpiXxJG8pKVU/wCpUFtXUml6wlz3X4nQw4TjqMBb7K6z36PpmNj6s7kU7o9dLUwdOVEzvlSpY9xlC9WrU4lUIOtjf2L3ytEy/wC5vB+CwyX1M/7Rui9rD1QO+U5W3Uq0w6srawQQe2UzFUGpuyNtB28o4jLvOVnWA8Imkg367BzhydfJ/eRAq14vIMiShN5F4vIvAS15LmPhU0WP7RRr+0Od+v8AeVK8+qNZkZWU6LDWDA0GJzcrzRK624NQcJeXpXlHsnSnlJERATDc/wDnuM+8V/zHm5TDc/8AnuM+8Yj8x5pdG7VXD8qWN2I4vBIiJqs0kRJgJESJAREiEkRElBERAT9cFhKleolKkum7nRVR7TyADWTyCerJ8lxOLfRoISL2ao2qmnnN7hc9E1bczuZo4FLjf1mFqlUjXbmoPJX28fFariMTTajLXVu5rFmxVcndG/k9e5/KUweGSgmsjfO3Pc8I+4dAEqO6HMBXrsVN0TepyEDa3ae4CdvdRnARTh6Z351VGHkLzes9wlTo02dlVRpMxAVRtJmJMzVOc62tERTGUPfkOX/4iuqkfs1s9Tk0eJe06uq80Wc7JstXDUgg1ud87Dym/QbBOjPKSIiBXs7yom9WmNe10HH9odPKJX7zQZws3ybTvUpCzbWXYG6RyGTEitSLyXUgkEEEaiDqIPTPi8lCbyLyJF4H2rlSGUkMNYI1EGWHLt0ANkr6jxVBsPnDi6x3StXi8DRVcMAVIIOsEawR0T7mf4PH1aJuj2HGp1oese+d/B7pkawqqUPOXWvo2jvkZJWGYbn/AM9xn3iv+Y82vD4qnUF0dXH2Te3XyTE8/wDnuM+8V/zHmj0dtVcFLG7EcXgkRJmqzSREiAidXIshr401FommDTCFvCMV1NpWtZTzTO1/l5jufQ9Z/gnKq9bpnKqqIl1ps11RnEaFPidbOtz2KwljWQaBNhUpnSS/ITYEHrAnJnumqKozpnOHiqmaZynQRET08ulk+WUK5C1MYmGN7WqIx/8AbUn/ALTQsq3B4FNF3LYk6iCxApnpCrtHWTMpnvyrOcThWDUKrKL3NPajech1du3pla/auVx+ivL3vjS72rlumf1U5+9zcqVNKaBVVaaKNSqAqqB0DUBK1ne6UDSp4c3OxqvEPM5T0+jllWbdPVxgKu2hbWaSakPTyt27Iw2HeqwSmpZjsA5OU8g6ZiVW5onKrW1qa4qjOnU+FDMwABZmNgBrZmPtMvW57JRh103sazDsprzR08p/4frJMiTDjTazViNbcS34l/WdueZl6IiJAREQEREDn5hldOuLkaL8Trt7eUSq4/LatE78XTideCevkPXL1PllBBBFwdRB2GMxnV5F5bMdufpvdqZ8G3INaHs4uz0Sv43K69K5dLrz01r/AG7bT0PHIkXnzeEPqfN5F5F4S+lcgggkEbCNRHbKjmDE1qxJuS7kk6ySWNyZbLyo4799V89vaZodH7VXBSxuxHF+MiImqzSREiBd/kzxNOm+MNR1S4o20yBexe9r9cv5zfC/Tp2MDMgyDhVepf8A6navMPGx/mq+npDXwv7UfX1lesZm+AqI1Oo6ujAqyaLMGB6hMhzjBrRrutNi9K96bsCCU5DfjGw9V+OWK88mZYfwiEDhDfL18nbGFvdlXp1Tr5+/AxNrtKc41xq9+9Ktz5iJuMgkRED9KNUo6uu0G/XyibbudTDnD06mHH7N1DaR1uTsIY8oNxbiIMw6Xf5N888HVOEqHeVDpUidi1ba16mA9I6ZRx1jr0daNcen8a/Nbwl3q1dWdU+rUYiJjNQiIgIiICIiAiIgIiIHOxeUYeprNMBucm9bu1HtnHxO5dttKoD9lxY+kfpLTECg18nxKbaTEcqb7+nXOewINiLHkOozTp+dSmrCzKGHIQCO+TmMzvKljv3tXz29pm21MmwrbaKjzRo/02mM52gTF4pFFlWtWVRyKKjAbegTR6O2quCljdiOLxSIkTVZpERA6+5/hVepffOwTP0+TjAUq74vwq6YUUSouRrJe+wi+wTQ6WU4ZODRTrKgn0mYeNn/ADVfT0hr4X9qPr6yzqnTZzZFLnkQEnunSw25/FvbeaA5ah0e7b3TQFUAWAAHINQn1KuawxfdbkD4OopYhlqAsGUHRDjhL3g9p5JX5t+6bKBjMJUo6tPh0mPk1F2dh1qehjMRZSCVYEMCQynaCNRB6bzawd7tLeU640cvfyZOJtdSvONU+/fFEREuKxAYghlJVgQVYaiCNYIPEbyIkJbZuVzoYzCrUNvCLvKyjicDaByEWI67cU7sxTcbnn+DxSlzajUtTrcgF9638pPoLTaphYqx2VejVOr38vTJr4e72lOnXGv38/XNMRErO5ERAREQEREBERAREQEREBMK3QfPsZ94r/mPN1mF7ofn2M+8V/zHml0dtVcFLG7EcXOiImqzSIiEr58lP7zG9VD2vNJmb/JT+8xvVQ9rzSJhY39+r6ekNbC/tR9fWSIiVVgmUfKPk3gcQMSg/Z1uHbYtUDX6wF+sNNXnMz3K0xeGq0G1aQujcyoNat2HuuJ3w97sq4nw8XG/b7SiY8fBhUifdekyM6MNFkZkZTtVlNiPSJ8TeY5ESICat8nee+Hw5w7terRAAJ2tR2KeteCf5eWZTPZk+ZPhcRTxCcJDrXidDqZT1jvseKcMRZ7WjLx8HWzd7OrPw8W/RPLgsXTr0qdamdJHAZT0Hl6Z6pg6myREQEREBERAREQEREBERATK8z3H4qricTUV6QDVa7gMz3Aaox12XbriJZw1yqiqeqr4iiKojN5vEfF8+l6zfBI8R8Xz6XrN8ERLXebm/wC0Ofd7e71PEfF8+l6zfBHiPi+fS9ZvgiI7zc3/AGjkd3t7vVatwmQV8G+J8M1NtJaIHgyxtYvt0lHLLpESniZmbkzLvYiItxEERE4OpERAz/dnuQqV8SK+HampdbVRULC7rYAjRU7RYHq6ZX/EbF8+j6z/AARE0bd+uLdOlRrs0TXOg8RMZ9JR9Z/gkeI2L59H1n+CInrvNzf9oR2FG77yeIuM+ko+s/wSPEXGfSUfWf4JETz3m5v+0HYUbvvK6bhsvxWFWph67U3p8OnoFiUY8Ia1Go6j135Zb4iVcTpuTPvUtWYyoiH/2Q==;rounded=0;" parent="1" vertex="1">
          <mxGeometry x="600" y="437.76" width="93.03" height="72.24" as="geometry" />
        </mxCell>
        <mxCell id="efBHhCPweUTcdTAT2awp-10" value="" style="shape=image;verticalLabelPosition=bottom;labelBackgroundColor=default;verticalAlign=top;aspect=fixed;imageAspect=0;image=https://programando-em-shiny.curso-r.com/img/hex-shiny.png;rounded=0;" parent="1" vertex="1">
          <mxGeometry x="730" y="437.76" width="62.31" height="72.24" as="geometry" />
        </mxCell>
        <mxCell id="efBHhCPweUTcdTAT2awp-35" style="rounded=0;orthogonalLoop=1;jettySize=auto;html=1;" parent="1" source="efBHhCPweUTcdTAT2awp-27" target="efBHhCPweUTcdTAT2awp-8" edge="1">
          <mxGeometry relative="1" as="geometry" />
        </mxCell>
        <mxCell id="efBHhCPweUTcdTAT2awp-36" style="rounded=0;orthogonalLoop=1;jettySize=auto;html=1;" parent="1" source="efBHhCPweUTcdTAT2awp-27" target="efBHhCPweUTcdTAT2awp-34" edge="1">
          <mxGeometry relative="1" as="geometry" />
        </mxCell>
        <mxCell id="efBHhCPweUTcdTAT2awp-37" style="rounded=0;orthogonalLoop=1;jettySize=auto;html=1;" parent="1" source="efBHhCPweUTcdTAT2awp-27" target="efBHhCPweUTcdTAT2awp-33" edge="1">
          <mxGeometry relative="1" as="geometry" />
        </mxCell>
        <mxCell id="efBHhCPweUTcdTAT2awp-27" value="" style="rounded=0;whiteSpace=wrap;html=1;" parent="1" vertex="1">
          <mxGeometry x="900" y="420" width="200" height="160" as="geometry" />
        </mxCell>
        <mxCell id="efBHhCPweUTcdTAT2awp-11" value="ShinyProxy" style="shape=image;verticalLabelPosition=bottom;labelBackgroundColor=default;verticalAlign=top;aspect=fixed;imageAspect=0;image=https://rtask.thinkr.fr/wp-content/uploads/shinyproxy.png;fontSize=30;rounded=0;" parent="1" vertex="1">
          <mxGeometry x="970" y="437.76" width="72.24" height="72.24" as="geometry" />
        </mxCell>
        <mxCell id="efBHhCPweUTcdTAT2awp-33" value="" style="shadow=0;dashed=0;html=1;strokeColor=none;fillColor=#4495D1;labelPosition=center;verticalLabelPosition=bottom;verticalAlign=top;align=center;outlineConnect=0;shape=mxgraph.veeam.2d.user;rounded=0;" parent="1" vertex="1">
          <mxGeometry x="1080" y="220" width="32" height="58" as="geometry" />
        </mxCell>
        <mxCell id="efBHhCPweUTcdTAT2awp-34" value="" style="shadow=0;dashed=0;html=1;strokeColor=none;fillColor=#4495D1;labelPosition=center;verticalLabelPosition=bottom;verticalAlign=top;align=center;outlineConnect=0;shape=mxgraph.veeam.2d.user;rounded=0;" parent="1" vertex="1">
          <mxGeometry x="1000" y="220" width="32" height="58" as="geometry" />
        </mxCell>
        <mxCell id="efBHhCPweUTcdTAT2awp-43" style="rounded=0;orthogonalLoop=1;jettySize=auto;html=1;entryX=0.75;entryY=0;entryDx=0;entryDy=0;" parent="1" source="efBHhCPweUTcdTAT2awp-42" target="efBHhCPweUTcdTAT2awp-17" edge="1">
          <mxGeometry relative="1" as="geometry" />
        </mxCell>
        <mxCell id="efBHhCPweUTcdTAT2awp-42" value="&lt;font style=&quot;font-size: 30px;&quot;&gt;Cron&lt;/font&gt;" style="image;aspect=fixed;html=1;points=[];align=center;fontSize=12;image=img/lib/mscae/SchedulerJobCollection.svg;rounded=0;" parent="1" vertex="1">
          <mxGeometry x="260" y="240" width="83.72" height="72" as="geometry" />
        </mxCell>
        <mxCell id="efBHhCPweUTcdTAT2awp-44" value="" style="ellipse;shape=cloud;whiteSpace=wrap;html=1;align=center;" parent="1" vertex="1">
          <mxGeometry y="100" width="280" height="140" as="geometry" />
        </mxCell>
        <mxCell id="efBHhCPweUTcdTAT2awp-49" value="" style="shape=image;verticalLabelPosition=bottom;labelBackgroundColor=default;verticalAlign=top;aspect=fixed;imageAspect=0;image=data:image/png,iVBORw0KGgoAAAANSUhEUgAABsQAAAK8CAYAAABY/dqtAAAABHNCSVQICAgIfAhkiAAAIABJREFUeF7s3Qm8nFV5+PFzzvvO3W/WG5LcPfcKSW4WgQgVUQxbIAtisRHRVrFSIxXRCtLa+q9plbZaRMSwXEOrtauirdUiohZxq62KG0JBm+QuSQwYAkLIdmfO+T+TBbPMnTtz531n3uU3fmLC+573nOf5nrnLzDPnvErxQACBqggsG2xvqspADIIAAggggAACCCCAAAIIIIAAAggggAACCCCAAALHCBg8EECgOgJz1cwPnrthYFF1RmMUBBBAAAEEEEAAAQQQQAABBBBAAAEEEEAAAQQQOCLgQ4EAAuELvGxw4VzruTc1aL9VRntD+CMyAgIIIIAAAggggAACCCCAAAIIIIAAAggggAACCBwRYIUYzwUEqiAw1TPXG2UatFJXnPOhxV1VGJIhEEAAAQQQQAABBBBAAAEEEEAAAQQQQAABBBBA4LAABTGeCgiELLB8sL3NKm9dfhhjVKa1Rb8z5CHpHgEEEEAAAQQQQAABBBBAAAEEEEAAAQQQQAABBI4SoCDG0wGBkAWa1bQ/kC+05iPDaO2uWr6+d1rIw9I9AggggAACCCCAAAIIIIAAAggggAACCCCAAAIIHBagIMZTAYEQBfKFL+eZa44ZwpiW5jmtB1eM8UAAAQQQQAABBBBAAAEEEEAAAQQQQAABBBBAAIHwBSiIhW/MCCkWaJzb+ja5d9iUEwiMftuyQZU54TgHEEAAAQQQQAABBBBAAAEEEEAAAQQQQAABBBBAIHABCmKBk9IhAocElt820KKNe0chD21UR5te/JpC5ziGAAIIIIAAAggggAACCCCAAAIIIIAAAggggAACwQpQEAvWk94QeF6gOWPeYrSZMR6Jp8w7xzvHcQQQQAABBBBAAAEEEEAAAQQQQAABBBBAAAEEEAhOgIJYcJb0hMDzAoe2QzQFV4cdaWSMOnXFhoXnwIYAAggggAACCCCAAAIIIIAAAggggAACCCCAAALhClAQC9eX3lMqkN8OMb8t4kTpZ+q8okWzia7nPAIIIIAAAggggAACCCCAAAIIIIAAAggggAACCEwsQEFsYiNaIFC2gG/UdaVcpI15xcUfXtBbSlvaIIAAAggggAACCCCAAAIIIIAAAggggAACCCCAwOQEKIhNzo2rEBhXYNWdCy/Uyrxw3AbHnvC8lrprSmxLMwQQQAABBBBAAAEEEEAAAQQQQAABBBBAAAEEEJiEAAWxSaBxCQLFBIzvXV/s/AnnnPvdZYPtTScc5wACCCCAAAIIIIAAAggggAACCCCAAAIIIIAAAggEIkBBLBBGOkHgkMD5t89fqpRZUY6HNnr6XDv9deVcQ1sEEEAAAQQQQAABBBBAAAEEEEAAAQQQQAABBBAoXYCCWOlWtERgQoE6v76ke4ed0JGv2TbxBBQOIIAAAggggAACCCCAAAIIIIAAAggggAACCCAQjIAOpht6QQCBNTef0mFbGrYYozKT0Rhz6pz7fu8n35zMtVyDAAIIIIAAAggggAACCCCAAAIIIIAAAggggAAC4wuwQmx8G84gUJZArrn+2skWw/IDec5dXdaANEYAAQQQQAABBBBAAAEEEEAAAQQQQAABBBBAAIGSBCiIlcREIwSKC5x1s2rUxl1VvNVEZ91lywfb2yZqxXkEEEAAAQQQQAABBBBAAAEEEEAAAQQQQAABBBAoT4CCWHletEagoMCM1sWvNdrMKHiyxIPGmPpmPePKEpvTDAEEEEAAAQQQQAABBBBAAAEEEEAAAQQQQAABBEoUoCBWIhTNECgm4Jy5ptj5ks8Z82Zpy739SgajIQIIIIAAAggggAACCCCAAAIIIIAAAggggAACEwtQEJvYiBYIFBW4YHDgpXLvsFOLNirxpFTCTl49OH95ic1phgACCCCAAAIIIIAAAggggAACCCCAAAIIIIAAAiUIUBArAYkmCBQTaDB+MKvDDg+iTf26YuNxDgEEEEAAAQQQQAABBBBAAAEEEEAAAQQQQAABBMoTYGu28rxojcAxAhd+oKs9M336kKwQywRHYw/k9uzsvPfaHb8Mrk96QgABBBBAAAEEEEAAAQQQQAABBBBAAAEEEEAgvQKsEEvv3JN5AAL+1Cnrgi2G5YMydV7TzDcGEB5dIIAAAggggAACCCCAAAIIIIAAAggggAACCCCAgAhQEONpgMAkBZYNqoz29ZsneXnxy5z+PWnACs7iSpxFAAEEEEAAAQQQQAABBBBAAAEEEEAAAQQQQKAkAQpiJTHRCIETBWZ7i9YaZeaceCaAI9q8YMXGRecG0BNdIIAAAggggAACCCCAAAIIIIAAAggggAACCCCQegEKYql/CgAwaQHn/f6kry3hwjrtXVlCM5oggAACCCCAAAIIIIAAAggggAACCCCAAAIIIIDABAIUxCYA4jQChQRW3rlowGh1dqFzgR2z6lVn39DWGlh/dIQAAggggAACCCCAAAIIIIAAAggggAACCCCAQEoFKIildOJJuzIBo03+Hl/hPoxqmnbynFeHOwi9I4AAAggggAACCCCAAAIIIIAAAggggAACCCCQfAEKYsmfYzIMWGDlrapee+53Au62YHdamysLnuAgAggggAACCCCAAAIIIIAAAggggAACCCCAAAIIlCxAQaxkKhoicEjANS69TCkzs0oeL73orkUvqNJYDIMAAggggAACCCCAAAIIIIAAAggggAACCCCAQCIFKIglclpJKkwBT9k3h9n/8X0bp648/hj/jQACCCCAAAIIIIAAAggggAACCCCAAAIIIIAAAqULUBAr3YqWCKg1d/ad7LR6eTUpPK1fr9Yrvlaric5YCCCAAAIIIIAAAggggAACCCCAAAIIIIAAAokS4E32RE0nyYQtkNPNVxlldNjjHNu/6Vo1Z+H51R2T0RBAAAEEEEAAAQQQQAABBBBAAAEEEEAAAQQQSI4ABbHkzCWZhCywbFBlZLXWlSEPU7B74/k1GbdgMBxEAAEEEEAAAQQQQAABBBBAAAEEEEAAAQQQQCBmAhTEYjZhhFs7gblm6aWyceFJNYnA6Vcuv22gpSZjMygCCCCAAAIIIIAAAggggAACCCCAAAIIIIAAAjEXoCAW8wkk/CoKaPe7VRzt2KGMamox3qU1G5+BEUAAAQQQQAABBBBAAAEEEEAAAQQQQAABBBCIsQAFsRhPHqFXT0BWZ81RSq+o3ogFRsqo1xU4yiEEEEAAAQQQQAABBBBAAAEEEEAAAQQQQAABBBCYQICC2ARAnEYgL9DoHyxGebXUsFZfuHywva2WMTA2AggggAACCCCAAAIIIIAAAggggAACCCCAAAJxFKAgFsdZI+aqC2jtvaHqgx43oDHKb9Ztr651HIyPAAIIIIAAAggggAACCCCAAAIIIIAAAggggEDcBCiIxW3GiLfqAhfeNnCqMXpJ1QcuMKDT6rUFDnMIAQQQQAABBBBAAAEEEEAAAQQQQAABBBBAAAEEighQECuCwykE8gJ1fu1Xhz0/E9q+5OIPL+hlZhBAAAEEEEAAAQQQQAABBBBAAAEEEEAAAQQQQKB0AQpipVvRMoUCy9crX2sdmVVZRhntt5orUjgVpIwAAggggAACCCCAAAIIIIAAAggggAACCCCAwKQFKIhNmo4L0yDQNHvxxcqok6KUq1N+ZAp0UXIhFgQQQAABBBBAAAEEEEAAAQQQQAABBBBAAAEExhOgIDaeDMcREAHt6TdEDUIrtXjV4IJI3NMsajbEgwACCCCAAAIIIIAAAggggAACCCCAAAIIIIBAIQEKYoVUOIaACKy+fcl0p9wlUcRwxrs8inEREwIIIIAAAggggAACCCCAAAIIIIAAAggggAACURSgIBbFWSGmaAhk1FpjTH00gjk2Ck+b34piXMSEAAIIIIAAAggggAACCCCAAAIIIIAAAggggEAUBSiIRXFWiCkSAk7r10QikIJB6Pkr7li4uOApDiKAAAIIIIAAAggggAACCCCAAAIIIIAAAggggMAxAhTEeEIgUEDgZYML5xprX17gVGQOySqxtZEJhkAQQAABBBBAAAEEEEAAAQQQQAABBBBAAAEEEIiwAAWxCE8OodVOoFnptUr2S6xdBBOPrH3NtokTM9ECAQQQQAABBBBAAAEEEEAAAQQQQAABBBBAAAEV6Tf8mR8EaiXgeybC2yUeUjHKDKy+bfHCWhkxLgIIIIAAAggggAACCCCAAAIIIIAAAggggAACcRGgIBaXmSLOqglc/OEFvUqZs6o2YCUD1ctKNh4IIIAAAggggAACCCCAAAIIIIAAAggggAACCCBQVICCWFEeTqZRwGvMXB6XvJ1VbJsYl8kiTgQQQAABBBBAAAEEEEAAAQQQQAABBBBAAIGaCVAQqxk9A0dVwBkd+e0Sj9gZo5dcfMvS+VG1JC4EEEAAAQQQQAABBBBAAAEEEEAAAQQQQAABBKIgQEEsCrNADJERyBeXjFGnRiagEgLxGlklVgITTRBAAAEEEEAAAQQQQAABBBBAAAEEEEAAAQRSLEBBLMWTT+oFBJqzsVkd9nz0xv1mgUw4hAACCCCAAAIIIIAAAggggAACCCCAAAIIIIAAAocFKIjxVEDgKAHfmdgVxLTWy1ZuXNrJRCKAAAIIIIAAAggggAACCCCAAAIIIIAAAggggEBhAQpihV04mkKBlXcuGlDGLIhj6sapV8QxbmJGAAEEEEAAAQQQQAABBBBAAAEEEEAAAQQQQKAaAhTEqqHMGLEQcEpdFotACwSpjb20wGEOIYAAAggggAACCCCAAAIIIIAAAggggAACCCCAgAhQEONpgMBhAd/3YlsQkxSWr7x1xhQmEwEEEEAAAQQQQAABBBBAAAEEEEAAAQQQQAABBE4UoCB2oglHUiiwYuP8eZL2afFN3dTl6tpXxjd+IkcAAQQQQAABBBBAAAEEEEAAAQQQQAABBBBAIDwBCmLh2dJzjAT8XN1vxijcgqHWeZr7iBWU4SACCCCAAAIIIIAAAggggAACCCCAAAIIIIBA2gUoiKX9GUD+hwQ8HeftEg/loPWqZYMqw5QigAACCCCAAAIIIIAAAggggAACCCCAAAIIIIDAsQIUxHhGpF5g+W0Dc4yzZyUAYtqMsaXnJCAPUkAAAQQQQAABBBBAAAEEEEAAAQQQQAABBBBAIFABCmKBctJZHAWaPPVKZUwivhb8OntpHOeAmBFAAAEEEEAAAQQQQAABBBBAAAEEEEAAAQQQCFMgEUWAMIHoOwUCnon/domHp0kbw33EUvCUJUUEEEAAAQQQQAABBBBAAAEEEEAAAQQQQACB8gQoiJXnReuECay+fcl05cy5SUlLvqB7zt0wsCgp+ZAHAggggAACCCCAAAIIIIAAAggggAACCCCAAAJBCFAQC0KRPmIrkPXdGtks0Y9tAgUCb6ozKwsc5hACCCCAAAIIIIAAAggggAACCCCAAAIIIIAAAqkVoCCW2qkn8byAb/QlSZPQioJY0uaUfBBAAAEEEEAAAQQQQAABBBBAAAEEEEAAAQQqE6AgVpkfV8dYYNmgyjirV8Q4hcKhG/vS5bcNtBQ+yVEEEEAAAQQQQAABBBBAAAEEEEAAAQQQQAABBNInQEEsfXNOxocFZppFL5PtEqcmD8TU1fneBcnLi4wQQAABBBBAAAEEEEAAAQQQQAABBBBAAAEEEJicAAWxyblxVQIEfGvWJCCNgilkjOI+YgVlOIgAAggggAACCCCAAAIIIIAAAggggAACCCCQRgEKYmmcdXI+KKA9ndiCmNaOghjPcwQQQAABBBBAAAEEEEAAAQQQQAABBBBAAAEEDgtQEOOpkEqBVRv6TtFKnZzc5E3XijsWLk5ufmSGAAIIIIAAAggggAACCCCAAAIIIIAAAggggEDpAhTESreiZZIE/ObErg47Mk3Gz7BKLEnPWXJBAAEEEEAAAQQQQAABBBBAAAEEEEAAAQQQmLQABbFJ03FhrAX85G6XeGRePGVXxXqOCB4BBBBAAAEEEEAAAQQQQAABBBBAAAEEEEAAgYAEZNc4HgikS+CCwb6pdbrll8aoTJIzt1aN7RnLznjgrY/sTnKe5IYAAggggAACCCCAAAIIIIAAAggggAACCCCAwEQCrBCbSIjziRPwbMNFSS+G5Sctn2OTMcsTN4EkhAACCCCAAAIIIIAAAggggAACCCCAAAIIIIBAmQIUxMoEo3n8BYznr45/FqVl4DLugtJa0goBBBBAAAEEEEAAAQQQQAABBBBAAAEEEEAAgeQKUBBL7tyS2TgCWtkLxzmVuMOe9SiIJW5WSQgBBBBAAAEEEEAAAQQQQAABBBBAAAEEEECgXAEKYuWK0T7WAuffPn+pMWZurJMoJ3ijFi2/bWBOOZfQFgEEEEAAAQQQQAABBBBAAAEEEEAAAQQQQACBpAlQEEvajJJPUYEGP7OiaIMEnmz2FKvEEjivpIQAAggggAACCCCAAAIIIIAAAggggAACCCBQugAFsdKtaJkAAadV6gpiymPbxAQ8dUkBAQQQQAABBBBAAAEEEEAAAQQQQAABBBBAoAIBCmIV4HFpvASWr+9tUFq9LF5RVx6tc+r8ynuhBwQQQAABBBBAAAEEEEAAAQQQQAABBBBAAAEE4itAQSy+c0fkZQo0zm05xyjTUOZlsW9ujO5cPrhkQewTIQEEEEAAAQQQQAABBBBAAAEEEEAAAQQQQAABBCYp4E/yOi5DIHYCxpj0bZd4eJZaDt1H7NHYTRoBI4BAogWWDbY3zbSNLZ5pbPXcgZb9vm4xym/NOK8lm822+Bn52+lGlcvV+76pz/+d06bBaF0vMPVK/tbKNihnPKutyf9t5G9ntXFGe8bKv1X+3/ahL1718FsTjUlyCCCAAAIIIIAAAggggAACCCCAAAJFBSiIFeXhZKIEtLooUfmUkYy16gJpvqGMS2iKAAIIlC6wXpkVs/vblKo7yeUyszMNudnOeSdJAWu60WqGFK6ma6NnKKumWyV/GzU9/28j1S/lHRmmQSpchx9aKT9z6FcUX/6t/MONvKOaPx+dLHaXNrIC+ODf+X/p5/8p/84fcjr3fHP+gQACCCCAAAIIIIAAAggggAACCCCQSgEKYqmc9vQlfeEHutrlTdHF6cv8SMZ6uVorbzvfrXhTOL1PAjJHYFICZ27omDlVT+3KGNPpjOoyynZqz++yzs6RutNs6XS2VKCkGHa4tJXJDyMFrKMLWUdGlgue36u5ips2a1kiNqnkuQgBBBBAAAEEEEAAAQQQQAABBBBAIDECFMQSM5UkUkzAmzn9wmLnk35OVmFMXb1iyan33P3Qg0nPlfwQQKA8gXzBq7Wuuc+zdX2eZ/q1U31Sq5qntO2WLQg7pILVeGyPhypZJr8MKyYP2U6RDwPEZK4IEwEEEEAAAQQQQAABBBBAAAEEEAhLgIJYWLL0GykB37kVsmVXpGKqdjAup14uY1IQqzY84yEQAYGzb2hrbXjBjAW+qlvgO7tAVnjNl61U+5WxUvwyUw6GeKS+9fy3SjmQmG+bhoJYBJ6HhIAAAggggAACCCCAAAIIIIAAAgjUUoCCWC31GbtqAta5c03KC2LyZvc5An5z1dAZCAEEqi6wfH3vtLq2xqV1Df5Sq+xCY70F8rW/QAJp/3Uwh1d4HfwrPqu8KsHUSsp/PBBAAAEEEEAAAQQQQAABBBBAAAEEUi1AQSzV05+O5C++Zel82TJwbjqyLZKldi+Ts/n1Hq5IK04hgEAcBOSegKuXLz5lzFNLM9ou1dpfKqu9XigFrq4j4Zv8fbzSUe+acMa0YoXYhEg0QAABBBBAAAEEEEAAAQQQQAABBBIuQEEs4RNMeiLQ4pYnaN+vSU+p3O9nxvm3z1/yn7//2E8m3QkXIoBALQS0FPZP8evdi3IZe4Z23ouMU6dJsaup7mA0R6peVL/Gmxzn3P7xznEcAQQQQAABBBBAAAEEEEAAAQQQQCAdAhTE0jHPqc7Sd/rc5NwHp7KpbDBe/j5iFMQqY+RqBEIVWHnrnFm5+llny/qus7Snz1DKLpNSl9znS8uaLzmaX+eZmHt7hUr5fOdOu33VGYlREEAAAQQQQAABBBBAAAEEEEAAAQSiKkBBLKozQ1wBCtjl7Bt2iFP7fr4g9tEAcekKAQQqE9Crb1u8wNWbs2U307O10vJHnSxlr6MerPyqjDj/E4CCWKWGXI8AAggggAACCCCAAAIIIIAAAgjEXYCCWNxnkPiLCsgbzQuVNrOLNkrRSavUOSlKl1QRiKKAXnHHwkXG6PN8z5xrnTpHy3amhxZ8sewrrAlzVrFCLCxc+kUAAQQQQAABBBBAAAEEEEAAAQRiIkBBLCYTRZiTE7C+Wn7sSovJ9ZOUq2Sdyax8kfCet/70f5OSE3kgEHWBVRv6TrENzeca685Txpyb/zo8ErOhBlaV6bOeR0GsKtIMggACCCCAAAIIIIAAAggggAACCERXgIJYdOeGyAIQMJ7cP4zHMQLOs/ltEymI8bxAICSBs29oa23un3t+xqiV2rmLpQjWfXDTQ6pfIYlP3K3HlokTI9ECAQQQQAABBBBAAAEEEEAAAQQQSLgABbGET3Da09NWv1xuHsPjKIHD9xG7ExQEEAhO4Pzb5y9trPMvdk6vdM6cbYzKHOxdswQsOOXJ95TNqecmfzVXIoAAAggggAACCCCAAAIIIIAAAggkQYCCWBJmkRwKCpy7YWCRFMNOKngyxQeddS9NcfqkjkAgAsvXKz/TtvTldZncK7WnL5XlX135jvP1L2pggRAH2okx9tlAO6QzBBBAAAEEEEAAAQQQQAABBBBAAIHYCVAQi92UEXCpAo31enmpbdPUzhjdec6HFnd947qfjqYpb3JFoFKB5bcNtDRl7EVK+6/UTq/WRk1XirsUVupajeuNoiBWDWfGQAABBBBAAAEEEEAAAQQQQAABBKIsQEEsyrNDbJUJOH2OYreygoaNTfYsOUFBrKAOBxH4tcCK61WzOWXhJb7xLrdKXWyU33DwLN9bYvU0OWD9Z2IVMMEigAACCCCAAAIIIIAAAggggAACCAQuQEEscFI6jIqAVubsqMQStThMRr9EYvp01OIiHgSiILB8fW9D85yWVc6oy40ya2Tr1aZ8XNyOMAqzM7kY3Jhmy8TJ0XEVAggggAACCCCAAAIIIIAAAgggkBgBCmKJmUoSOVrgvJvm9ch2Zh2oFBYwzsuvEOOBAAJHBNYrs7p9yXlOuzcYrfL3BGtlEVhynh71DVkKYsmZTjJBAAEEEEAAAQQQQAABBBBAAAEEJiVAQWxSbFwUdYGGaU2sDisySc6p0/KrYB5YP7SvSDNOIZB4geWDSxY0OP16Y9zvaLm/nmYvxETOeXa3/6tEJkZSCCCAAAIIIIAAAggggAACCCCAAAIlC1AQK5mKhjEToCBWZMKMUZn6jilnSJNvFmnGKQQSKSDF4GmNc1uu0J55g2yD+BuHkmQ9WCIn+3BS2jyxK8n5kRsCCCCAAAIIIIAAAggggAACCCCAwMQCFMQmNqJFDAVklQcFsQnmLaNz+W0TKYhN4MTp5Ais3Lj0xVq7dcbqy+WGYI3JyYxMiglYZd2939xBQawYEucQQAABBBBAAAEEEEAAAQQQQACBFAhQEEvBJKctxbNvaGvVVi2RN7x5FBGw1rykyGlOIZAIgZW3zpii6ttfZzy1TtaAvVDlt0Tke0Mi5rbUJIwyv1J3q1yp7WmHAAIIIIAAAggggAACCCCAAAIIIJBMAQpiyZzXVGc1pX/OWcrIpoA8igoYpfMrxHggkEiBczcMLGqq9651Wr9Ovhk0JzJJkipJwCnH6rCSpGiEAAIIIIAAAggggAACCCCAAAIIJFuAgliy5zeV2XmKlU8lTbxRJ60cXNx/77qfbiqpPY0QiL6AXj24cJUz3tuNNhfmw+XOYNGftLAj1NY9GfYY9I8AAggggAACCCCAAAIIIIAAAgggEH0BCmLRnyMiLFPAaXe23EOszKvS2dw4m18lRkEsndOfmKyX3zbQ0lLvXemUvla+8k/mqz8xUxtIIlYbCmKBSNIJAggggAACCCCAAAIIIIAAAgggEG8BCmLxnj+iP15grfK0ci9mXcjxMIX/2xpzppz5h8JnOYpAtAVW3jpnltc061pn1Vvla346hbBoz1fNotNuR83GZmAEEEAAAQQQQAABBBBAAAEEEEAAgcgIUBCLzFQQSBACK88bWCr3D2sJoq809OEZ9aI05EmOyRI476Z5PY2tTddr7b1JMmvU3DEwWRMccDayEpaCWMCmdIcAAggggAACCCCAAAIIIIAAAgjEUYCCWBxnjZjHFdBa/ca4JzlxooA1py5fr/wH1qvsiSc5gkC0BFbeuWjA870/slZdIUUwfn5Fa3qiG43zKIhFd3aIDAEEEEAAAQQQQAABBBBAAAEEEKiaAG8oVo2agaohoH1zRjXGScwYRjW2zDllkVI/+3FiciKRxAmsvm3xQlVv/lRb+2pJzhhWhCVujsNM6IBlhViYvvSNAAIIIIAAAggggAACCCCAAAIIxEWAglhcZoo4SxJwVp/B9mklUT3fyPoN+SIiBbHy2GhdBYFVG/pOMfXN71XOvUaGM1IKq8KoDJE0Ac9oVoglbVLJB4HoCnhTpkyZ6vt+c0tLS8bbsydjGhsze/flMsazGa++3vfHxiJ7y8t9Wtt6Y7I5Y3Jm795crqEhq7Xes3fnzj22sXHPTvlb6HPR5ScyBBBAAAEEEEAAAQQQQKC4AAWx4j6cjZHAiutVszF6IEYhRyPUnM3fR+yuaARDFAgotXJwcb/nmfeKxWvlj6dkL1QeCExWQB947heTvZbrEEAAARGY0t/V1W1zuXbn1XU4m2v3fNOhre5w2s7UTk2TNlPlz7QT7mPbfOi2to1N3q8hM3WRRW04HNnBF4iNTfJJlEOP1rZZB/8xVfKx1u6R40+5g3/MU8a4J+XfvxAFEu47AAAgAElEQVSfHfLT+hfauV+obHb4mVxuSApozx7ugr8QQAABBBBAAAEEEEAAgUgIUBCLxDQQRBACev7S06Wfo95xCKLX5PdhtGabyeRPcywyXHnrnFmmfuafOm3WScCZWARNkJEXyA5t3hb5IAkQAQRqLaD7OjpOliLXIlnLdYq27mSlvVOkInSKFH9m54Mz5vCvmM//rZTOl4xS9pkN2be4STiaJO2OQ6nrgwSed9TLSj9zsELY2ti0y2i1xWn9mLR51Dr3qHHufzeNjj4qp7l/ba2f9YyPAAIIIIAAAggggEAKBSiIpXDSk5qyl3NnKD9l70oEMJlW6SUrb1X1916r9gfQHV0gULZAfnWnd/KSd3qee5e85djKV3HZhFwwjoB1dteXb1LPjXOawwggkE4B09nZuVi2Bjwtp8zpxtnT5efOqUdWdx0se/HxqkCeGVI8myEdzRDfZfkO5UNYBwuI/T29+5WzD1vrfmg980Pfuf/eNDKS376bIlkg8nSCAAIIIIAAAggggAAC4wlQEBtPhuOxEzCePjN2QUcgYLktU0Y1DbxQqUe+G4FwCCFNAmuVd/FFS64yyq03Ss9J3cfs0zTXtcrVmZFaDc24CCAQGYG6np6eF3lOn6O0O0fWM50tkU3JR3ew7sXNZ2sxUfXifrostjv94LaMUiib19Ut9ycz35ctGL81ls3eP7Jt23/Jmb21CI4xEUAAAQQQQAABBBBAILkCFMSSO7epy8xpd8ahTVtSl3rFCTvr5+8jRkGsYkk6KFVg9eD8c52u+4gUwpZQCCtVjXblCmjjKIiVi0Z7BBIgMK+tbb6ub1ytPL3KOfUS+VnTeGhrQ9YgR3V6D2/FeI78TnBOxs/88cFVZMp9J+fclzzn7pFtFn8a1diJCwEEEEAAAQQQQAABBOIjQEEsPnNFpEUEztzQMVOKYX1FmnCqiIAzst0kDwSqIHDxhxf0+q11N8lQr+JtySqAp3wInVOjKScgfQTSIpDp6uo6r07r1cqpVbL9Yf+RxPO79PGIpUC9FMeWe1ovl2LmX83r6R02udwX9mfHPrN1x45vSkY2llkR9PMC3d3d0621XfXWtjqffe95apwokNPaetaOWeuNyT/G/FxuLOf7Y7t37z6gtX5m586du+Uqd+KVHEGgJgKe3I+0X56c0+uMSfT9sHU26/aOqT2Ne5/Ztmn37idqop28Qf32We1L6jOqy3l1zSaX5TfY5M0xGdVAIGfUPpvL/XLv2NiP5PeGZ4+EQEGsBpPBkMELTG+YRkGnElZ76N4OlXTBtQgUE1g22N40x0z/I6e13CdMNRRryzkEAhPwLCvEAsOkIwQiJ2D6e3qWK+deY5161eH7VbHoOHLTFExAsrVij/K8a+rlz7yenh3S67+6ffrvhx4f+u9gRqCXagn0dHZe5nvee+QecqdmPCmEyd6lvOtXLf14jXPwzSrZW9WTbwCekv/zjcofm9bSejCR1samnPz1K3kC/UruUfi0/PtpqY49Ls+nbS5rt4+53LaM72+Twtq24eHh/IekuE/hQTkeQQq0tbW1T21q+qv87yLamCb5NEfyH5k61Zgv+TW1qb7pbT+3Vt08tG3ozuQnHkqGpq+79w+1s9fJB7pmPj+C4e36ULTpNHUCB7+SPF/V1dWPtTY1fepALveObdu2Pcnvnql7KiQz4ZWDS/6f5+k/T2Z24Wclv8Bkh7Znmx9Z/8iB8EdjhLQJrLxrwSWe9TfIL3jdacudfGsr4JR79T1XPXR3baNgdAQQCFJA7gd2uu/clVbrtYfuPxlk7/QVNwFZJvYzm819cve+PZ948sknt8Ut/rTFO6+z823G829NW97kGwEBa7PWmM3K2Z/JfQt/Zpz7Wc6ax6yxPx4ZGXkqAhESQgwF5HeSufJcetBoMzeG4Qcacs6pW4dGht4eaKcp6Ky/s+uj+Q/8pCBVUkQgEgLOqoc2jw79BgWxSEwHQVQqsGbj0s/LJ8MuqbSfNF+fG8uefu/Vj/wwzQbkHqzAmptP6bCtDbcarS4Ltmd6Q6A0gT05tez+dT/5QWmtaYUAAhEWaJE30q/Q2rxZPn2dv+8pDwSOFZA3u53RX8g6d4e8uf1VOck2ahF7jnR0dMysM96orOZsjFhohJNyAavckLwx9oNc1v7A1+4Hjz/99PdlW8ZfppyF9EsQmNfZdZfxvDeV0DQVTfbnsi/cunXrT1KRbABJyhabpzjjPSo/F3lvPgBPukCgVAGby17LGsxStWgXaQHr3GmyTUKkY4x6cFp7p0qMFMSiPlFxiG+t8tZcuPQaZez7ZHOTQ3uaxCFuYkycgFG7NyUuKRJCIEUCco+hRb4zb9NGvVbS5udJiua+7FSNyd+E6jczWv+mbKn4qKwc+5Bskfb30s/+svviglAE6jxvtayioBgWii6dViIgq4175fpe3/cOfohv9sw2NWvmzEe11V9Xuew3frV/79dZgVqJcGKvlbdQvN9KbHaTSMxzeq1cRkGsZDuzhmJYyVg0RCA4AWNeQUEsOE56qpHAmRs6ZsoHKjprNHxihnW+fWFikiGRmgmsGlywRJvMx2XF5jLZ9L9mcTAwAsqqnV9dt/lXSCCAQPwEOufMeXldXd27nFOrpBjGJ57iN4U1jVieMgvkN5CN83p636+dumXzyNBHJaDnahoUg8vnpNyS/P3CeCAQB4H89xF5KSN//HXTMq1qWnPzZufcl2UL+P/YPDx8v+SwNw55EGN4AjNmzOiUX1CmhjdC/Hr2fbM4flHXLmLt6YW1G52REUivgHFqIQWx9M5/YjKfVj+NQk4As2mcxjEAx7R2sXy98hvnLnm37Mn//2SxZv4WuzwQqKmANYrVYTWdAQZHoGwB093RcZlnMjcYo87IX83i/7INueAoASmKzZZy6l9KYewdJpf9i01btw7KaVaM1epZYvS0Wg3NuAhULKBNn/xMeov085Z5Xd175d/3q5y55+m9z3xh165dWyvunw5iJzAtk+F72omzhsmJJkWOGAqqRXQ4hUBoAsZMoSAWmi4dV0vAz5lTFc/kyrkpiFVumNIe1tx5yguV3/BxSf+0lBKQdgQF5AbXFMQiOC+EhEAhga729kszXt37ZDXYkkLnOYZAJQIHC2Oe/5H+rt7rs8b9uWyl+AnpL1tJn1xbvoCsrvEpcpfvxhXREzh8H7zV8h7E6qnNLbdNbZ7yTWfVP4+psbu3bdv2ZPQiJqIwBHINDRnehjpWVr7P88HYMp5sTjtPsxFCGWI0RSAYAWutx35WwVjSSw0F5I4B+Xtf8ahQQBs9/YLBge4Ku+HyFAnkV4VdvHHgvdY0fE/SphiWormPRapW/zwWcRIkAikW6OvuvmBeV+//1GXqPkcxLMVPhGqlblSXr/TG/q7u/+3p7Dx4ryAeCCCAQCUC+fv/yKrmczxf3dFgvB19PT339LV35u97WV9Jv1yLAAIIIIAAAuEJ8IGG8GzpuUoC1rpT5ffQKo2W7GEy3sH7iI0kO0uyC0LgorsWvcB33j/KJ33P5ENNQYjSR9ACB5z936D7pD8EEAhGoL+ra7HT+hatzfmsGAnGlF7KEDDmBb4yn5U3rr+YU+oaWTG2pYyraYoAAggUFjDyUV2lVqmMv0oK77cqoz+xP5cb3Lp1Kx/SKizGUQQQQAABBGoiwAqxmrAzaFACA+sH6uQOEwuC6i/1/eQyrLZL/ZNgYoDVGxe/KWP1Dw8Ww3ggEFGBnB2jIBbRuSGs9Ar0TpP/dfd+RH53k58h5vz0SpB5FARkm6JVxrqHezq6/kTikdcUPBBAAIGABIyZKT/rrsto85ishv7q4VWpvP8WEC/dIIAAAgggUIkAK8Qq0ePamgv0zFaLZIsC9ikOaCY8T+dXiPFAoKCArAqb4TlvoxTCLmNVWEEiDkZFQDaFzj2x/2dRCYc4EEBA6Z6enjd5Sv2FWMxSsj8iDwSiIJC/F5C8lnj/vJ6e33Y5ffXQ1qEHohAXMSCAQDIE8lsqSibn+545v6+r9+fOZf96y9atn5Rj+5ORIVkggAACCCAQPwFejcZvzoj4KAGtPVY0BfiMkPeQ8QzQM0ldrdiw8JyM8h6Sl3TccyNJE5vQXKxSWx5YP7QvoemRFgKxEujs7DxZ7hP29fy9myTwWbEKnmBTI2Bkxwmt7f29PT03S9Lc+yc1M0+iCFRPQD4LcrLx/I/N6+7e0t/ZeYOMPKV6ozMSAggggAACCBwRoCDGcyHWAsbTFHCCnEGj+lZcr5qD7JK+Yi+g19w18O66hsz9kkl77LMhgVQIyO3NH0lFoiSJQLQFTF9H1ztlu6gfywqcl0U7VKJDQKn8Sg5P6T+Y19P7P3Pnzl2ICQIIIBCGgPyeOld5/gfmdUlhrKfnXb2qtyGMcegTAQQQQAABBAoLUBAr7MLRmAhY7SiIBThXRu786/fM5w2AAE3j3NWZGzpmrrlryT1K+fktrmSnKx4IxEPAaUdBLB5TRZQJFZjX1jZf3uT7lva9D+W3pEtomqSVUAF5gfzCBj/zYG9H71sSmiJpIYBABATk5+MMuc/YB70u+3+yrfBVEhKvtyIwL4SAAAIIIJB8AQpiyZ/jZGdouedV0BNsG+sXBd0n/cVPYPXHFr+krW7Gj+RF2sr4RU/EaRdwyv4k7Qbkj0CtBPq7u9+gGpselJ8fZ9UqBsZFoFKBfCHX89Ud/V29n+ubPn1qpf1xPQIIIDCugDEd+W2FZXXqw93d3ZeM244TCCCAAAIIIBCIAAWxQBjppBYCKzcu7ZQteHiBGjC+zrmBgLuku5gJrBxcfLVT5gHZOagzZqETLgIHBfbucz+GAgEEqi7QIsWwTyptPiHFBLZfrjo/A4YiYNSlbsrU/8nfCy+U/ukUAQQQOCwgb87Nl22GPy/33fy8rBibBwwCCCCAAAIIhCNAQSwcV3qthoC1FG5CcPa0xjUE1zh0ObB+oG7NxkUbPc/cLsXmTBxiJkYEjhew1u53Ox957Pjj/DcCCIQnIMWCpfLJ9u9LMex3whuFnhGojcDBN6mN+Z++7u4LahMBoyKAQJoE5HXYJca6h3s7O/9U8q5PU+7kigACCCCAQDUEKIhVQ5kxwhEwhsJNCLLOsEIsBNbId/mywYVz+9q9ryvt5fev54FAbAWM0g8/sF5lY5sAgSMQM4Hujo7fkk+0fydfNIhZ6ISLQMkCRpvp2ql7ZdXGNSVfREMEEEBgkgIHt231/D/r6+p9qL+9/exJdsNlCCCAAAIIIFBAgIJYARQOxUPAUznudRXCVGnrepcNtjeF0DVdRlRAth99cav2HlRGvziiIRIWAqULaLZLLB2LlghUJKD7unvXe8b7tLxxx+8NFVFycSwEjPHlPj8flTeo75R4vVjETJAIIBBrAW3Uydbzv9HT3f1BSYTVYrGeTYJHAAEEEIiKAAWxqMwEcZQtYB1b+5WNVsoF8q7WVNW2oJSmtIm/wIo7F1+utf2aTPvc+GdDBggolbX2RzgggEC4Au3t7U3zurs/rbV6r/z80OGORu8IREtA3qBeJ8//f5Go2F46WlNDNAgkUkB+zhpfm3fJfTp/IH+WJTJJkkIAAQQQQKCKAhTEqojNUMEKyO+FbJkYLOnzvTW6LLYh2UapW1kZ9sfyUed/Nso0RCkuYkGgEgFPm+9Xcj3XIoBAcYGOjo6Z9V7dA7KF3G8Vb8lZBJIrkH/+9/X0/Ltk2JjcLMkMAQQiJaDl/Q+n/ru/p+ddEhcfRonU5BAMAggggECcBCiIxWm2iPV5gfz9juQ/pkESjkBO+RTEwqGNRK/LBlVm1V1LPu5pdaMUw3gxFYlZIYggBKxV2V27f/rDIPqiDwQQOFFgxowZXXW+/y1j1BknnuUIAukS0EqvnNfV+6W2trbWdGVOtgggUDMBWSwmtbAP9nf1fq67u3t6zeJgYAQQQAABBGIsQEEsxpOX5tCnaJ/7h4X4BPB8h2+IvrXs+oLBvqmzvaX3GaWvrGUcjI1AGALa2Ie/8061N4y+6ROBtAv0tvcumN485dvy84NtldP+ZCD/5wWkOHzOlMam+6dMmTIDFgQQQKBqAka9wtP6B11z576oamMyEAIIIIAAAgkRoCCWkIlMWxo5l2MFU4iTrp3DN0TfWnWdX1nZYJq+Id/4z61VDIyLQJgCzrJdYpi+9J1egZ6entM9z35LGdWVXgUyR6CwgDbmRW1Tp93HSrHCPhxFAIFwBOQDKr11dfXf7u/ovTKcEegVAQQQQACBZApQEEvmvCY+K9nmjYJNmLPsVN/KW1V9mEPQd3UF1tzZd3Krl/kvpc3S6o7MaAhUT8Aa973qjcZICKRDoLOzc6lv3ZeVMTPTkTFZIlC+QL4oNrW55Qu9qpf7spbPxxUIIDB5gTrlq4/3dnX9hXTBVviTd+RKBBBAAIEUCVAQS9FkJylVrTUFsTAn1Bizzwy8IMwh6Lt6Aqs3Lllm/RbZ5kr1Vm9URkKg+gJ6LPfd6o/KiAgkV0DuT7Ko3vO/SjEsuXNMZoEKvFx327ulR7nHDw8EEECgegKe8d7d3937KRmxsXqjMhICCCCAAALxFKAgFs95S33UTnOPq7CfBJmMd3LYY9B/+AIXblh6vmyB+YB8s58V/miMgEANBazdfe/9j/ykhhEwNAKJEpjX1jbf0+Y/JSl+fiRqZkkmTAGjzZq+np6/kzFYqREmNH0jgMCJAlqtndfV+0BLSws/t0/U4QgCCCCAAALPC1AQ48kQO4EzN3TMlBeb3Lg65JkzRlMQC9k47O7X3LlkVabB/od8sr8l7LHoH4GaCxj9P+pulat5HASAQAIEZs6c2WEam74qLxRmJyAdUkCgqgJa6df2dvfeUtVBGQwBBBAQAWPUmbNnzvy63NOwHRAEEEAAAQQQKCxAQaywC0cjLDCzfiaFmirMj6cdzlVwDmuIFYNLXql8929yvz3uZREWMv1GSiCXtd+OVEAEg0B8BaZMaWn9oryr1hnfFIgcgdoKeFpd29vR+5baRsHoCCCQTgG9cGpT0zd75/T2pjN/skYAAQQQQKC4AAWx4j6cjaCAdZZCTTXmxVEQqwZzGGOsuHPx5b7Wcg8LUxdG//SJQBQFnMv9VxTjIiYEYiaQmdfd/Vl5gbA0ZnETLgKRE/CM/Wh/T895kQuMgBBAIPkC2vR5Gfut/PbHyU+WDBFAAAEEEChPgIJYeV60joCAz8ql6syCMxQeqyMd6ChrNi58fZ1v/lG2y+CG7oHK0lmkBay1euyJ70Q6RoJDIAYC/V29d8m21BfEIFRCRCD6Asb41rq7Z82a9YLoB0uECCCQOAFjOlRzy9c7Ozt5XZ+4ySUhBBBAAIFKBCiIVaLHtTURcM7worIK8s7Y9mWD7U1VGIohAhJYddei1yrnfVy68wLqkm4QiIWAM+qhe6/d9UwsgiVIBCIq0NPVdZ0y6vURDY+wEIilgDFmRktT0xf6pk+fGssECBoBBGItkL8XaJ3nf7Wvvb071okQPAIIIIAAAgEKUBALEJOuqiRg2MqvGtJy7yk9LddK8bEa2AGMsWbj0t8yyvuk3POF7+sBeNJFvASscg/EK2KiRSBaAr2dvcuN0h+IVlREg0AyBORra4Frmfr3yciGLBBAIG4CWqlu5dV99aTm5tlxi514EUAAAQQQCEOAN07DUKXPcAUsW/mFC/zr3ut9zfYK1cKuYJyLNg5cap36J+mClWEVOHJpfAWsc1+Lb/REjkBtBWbMmNFpPPUp+TwFP0NqOxWMnmAB+bjSJX0dXe9McIqkhgACERbQRp3c3Dbry93d3dMjHCahIYAAAgggUBUBCmJVYWaQoARW3jpnlrygZMuRoEAn6Me6DAWxCYxqfXrNnUtWZbT5tHxdZGodC+MjUBMBuX/Y/m17vl6TsRkUgfgL1E1tnvJZ+fT4SfFPhQwQiLaA9r2/6pwz58xoR0l0CCCQVAF5829pRuvPSn68bkzqJJMXAggggEBJAhTESmKiUVQEnOGm1NWcC89je8pqepc71kUbl75Mdrb8jFKmrtxraY9AcgT0jx5YP/R0cvIhEwSqJ9DT3f1++UAFb9BXj5yR0i2QydTXf6p3Wu+0dDOQPQII1E5Anzuvs+uO2o3PyAgggAACCNRegIJY7eeACMoQ8OuzrFgqw6vippYtEys2DKmD82+fv9Rz6gvKqMaQhqBbBGIh4LRmu8RYzBRBRk2gY07Hucap66IWF/EgkGQBuZ9Yr5nq/ibJOZIbAghEW8B43pvm9fRcH+0oiQ4BBBBAAIHwBCiIhWdLz2EIaJ+CWBiu4/ap+8Y9xYmaCay+fUlffV3mPrYPrdkUMHCEBHTO3R+hcAgFgVgI5FeoNGQyfyf3DeO1QCxmjCCTJKCVvqy/u/vNScqJXBBAIGYC1n1gXnv7K2IWNeEigAACCCAQiAAvggNhpJOqCThWLFXNWgbSys4dWD/AdnzVRJ9grPNvmTfb+e7LRpk5EzTlNAKJF8jfPuwX+skHEp8oCSIQsICsULlDVhh3Bdwt3SGAQKkC2tw0b+7cnlKb0w4BBBAIUiD/gRiTqfv7k046qT/IfukLAQQQQACBOAhQEIvDLBHjrwWcZcVSNZ8P8ntyV6furuaQjDW+wPLbBloaW1rvlWnhhcv4TJxJkYAx+lsPrtu+J0UpkyoCFQv0dvW+UlaovKbijugAAQQqEWjVmUx+60RdSSdciwACCFQgMKW1sfFuub6+gj64FAEEEEAAgdgJUBCL3ZSlO2BrTG+6BaqfvW8xr756gRHXKq+p3vyLnDmtwFkOIZBKAWfdl1KZOEkjMEmBtra2Vk/Zj07yci5DAIEABbQ25/d19L4lwC7pCgEEEChTQJ/W19V1S5kX0RwBBBBAAIFYC1AQi/X0pSv4s25WjfKEnZWurGufrTO6t/ZREMGaC5Z8RLZJXI0EAgj8WsC57H14IIBA6QItTS3vV8Z0ln4FLRFAIEwBbewHe3p65oU5Bn0jgAACxQS08d7S39XLyvFiSJxDAAEEEEiUAAWxRE1nspOpb17CPvs1mGKjHO41cD96yIvvWvQHytNvrXEYDI9A1AS2f3Hdow9FLSjiQSCqAvIJ8DO0s9dENT7iQiCVAsa0eM5tTGXuJI0AApERcEbdOWPGDO4tGpkZIRAEEEAAgTAFKIiFqUvfgQo02DEKM4GKltaZda63tJa0CkPgoo0Dl/pW3xRG3/SJQJwFnLJslxjnCST2agvIfYr07XIPSn73r7Y84yEwgUB+60RWZ0yAxGkEEAhVQH5JmDq1ecpdoQ5C5wgggAACCEREgBfFEZkIwphYwPMzFMQmZgq8hdHcQyxw1BI7XHHHwsUZZ/5Btrfie3WJZjRLj0DW2c+nJ1syRaAyge7OztdpY15UWS9cjQAC4QnY/IefWsLrn54RQACB4gLyinNFf3f3uuKtOIsAAggggED8BXiTNf5zmJ4MbI6CWA1m21pWiNWAXV1016IZmYz/71IM482RWkwAY0ZawCq7b6d9+iuRDpLgEIiIQK/qbfA9/8aIhEMYCCBQSMCYjv7OrvcWOsUxBBBAoGoCTt3UO6e3t2rjMRACCCCAAAI1EKAgVgN0hpycgNzstXdyV3JVJQJyD7H2ZYMqU0kfXFumwFrl+dZ8SivdV+aVNEcgLQL/+eC67XvSkix5IlCJgOlW75CtkLor6YNrEUCgCgKe9/Y5c+YMVGEkhkAAAQQKC8iHMXVGfazwSY4igAACCCCQDAEKYsmYx1RkYZVmhVgtZlq265uTW8INdqtov/qCJTdpoy+o4pAMhUCsBOTnwRdiFTDBIlAjgfb29jat1btrNDzDIoBAeQKZ5vr6DeVdQmsEEEAgWAHZOvHCvp6eVwXbK70hgAACCCAQHQEKYtGZCyKZSMA5CmITGYV0fixje0Pqmm6PE1h116LXak+/AxgEECgsINslutyTT1MQK8zDUQSOEWgw5jo5MAUWBBCIi4A+t7+r9zVxiZY4EUAgmQLa6g/Lh2qakpkdWSGAAAIIpF2AgljanwExyT+/ZV9+676YhJu4MP2coRhZhVldeeci2SbHY4uKKlgzRJwFzHe/8oej2+OcAbEjUA2BKVOmzNCe/9ZqjMUYCCAQpIC9SXrjHrJBktIXAgiUJ2BUV53nvae8i2iNAAIIIIBAPAQoiMVjnlIf5Uwzv1PJ1n2ph6gRgKzI6KjR0KkZdsX1qllWhn1GnuTNqUmaRBGYhIC29jOTuIxLEEidwPTWqfnVxq2pS5yEEYi7gDEdfZ2dfxL3NIgfAQTiLeAZ77rOzs6T450F0SOAAAIIIHCiAAWGE004EkGBumyGFUo1nBffeBTEQvavm7/kY0abhSEPQ/cIxF5gTI99NvZJkAACIQv0TZ8+1fO9a0Mehu4RQCAkAVnd+c5Zs2a9IKTu6RYBBBAoRaAuY8xflNKQNggggAACCMRJgIJYnGYr1bFqCjI1nH9n2K4yTP6Vg4uvVlq/Nswx6BuBJAg45x788u89tiUJuZADAqEKtE69Wis1NdQx6BwBBMIUqGtpaL45zAHoGwEEEJhQwKlX9Xd3L5uwHQ0QQAABBBCIkQAFsRhNVppDzfqa+4fV8gngFAXJkPxX3LFwsfYUb3iE5Eu3yRLIWcV2icmaUrIJR8DTTv1+OF3TKwIIVEtANou/pLuj4/xqjcc4CCCAwPECctcKbZ35y+OP898IIIAAAgjEWYCCWJxnL0WxG+vmpijdyKUqqzIoSIYwK8vX9zbUeZl/Mco0hNA9XSKQOAHncf+wxE0qCQUu0NfT80plVFfgHdMhAghUXcDzM/kPTfGaveryDIgAAkcEpDh/YcecjnMRQQABBBBAICkC/HKdlJlMeB7ywSQKMjWcY/lGMVutVV4NQ0jk0E2dzR+StzgWJTI5kkIgYAGr7Pfvu+rh/wu4W7pDIHECzmruHZa4WSWhtArI7+BL+7q6rkGTaPkAACAASURBVExr/uSNAALREGio92+MRiREgQACCCCAQOUCfuVd0AMC4QtY7eYaJXfD4FEbAdkrYc1Zp8z5j7t/tq02ASRv1JV3LbjEKI8trZI3tWQUkoBz5h9D6ppuEUiMQGdn51L5JPc5iUkoWYkccErtdcrJX9F8yI4MvlWqUX7t40NQEZoirbz1Ek7+Z+D+CIVFKAggkCoBfda8rq5ztoyOfiNVaZMsAggggEASBRwFsSROawJzMvkt+zQFsZpO7RQ/fx8xCmIBTMLy2wbmeNb/WzbACQCTLtIikNt7IPsvaUmWPBGYrEDG89ZN9lquq1DA2qw15mFtcz908res1Pu/A/sODGeaMjuGh4d3Su9jFY5Qzcvrept7Z2Rb93XX1dd35bJ2vuebZVLJO10+oNZbzUAYSwRkC9Te7t6rh0aGbsEDAQQQqJWANuYPZWwKYrWaAMZFAAEEEAhGwJjdFMSCoaSXkAWsNrJCjEctBQ7kPLatDGgCmuu9QemqLaDu6AaBxAtYZ+9/4K2P7Eh8oiSIQGUCdbLC53Jl+ABRZYylXy2rqR4zudxXrM195dkDB762c+fOZ0u/OtItDww9N7RDPafy33e/e3SkM2bM6Jza1LTSeN4qa90KWU3WFOlMEhKcfFm/u729/WPbt2/fk5CUSAMBBGImoJVe1Td79pLNjz/+UMxCJ1wEEEAAAQSeF9DWjlIQ4wkReYGVt86YIsWw5sgHmvAAfWPzK8R4VChw8V1L3yBvVb6iwm64HIFUCciHItguMVUzTrKTEeif27laGTNzMtdyTRkCVo0q4z65P5f7u61bt/68jCsT0XTXrl1b5c9GSSb/Z0p/d/drZBeHNyqlX5yIBCOahPzueFKd7/+ehPeRiIZIWAggkAIBV19/g6T5OylIlRQRQAABBBIq4Iz+BotuEjq5SUrL2c65SconrrloK9tW8qhIYOXGpZ3G8kZGRYhcnD4Bq/Y8+7Pt/5q+xMkYgTIF6rzXl3kFzUsUsLIUSin3uTFnV2waHerdNDz8njQWwwpwPbNpZORj4nFWbp86S1bz/keBNhwKSECKYm+Xrnj9HpAn3SCAQPkCxqnXtLW18b5A+XRcgQACCCAQAQF5Xbcn59xt/EIdgckghOICXuN+fuEqTlSds8ZjhViF0vIC4i5j1NQKu+FyBNIlYNRnv/3BxGxDlq65I9uqCXR0dMjKML26agOmZCB5wWSVU3dLIexUKfr85sjIyFckddkpkcfxAkOPD/33lpGRS3JZdZoUD792/Hn+u3IBo828ns7OiyvviR4QQACBSQoY409tbn7TJK/mMgQQQAABBGop8Izc7/lyeU23mS0TazkNjF2SgPP8udwNoySqUBs5pWeHOkDCO1+9cfGbtFYXJTxN0kMgeIEx+7fBd0qPCCRLwPf9V0pGmWRlVets3Jf2jh24bseOHY/UOpI4jT+0behHEu9587q71xpnPiTrmbriFH/UY5V7tl0hMX4x6nES3yQErN2qtPlOTqlfyKeW9yqblZWp6X7kjPGM1s3G6hbZqvYk+TTCHKN0n6hMSbdMjbO3Or99643yhw+I1HgqGB6BxAtYu13ujzxindud+FxJMHgBJ8sStN3vtH7Cc+67uWfMp4ae3vZ0fiAKYsFz02PAAtrqdjYHCRh1Et1p5WZN4jIuEYHzb5k3Wzn914rKLs8HBMoScMptvufqn369rItojEAKBYxzr5T7OKUw8xBSlhfeVqt3yGqnu0PoPTVd5v1kW60vTWlsvFUb78rUJB52olpfEPYQ9F9lAWt3Zp1dN7x167/JyKkvgpWi39/SctLY1KlLPN8/TYplL5P3CpbLdRTJSsELoo180KGvo2PV5m3b2CY3CE/6QACBEwRkG+5/cFlz49D2kUdPOMkBBAIQoCAWACJdhCygzZyQR6D7EgS0dieV0IwmBQTqm5rlzSA9vcApDiGAQBEBm1OfkNO8OVTEiFMIiECLFMN4kzyAp4Lsj3j7s3v3/NHOnWzTGgCnyjvuVOqNslosv6JpULb843ehCmFldUz+dVG9/NlfYVdcHgUBm18G5lZJMex7UQgnLjFs2r37CbV7939KvPk/N8kfv7+9/TecX3eh/NZ4mTZqSVxyiWuczvPWSewUxOI6gcSNQKQF3I3ywar3RDpEgou9APcQi/0UJj8Bp53cF4NHzQWsaat5DDEMYNUdi9fI9javjmHohIxAbQXk3j3P7XafqG0QjI5A9AX6enoukjfJG6IfaXQjlKr7r7K57Ku2DA+/lWJY8POUXy323L59Z0jBkU/5Vs77rHQxVnk39BAJAW3+bfPoKMWwyicju2n79m9vHhlav3l0aGlWuWUql9sgv0ruqrxreigo4NQqWQXMvd4L4nAQAQQmKyC/k4/IfXvXT/Z6rkOgVAEKYqVK0a5mArINAoWYmukfNbBRjctvG2iJQihxieHsG9paTUbdHpd4iROBSAkYfd83rvvpaKRiIhgEIijg8tsl8pi8gLMPynZlp8sKjX+dfCdcOZHAE088sUk/88yLrVVfnqgt54sJuL+Ws9y3pxhRjM7lnLo3RuHGJtTh4eEfbNo6+rYtoyNzpTh2lXJ2c2yCj0mg8oFPM6W+5fKYhEuYCCAQEwFZNf0ZCTUbk3AJM8YCFMRiPHnpCd1REIvIZNfV5biPWBlzMbV/7p8pZbiZfBlmNEXgiEBOjd2BBgIITCggO/KaiyZsRYOCAvKi+982jYycPTIywpulBYWCPbj5qad+tWV0aJWUcz4ZbM/J701WuthsNvc++dT0+5KfbXoyNNr+PD3Z1iTTA1Ic+xv5Pj9fimJXSiX5ZzWJIqGDOqOuSGhqpIUAArUScO7HtRqacdMlQEEsXfMdz2w1BbGoTFyd9iiIlTgZK+5YuFju6fK2EpvTDAEEjhawduTe+x7N33OGBwIIFBHo7OzM3yeFn81FjMY95dTHNg8Pr5Xz3ItpXKRQTuQ2jQ69Mafc34bSeyI7dd/Ryr14eNvonyYyvRQn5fbty2+BySN8gawUxf5uy/DQoqzNXa+s3R3+kMkfwRh1xkknndSf/EzJEAEEqiWQU+qpao3FOOkWoCCW7vmPR/aae1dFZaJczvGmW4mTUed5G+RFgl9ic5ohgMBRAs6Zj6m7lfw+zAMBBIoJ+MY/r9h5zo0n4G7cNDK0Ts7yfWY8onCP26HhYdnGTH0s3GFi3ruzP5BVjGtkVdhLuM9UzOdynPC11mx/OY5NSIezw6OjH3rqud0L8yuEQxojVd02Zupfk6qESRYBBEIVyMiC+FAHoHMEDgtQEOOpEGmB5euVb5WdGukgUxRczmoKYiXM98Ubl16hjHl5CU1pggACxwnI/WXGnstm/wYYBBCYWEAre/7ErWhxrID7kBQY3oNKzQWcFCWvts5+tuaRRCwAZ9VD6kD2MlnRskxWMd4TsfAIB4HYC+zatWurfG1dJt9/Xi3JPBP7hGqYgGc0BbEa+jM0AggggMDkBCiITc6Nq6okUDe7f4ZRRldpOIaZSMD3KYhNYHT2DW2tvlY3TdCM0wggMK6A/bcH3vrIjnFPcwIBBI4IyPtQ5hw4yhCQe1dJMexdZVxB03AFrBsxv+2c/Xa4w8Sjd6vco3J/tSs2jw69cNMvtrJ6JR7TRpQxFtgyMnL3s3v3nK6U+2GM06hp6NqYxb1zentrGgSDI4AAAgggUKYABbEywWheXQFPN7RVd0RGKybg2ywFsWJAcm76ybP/WP5qn6AZpxFAYByBMTN26zinOIwAAkcJ9Hd3nyr/OQWU0gRke6wvyr2r3iStXWlX0KoaAkNqaN/+XO5SWRX182qMF8kxrN0kK1XesGV4eLE8R/+F52gkZ4mgEirwxBNPbJIPSpylnN2Y0BRDT8vVu9WhD8IACCCAAAIIBChAQSxATLoKXiCXtRTEgmeddI/W8yiIFdE776Z5PVbrdxRpwikEECgmYO33vnLVY6wUKGbEOQQOC+Ry5gwwShSQgoNsj3WFtOa+BCWSVbPZtm3bntQqd5m1dk81x631WFKZHbG57Js3jY4skJUqn5R4uKddrSeF8dMqsF+2KH2zfF7iT9MKUEnenlIUxCoB5FoEEEAAgaoLUBCrOjkDliOQ8T0KYuWAhd7WURArYtw4rfWvZIvPhiJNOIUAAkUErHG3FDnNKQQQOFrAdxTESntG7N+7L7tWmnKfmNK8atJq0+joT5VWV9dk8GoPau32rHLXbB4eOnnL1q35VSkUaqs9B4yHQAEBWSn2Plkp9hYpztsCpzk0joAU989tb29vGuc0hxFAAAEEEIicAAWxyE0JAR0j4GkKYlF6Slg1PUrhRCmWFYMDv+GUvTxKMRELAjET2P547uG7YxYz4SJQMwFjNQWxEvRdVv3B9l9u5/4wJVjVusnBVVIJ3rZM3jR+Qp6P78yNmv7h4eHbxPtArc0ZHwEEjhWQlWKDUpy/gqJY6c8Mo3RDg9bnlX4FLRFAAAEEEKitAAWx2voz+gQCWudmTtCE09UUMGpaNYeL01i+NjfL6jAdp5iJFYFoCWQ3PLhOjUUrJqJBILICzfIhjIHIRheRwJyz92zeNnRHRMIhjBIE9maz71DW/l8JTWPTRN5Y3+WceresCOuT5+OH8/dNi03wBIpACgWkOP9peVX3+ylMffIpG3P+5C/mSgQQQAABBKorQEGsut6MVqZALudRgCnTLMzm2pqpYfYf175X37n4MmPMS+IaP3EjUGsB2ZfmuTGlB2sdB+MjEBeB/vb2U+Xnjty2g8d4AlKE2GsPmGvGO8/xaAps3759z4Hs2O8mYXWGrAj7VS6Xfe+W0ZF5m0eG/krEn4umOlEhgMDxAgdXinFPseNZxv1vrfU5457kBAIIIIAAAhEToCAWsQkhnGMFPK2nYBIdAccKsRMnY63ynKfef+IJjiCAQKkCOuc23nfVw7tKbU87BNIuYI1hddgETwKtzfuGdgwNTdCM0xEUGP3FL76pnfloBEMrLSRrd8sb6TdmnZ03tHXrn8tF3L+uNDlaIRApgcP3FMvf54/HBALWqRdKE967mcCJ0wgggAAC0RCgIBaNeSCK8QS045eq8WxqcFy+YTQrKQDVYOjIDnnxeQO/Y7RZGNkACQyBiAvIbcvHnt3tbo54mISHQKQEnOfxc6fIjMiq08dkRc5NRZpwKuIC++yBP7bObol4mMeEJ6va9kgR7K/35rLz5I3094yMjDwVp/iJFQEEThSQlWJvk3sb/uDEMxw5WiC/ar2/s/NsVBBAAAEEEIiDAAWxOMxSmmN0rBCL2vSf+fIOtrE8PCkD6wfqTMZfH7U5Ih4EYiVg3D9+47qfjsYqZoJFoMYC8gv8ghqHEOnhjVXrJUDuSRjpWSoeXH7rROfMO4u3iszZ/TmnbnW7TP/wyMgNEvvOyERGIAggUKnA/mf37Xu1dMJKzwkkZZtYtk2cwIjTCCCAAALREKAgFo15IIpxBKxhhdg4NDU7PMvM4D5ih/XnzVHr5JtoT80mg4ERiLmAVdbp/e6DMU+D8BGouoC86cQKsXHU86vDNo0OfXqc0xyOkcDQ6NDnZJXYVyMc8pizavCpZ595wdDI0NuHnhvaEeFYCQ0BBCYp8MQTT2yS70VXTfLy9FymzUvTkyyZIoAAAgjEWYCCWJxnLw2xW1aIRW2a93qaFWIyKWfdrBq1Z/4kavNDPAjESUB+Cfn3e9760/+NU8zEikAEBBqllsyHMcabiOzYjXJK6mI8kiCw98CBtytrs1HKRbZGlAVh7uO5/eqUzaNDb9m1a9fWKMVHLAggELzAlpGRu+Xr/l+D7zk5PWqlTpVseI8xOVNKJggggEBiBfhhldipTUZimhVikZvIRrWfFWIyK9Nal65T2syO3AQREAIxEtiTM++LUbiEikAkBObOndsr9+qQ9514HC8gVbDhLdu2/dPxx/nv+Ars2LHjEeXcnVHIQAphVlaJ/KMsC1u4eXj4d4d2DA1FIS5iQACB6gg8/eyz+QL97uqMFsNRjGnpbe89JYaREzICCCCAQMoEKIilbMLjlq5mhVjkpkxbk/oVYsvX9zZoZ2+I3OQQEAJxEnDqC/ev+wk3KY/TnBFrJAQatO6KRCARDEI79XcSVi6CoRFSBQJZz/yFlKL2VtBFRZceLIM5+5m9YweWyCqR3966devPK+qQixFAIJYC+dWg8s3gvbEMvlpBe+q0ag3FOAgggAACCExWgILYZOW4rjoCxk6pzkCMUqpAVunUrxBr6Wy9Sj6dP7dUM9ohgMCJArLtzJ+deJQjCCAwkYD2vM6J2qTxfL5okdPuE2nMPek5Dw8P/0IWRd5ekzyt+rzav+80KYStPbhajQcCCKRaYPO20VtlNfLPUo1QJHnP5U4vcppTCCCAAAIIREKAglgkpoEgCgmsvFXVyxbUdYXOcax2Atr3U71CLP+8tFb9Ye1mgJERSICArA675/ceejABmZACAlUXsM6xQqyAunxQ5RtSONlS4BSHEiDw+JNPfkCKns9VLxX3JWdzZ24aHbp0yxNP/Lh64zISAghEXCCrnM3fq5JHAQFnNAWxAi4cQgABBBCIlgAFsWjNB9EcIzCH1WERfEYY7VI9L7pu4I3yKWU+nR/B5yYhxUeA1WHxmSsijZ6AVmyZWGhW5B3Kfyh0nGPJENi9e/cvtTYbws/GfU2NHXjppuHhlZtHR78X/niMgAACcROQFaP/JPcS2xS3uKsRr3yfXlKNcRgDAQQQQACBSgQoiFWix7XhCtS3pbrwEi7u5Hu3OdU8+atjfuV6ZYxnrot5FoSPQI0F7OdYHVbjKWD4WAvIz6GOWCcQUvDPPvvsfSF1TbcREbBPqlsklANhhOOc/fa+/WPnSSHsvE3bt387jDHoEwEEEiOQzRr9l4nJJthEZvVNn576WywES0pvCCCAAAJBC1AQC1qU/oITsNw/LDjM4HoyyjYF11u8elrTsfQypc0L4hU10SIQIQHZ7yqXdX8SoYgIBYHYCVirZ8Qu6JADlvu5PLZr167RkIeh+xoLDD03tEO2MfynIMOQbbC/d8DmLt48MvLSbTu2fS3IvukLAQSSKyBb9P69rBJ7MrkZVpBZS8spFVzNpQgggAACCIQuQEEsdGIGmKyAfAK6cbLXcl2IAp5ObUFM9ou/IURZukYg8QLW6E/e+5aHH0l8oiSIQIgCWqnpIXYfy65NLveVWAZO0OULHDhwc/kXnXiFVe5HduzApVtGh84cHR1ldeGJRBxBAIHiAgeUVoEW6IsPF6OzxlAQi9F0ESoCCCCQRgEKYmmc9ZjkPKZdQ0xCTVWYzupUFipXD84/VzZMPCNVk02yCAQoIIvD9u97evf6ALukKwRSKaCNmpbKxIslnXP3FzvNueQIbH788YdkVdfkC6DOPjKWHVu7ZXj49C3bt38+OTJkggAC1RbIav2Jao8Zi/GcpiAWi4kiSAQQQCC9AhTE0jv3kc+8LmcoiEVzllK5Qkx7de+K5nQQFQLxEHDG3Xn/9VuG4xEtUSIQYQFrWSF23PQ8tX/P9yM8Y4QWsEBO278ut0tn1c/dWPZ1m0ZGloxs2/YZud6V2wftEUAAgaMFZNvEH8iWvT9B5TgB7SiI8aRAAAEEEIi0AAWxSE9PuoNzihVikXwGaJe6gtjywSULZGudiyM5HwSFQAwErLLPqD1P3hiDUAkRgagLtMhqZT/qQVYzPll9KrcP4/5h1TSv9VgjIyOyQsw9UEoc+eeHbHm9bvPo0MLN27fmtzeT9695IIAAAsEIuFz2X4PpKTm9yNbOPcnJhkwQQAABBJIoQEEsibOakJycT0EsmlNpUlcQa/Ls24wy8rs9DwQQmIyAUe7Ge6/d8cvJXMs1CCDwa4Genp5WPI4VMEY/hkn6BHL79Rsl63F/rkghbG/OqVt/+dSuBbIq7GPSNpc+JTJGAIGwBZznTX4L17CDq1H/TumOGg3NsAgggAACCJQkQEGsJCYa1ULAWQpitXCfaEwpC6WqIHbBYN9UY/XrJ3LhPAIIFBaQj+IP5fY8/JHCZzmKAALlCJgDB+rKaZ+Kts79XyryJMljBIZ2DA3Z53a/TO4n9r0jJ6QIJg/1PZdV75RCWM/QyNDbd+/ePW7RDFIEEECgUgHZNvG70sczlfaTpOvlU6RzJR8+TJqkSSUXBBBAIGECbLmSsAlNUjpG+dxDLIoTam1jFMMKKybfa/xdpUxLWP3TLwJJF8iNZf/wvmvV/qTnSX4IVENgdzabmVJXX42hYjOGs3ZbbIIl0EAFtuzcKasDd57Z2dm51Dg3yzyXeXDo6aGnAx2EzhBAAIHiAlnZiPVryqhLizdL1dlMf0vLrE27dz+RqqxJFgEEEEAgNgIUxGIzVekLNL9CTLNLXRQnPj0rxNYr4ylzTRQngZgQiIOAfFT/v+67+pFPxyFWYkQgDgKe57FC7LiJssZ/PA5zR4zhCWzduvUn4fVOzwgggEBxgazKfdNXHgWxo5hyU9vaFQWx4k8cziKAAAII1EyALRNrRs/AEwk4T7NCbCKkmpxPzz3EVs9duFIr3VcTZgZFIOYCVllnjP2DmKdB+AhESqDR2kykAopAMJ6yT0UgDEJAAAEEEEipgG/MD1Oa+rhpG99xH7FxdTiBAAIIIFBrAQpitZ4Bxh9XwKgcBbFxdWp6IjUrxLTJrKupNIMjEGMBuXHAx//jqkfy91XggQACAQno+npWiB1nOZbLPRcQL90ggAACCCBQtsDjTz75UNkXJfwC7VxbwlMkPQQQQACBGAtQEIvx5CU9dC1bJiY9x3jmZ1MxLys3Lu2UWwGviuccETUCNRd42u7Z+Uc1j4IAEEiYwAHn+N39uDn1nDuQsGkmHQQQQACBGAns3r37l06pX8Uo5NBDzSk1LfRBGAABBBBAAIFJCvCiepJwXBa+QE6bVBRewpcMeARjjJJ7awXca+S6cyr7JgnKi1xgBIRADASsy73n3mt3/DIGoRIiAggggAACCCCAAAIVCWjlNlfUQdIutnZq0lIiHwQQQACB5Agk/k3t5ExV+jIxWtenL+t4ZDygBvx4RDrJKNcqzzjvqklezWUIpFrAWvWjL3754TtTjUDyCCCAAAIIIIAAAqkRkBViO1KTbCmJeh4rxEpxog0CCCCAQE0EKIjVhJ1BSxHQyvL8LAWqBm0a5z6d6ILYqvMWrzRGd9aAliERiLWAVdaNmf3XqLuV7JTCAwEEEEAAAQQQQACB5AtYq59IfpZlZcgKsbK4aIwAAgggUE0BCg7V1GassgSc1jw/yxKrXuOT9u9LdEFM+eaN1dNkJASSI6Cd3viVqx77dnIyIhMEEEAAAQQQQAABBIoLeC73bPEW6Torb+SwQixdU062CCCAQKwEKDjEarr+P3t3AiDVVSZ6/Jxzq6qbhpCwhEAD3Q1oTAh08tRoHKOiMQuLGnUct8yob5IQkxg1o+NzmbHfG/XNOG6TiZoQns83jqNxm4kJkI2ExMTsZgGaJQLdDd0s6bA29FJ1z3lfATEEuqG7uu6tu/xLCVD33nO+73duN1311TknXcE6RUEsqiNuayYltiD2hhsnjzPaLoiqPXEhEFUBmR22bX/7vi9ENT7iQgABBBBAAAEEEEAgCAFnvANBtBvXNrXVI+MaO3EjgAACCCRfgIJY8sc4thk6S0EsqoPn8smdITaheuyHlTK5qNoTFwJRFdBKX7eiqWV3VOMjLgQQQAABBBBAAAEEghDQ2nlBtBvXNp222bjGTtwIIIAAAskXoCCW/DGObYZas4dYVAev2+QS+wO/c+rjUXUnLgSiKiCzw5YsuXzlL6MaH3EhgAACCCCAAAIIIBCUgPVtdVBtx7Fd5wwFsTgOHDEjgAACKRFI7LJnKRm/RKdpWDIxsuOru7xEfu+46IdnztJavy6y8ASGQBQFrO3qc/bqKIZGTAgggAACCCCAAAIIBC1gjK4Kuo84tW+MoyAWpwEjVgQQQCBlAswQS9mAxyldp1kyMarjVT06n8iCWDabuSyq5sSFQFQFrLWfv3dhc1tU4yMuBBBAAAEEEEAAAQSCFLBKMUPsSGBHQSzI+422EUAAAQSGJ0BBbHh+XB2ggLMsmRgg77CazvmJLIhpp/QHhwXDxQikTsAtX3pV882pS5uEEUAAAQQQQAABBBB4WYCC2BF3g2wHzwwxvjoQQAABBCIrkMhZHpHVJrAhCWiWTBySV5gnO78mcd87Lrlx9nnyCYGGMB3pC4F4C9h9B3bv/2vJwcU7D6JHAAEEEEAAAQQQQKB0Aa3UiNKvTt6VxtnEvV+QvFEiIwQQQCC9AswQS+/YRz5zlkyM7hC5TCFxP+DqnPtwdMWJDIHoCRSU/vx9n9vUGr3IiAgBBBBAAAEEEEAAgfAEZB/qmvB6i0FPAhKDKAkRAQQQQCClAhTEUjrwcUjbaJZMjOo4ySe+kvW94wPK87T6i6h6ExcCUROwzt5z5+UrWSoxagNDPAgggAACCCCAAALhCzg3OvxO6REBBBBAAAEEShFI1pvapQhwTWQFrOVTRVEdHFkTXPYNTs7jwrc1zpEVOk9LTkZkgkBwAlIM25nfuefjwfVAywgggAACCCCAAAIIxEjAKV5Lxmi4CBUBBBBAIN0CFMTSPf5kj0BJAt35ZBXEclXq/SVBcBECaRRwhSvv+cLmjjSmTs4IIIAAAggggAACCBwlYJThw5XcFQgggAACCMRFgIJYXEYqhXHKotP5FKYdi5RrkjVDTDtt3xsLeIJEoNICzv7fpVeu/XWlw6B/BBBAAAEEEEAAAQSiINAwsaFO4shGIRZiQAABBBBAAIETC1AQO7ERZ1RKwOhCpbqm3+ML+AmaIXbh4tf8mXykb+LxM+YoAghYazd09dnrkEAAAQQQQAABBBBAAIFDAjZnX43FKwWcdT4mCCCAAAIIRFWAglhUR4a4lHOWglhE74NMi9NwuQAAIABJREFUdVdi9hCrUpn3RZSZsBCIjIC1qlBw9qMrrmnuikxQBIIAAggggAACCCCAQIUFPK3PrnAIkeveKXMgckEREAIIIIAAAocFKIhxK0RXQDNDLKqD4+zIxHziyyqPglhUbzTiioyAVvaLdy9sfiwyAREIAggggAACCCCAAAIREJCtHl4bgTAiFYIxjoJYpEaEYBBAAAEEjhSgIMb9EFkB9hCL7NAovzefiBliC246/Wz5JtgQXWkiQ6DyAlbZJUuuXPXtykdCBAgggAACCCCAAAIIREtAW/e2aEVU+WicUhTEKj8MRIAAAgggMIBAZoDneRqBygs4mSEmVTEe0RMo1JhEFMScrl7ALRa9+4uIoiNgrdvS2bfrYxKRvK7lgQACCCCAAAIIIIAAAi8J1NXVnaW0qUXklQLaapZZ56ZAAAEEEIisADPEIjs0BGbZQyyyN0HWZBJRENPaLYgsMoEhUGGB4r5hedP3ocevbX+xwqHQPQIIIIAAAggggAACkRMwylwYuaAiEJBvXHsEwiAEBBBAAAEE+hWgINYvC09GQcAzLh+FOIjhWIHCzl2xL4jNvWHiqTLp5Q3HZsczCCBQFLBafemey9c9jAYCCCCAAAIIIIAAAggcK2C0u+jYZ3nGFPRmFBBAAAEEEIiqAAWxqI4McSnfNwUYoimQH3VS7AtirmbCPGUM3wOjeYsRVYUFnHW/uvOK5/65wmHQPQIIIIAAAggggAACkRSYPHnyOK30BZEMrtJBZVxbpUOgfwQQQAABBAYS4M3ggWR4vuICRvkUxCo+Cv0HkDO9sS+IeZblEvsfXZ5Nu4BVtnl/3v9E2h3IHwEEEEAAAQQQQACBgQRyWn9EjuUGOp7m5/t6e5khluYbgNwRQACBiAtkIh4f4aVYQKsMSyZGdPyzribeY/MB5Wmj3xlRXsJCoGICUgzbq3oOvHfFtRvZCLtio0DHCCCAAAIIIIAAAlEXkMVGPh71GCsRn7XW9RQKayrRN30igAACCCAwGAFmiA1GiXMqIlBwzBCrCPwgOt2/Y1/3IE6L7CmXvG12ce+wUyIbIIEhUAEBKYY539m/WnrtxvUV6J4uEUAAAQQQQAABBBCIhcC0CRPOVtq8NhbBhhyk0WpTZ2fnvpC7pTsEEEAAAQQGLUBBbNBUnBi2gGd0T9h90t/gBFY0tfQO7sxonuVVqwujGRlRIVA5AdkDoemuK5pvq1wE9IwAAggggAACCCCAQAwEqqs/H4MoKxKi0/rZinRMpwgggAACCAxSgILYIKE4rRIC5kAleqXP4wvIEgjFYpg7/lnRPuqcvijaERIdAiELOHXrkstX/q+Qe6U7BBBAAAEEEEAAAQRiJTBlypRXy6vhD8Uq6BCDtb5PQSxEb7pCAAEEEBi6AAWxoZtxRUgCvlH7Q+qKboYgIGulx3q5xLk3jB0tL2DeOISUORWBZAtY+8SL+577RLKTJDsEEEAAAQQQQAABBIYvkNP6S/Ka2Bt+S8lsQWAeT2ZmZIUAAgggkBQBCmJJGckE5pFxFMSiOKyyz1Csl7K0Iya+3RiViaItMSEQtoCzqr13155LH7lexbrQHbYb/SGAAAIIIIAAAgikT6A4O0yWGb8sfZkPLmNZTcbf09Pz0ODO5iwEEEAAAQQqI0BBrDLu9DoIgT5XYIbYIJzCP8XEuiBmtH57+Gb0iEAEBaw6oLR7zz1f2NwRwegICQEEEEAAAQQQQACBSAlkdeZGZQwfrhxwVMwfOjs79w14mAMIIIAAAghEQICCWAQGgRAGEOhzFMQGoKnk08bGe4aYUXpOJf3oG4GICPjWtx9ccsXKpyISD2EggAACCCCAAAIIIBBZgam1tR+UlUbYi/o4I2Sc/8BxDnMIAQQQQACBSAjwyZZIDANB9CeQrcpQEOsPptLPxXgPsYsXnzXWKdWoK21I/whUWMAWCtcu/WTzHRUOg+4RQAABBBBAAAEEEIiDwOhMJvPdOARayRh931teyf7pGwEEEEAAgcEIMENsMEqcUxmBPnegMh3T6/EFYjxDzLm3GGWohx1/gDmadAHn/+PSq5pvSnqa5IcAAggggAACCCCAQDkEZkxt+FejzaRytJXYNqztatnacn9i8yMxBBBAAIHECFAQS8xQJi+R3oxlhlgEh9Wq+O4hlrHenAiSEhIC4Qk49x93XLH6S+F1SE8IIIAAAggggAACCMRXYPrUqf9dGfVX8c0gnMitVndKT73h9EYvCCCAAAIIlC5AQax0O64MWGBvfg8FsYCNS2leO9tdynVRuEZ7+m1RiIMYEKiEgHX2no3t/iekb1k5lAcCCCCAAAIIIIAAAggcT2DG1KmznNI3Hu8cjh0S8K29DQsEEEAAAQTiIMAeYnEYpZTGWNOZ3a+mpDT5CKftYjpDbM73Z44S1sYI0xIaAsEJWPdoYf2q9zZ/S/UF1wktI4AAAggggAACCCCQDIHJkyePs8b7tXyKfEQyMgowC2sLypglAfZA0wgggAACCJRNgBliZaOkoXILrGhq6VHW2nK3S3vDE3BOdQ2vhcpcnXWZN0rPXmV6p1cEKicg08FWuYKad/e3FLNuKzcM9IwAAggggAACCCAQE4Ha2tqa6kzmDnnD7PSYhFzRMGVbhWVtbW27KhoEnSOAAAIIIDBIAWaIDRKK0yokYA6+gXtShXqn234F7J5+n474k5ms+zOldMSjJDwEyixg1aa9Ln/R765ewwvUMtPSHAIIIIAAAggggEAiBbLV2eyv5LXjeYnMLoCkfJv/twCapUkEEEAAAQQCEWCGWCCsNFouAWt1LIsv5co/iu14Jp5joo2WghgPBFIl0OE7e+HvFq7ZmqqsSRYBBBBAAAEEEEAAgdIEsjOmNvxEKz23tMvTd5XsU7yrrb399vRlTsYIIIAAAnEVoCAW15FLT9zMaojYWBec3huxkAYTjtTDFJ/wG4wU5yRDwNnthS71jmULV21IRkJkgQACCCCAAAIIIIBAoAIjZ9TX/1YZ9cFAe0lY49q5WyWl3oSlRToIIIAAAgkWYMnEBA9uElIzyu1kmbtojaSnXOxm7b39xpkzRfGUaEkSDQLBCMjGiy9099oL7v/MqnXB9ECrCCCAAAIIIIAAAggkR2Dy5MnjcpnsEsmouO80jyEIaK0XD+F0TkUAAQQQQKDiAswQq/gQEMBxBYxihthxgcI/mPfjVxCrqs68PnwpekSgEgL2xd6+3nfef23z6kr0Tp8IIIAAAggggAACCMRJYMqUKY1VJvuIvDlGMWzIA+ce2dDW9tSQL+MCBBBAAAEEKihAQayC+HR9YgGnlMwQ4xElAZ2JX0Es47tzo2RILAgEIeCs2+Xn7YXLr173XBDt0yYCCCCAAAIIIIAAAkkSqK+vvzyrzaPaqFcnKa+wcvGt/tew+qIfBBBAAAEEyiXAkonlkqSdYASc2aV0ME3TamkCusfEbslEZ/S53EaljTdXxUTAqs6+vH/hPdc0PxOTiAkTAQQQQAABBBBAAIGKCEwfM+Zkd9JJNxqlL1Oy2TSPoQtYZ7e2bG771dCv5AoEEEAAAQQqK0BBrLL+9H4CAdkLZ6d3gnM4HK6AzthYFcRed7PKOmfP1vKxPx4IJFLA2e37+2TPMJZJTOTwkhQCCCCAAAIIIIBA+QSm1075iMtmviOvDk8rX6vpa8lo/QPJOp++zMkYAQQQQCDuAhTE4j6CSY/f2l3Ko5ARpWH2DuRjVRA7WTXONkZVRcmQWBAol4Czqt0/YC64/zOr1pWrTdpBAAEEEEAAAQQQCF6gx3q8HxM88596aKhtOMNk7I3yQckLmBM2bPi9/h5947BboQEEEEDgCAHn8QYwN0Q4AvwAFo4zvZQo4DtmiJVIF9hlXVWZWBXEaqz/OuUxzzCwG4KGKyYgM2hbdcG9487PrNxYsSDoGAEEEEAAAQQQQKAkgVxV7uSSLuSiIQkUC2GyysmXlbMflmIYLwyHpNf/yc4v/KBl95bd/R/lWQQQQKA0AW31SaVdyVUIDE2AgtjQvDg7ZAFPq10hd0l3xxOw1q64pnn/8U6J2jGbVecwxzBqo0I8wxWQNfvXOGUuWnr1yi3DbYvrEUAAAQQQQAABBMIXcJ47S3pdEX7P6ehx6qRJr89lqj5nlf2A0bJmCNPCyjLw8pZAt9m9+7tlaYxGEEAAgSMFjHsVIAiEIUBBLAxl+ihZQPfld6oRrHZXMmC5LzRmrzTpyt1soO0572xe/AQqTOMhCzinHu/s3TXv8WvbXwy5a7pDAAEEEEAAAQQQKJOAvBnzfmnq+2VqjmZEYMaoURPcyWMuU0Z/Qmpgs4ooRv7Ho3wC2plFG7q6dpSvRVpCAAEEDgk45y6RP30NDwSCFqAgFrQw7Q9LwOWyzBAblmB5L5ZPg8XtDXhttG0svgzigUAyBOzd+XWr3vf4t1SsZmomw54sEEAAAQQQQACBcgrot0+rq/uLTW1tvyhnqylrS9eeWnvOiCpzoTPmIvno5tukEMb7XEHdBNZ26d07vxFU87SLAALpFpBlbd88vb5+/sbW1iXpliD7oAX4QSFoYdoflkD31q4XR00ZPaw2uLh8ArLQRKw+CTb/B7OnKcUaxOW7A2ipogJO3bqx3f5V87dUX0XjoHMEEEAAAQQQQGCIAlZ5ms2bjkUzTv20fvLU2Zk9u/6VWTfH+hz1TG7a+PHTdFXVq31lzvYy5rVa6bfIOacWzzu4IiLLIp4QcTgnOG2+vZHZYcMh5FoEEDiBgLbu5zMmN3xqQ3vLT+RU/wSncxiBkgQoiJXExkVhCaxoatm9YPEsefPX5MLqk34GFrBWx6ogpow7h1dFA48nR+IjYH333aVbV35ONSkbn6iJFAEEEEAAAQQQOCRglC/LrlMSO+Z+kNlMGaO+YseM/fKMMWM3WGW2ytoWB445L4VPOG0zWuuRyrnRMvNrgvwQPM4Yc7DkxRtZ4d8Q8gW8Y2Nby7fC75keEUAgVQLGjJJFnv7vtPr6/y3f/x/W1mzRnmOFnITdBM7pvLaFnb7KPNeypeUhSa8QZor8HBGmNn2VJmDVNvlmWFfaxVxVTgFZfvCFcrYXdFu+Z2dnWC4xaGbaD1JA1il11n5m6VXN/xpkN7SNAAIIIIAAAgggUDmBw4WeV0kx7FWViyJaPeuXXsdpqYHJ/1kEv7Lj4/zC1ySCrspGQe8IIJAWAaP0RKX1+w99lobpv0kb9+I/7crLHBzeGVPr2gvOXtm6ZcvSsPLkZ4qwpOmnZAFrzNaSL+bCsgo462I1Q0wWZjmrrAA0hkCYAlYdKCjz3iUUw8JUpy8EEEAAAQQQQAABBBB4hYBbs2nLlptAQQABBBBAoOwCxkzOeJn/mjJx4hvK3vYADVIQGwCGpyMkYN22CEWT6lC0zsSqIKatnpnqASP5+Ao4u9329r7tziuf+218kyByBBBAAAEEEEAAAQQQiLtAvlD4lOSQj3sexI8AAgggEFmBbC6X+/uwoqMgFpY0/ZQsINNkmSFWsl55L7TGj82SiXOaZGl5Y19dXgFaQyB4Aafssz3WvmHpp9Y9GXxv9IAAAggggAACCCCAAAII9C8g67f/qq29fXn/R3kWAQQQQACB8gg4p94hLYWyvRcFsfKMGa0EKFDQBWaIBeg7lKZlM8v4zBCbNFvW3ze5oeTHuQhEQODX+bWr3nzvwua2CMRCCAgggAACCCCAAAIIIJBSAdnO+MCerq7rU5o+aSOAAAIIhCgg+6mOGDt27KQwugyl6hZGIvSRXAFPecwQi8jw9hT6YlMQG+mcLJfIxpsRuXUI4wQCVllnfPO/7lj43P+UU90JTucwAggggAACCCCAAAIIIBCsgNFf3blz5+ZgO6F1BBBAAAEEDgnIsoknhWFBQSwMZfoYloDv9LYMdY1hGZbr4j7PxGbJRKXNmeXKm3YQCFTAqgNGm49JMexXgfZD4wgggAACCCCAAAIIIIDAIASsVU9s2tz63UGcyikIIIAAAgiURWBkNhvKaoYUxMoyXDQSpEDGFJdM5FYN0ngwbRdnsHhb18SnIGac7B9GJXUwY8s5lROQqWDPO9f3/qVXrl1ZuSjoGQEEEEAAAQQQQAABBBD4k0Be93X/tfzNxwQBBBBAAIGkCYRSdUsaGvmEK7B3j2HJxHDJ++/NqV0rmlSh/4PRe9a5YkGMBwLRFbDW3dbrd527dCHFsOiOEpEhgAACCCCAAAIIIJAuAefUNzZu384H9tI17GSLAAIIpEaAaTepGer4Jtq5z24ffTK120qPoHEqNvuHHbQyhoJYpW8a+h9IwC/47it3Llz5T3IC+4UNpMTzCCCAAAIIIIAAAgggEK6As3/Y2Nb29XA7pTcEEEAAAQTCE6DKEJ41PZUo0NzU3KeUfbHEy7msXAJGt5erqaDbmdPUcIp8czs16H5oH4EhC1i1o8/5F0kx7B/lWophQwbkAgQQQAABBBBAAAEEEAhCwFp7wC+Yj0rb+SDap00EEEAAAQSiIEBBLAqjQAwnFHCKZRNPiBTwCVapzQF3Ubbmvdocs8PKpklD5RNwy7vyhbPvvmL1feVrk5YQQAABBBBAAAEEEEAAgeELOGv+pqWjZe3wW6IFBBBAAAEEoivAkonRHRsiO0JAW9WijJoFSuUEpHq+pXK9D63nrK5+1dCu4GwEghOwVhWcVl9d1i6zwpqU1JZ5IIAAAggggAACCCCAAALREZDXLLe3tLfcFJ2IiAQBBBBAAIFgBCiIBeNKq+UWcK5VKV3uVmlvCAKysW5sZohldKFBKb69DWF4OTUoAWvb5DvXh5deser3QXVBuwgggAACCCCAAAIIIIBAqQKyjntbn81/otTruQ4BBBBAAIE4CbBkYpxGK8WxOu1aUpx+JFLPOz82BTGnvGmRQCOIVAs4637lCvqcJVdSDEv1jUDyCCCAAAIIIIAAAghEV6BPWf/P29vb2bc9umNEZAgggAACZRRgCkUZMWkqOAGtTUtwrdPyoAR8F5+CmHMNWjOjcFDjykllF5DlRvb4yn7qritX/aTsjdMgAggggAACCCCAAAIIIFAmAVdQn9nYvvmJMjVHMwgggAACCERegIJY5IeIAIsC3a6ndYSuBqOCAn3bu2Ozh5gUUBsqSEXXKRaQDcLu73OFj9+7sLktxQykjgACCCCAAAIIIIAAAhEXsM7++6b2th9GPEzCQwABBBBAoKwCFMTKykljQQnkeva2qBoKYkH5nrBda7tWNLXsPuF50ThB5obZeqVYETYaw5GOKKyyPVa5L915+ervScayDD8PBBBAAAEEEEAAAQQQQCCaAvJBvsdcm7kimtERFQIIIIAAAsEJ8I5xcLa0XEaBZddte0FZdaCMTdLUEASsVrFZLvHCf5o6SYphuSGkx6kIDFPAPnLA1/9NimHflYYohg1Tk8sRQAABBBBAAAEEEEAgQAGrNrtOdWmLaukJsBeaRgABBBBAIJICzBCL5LAQVH8CVttWo8yZ/R3juWAFTIwKYlXjTpoSrAatI3BYQIr0vlZfXta+6gbVJCV7HggggAACCCCAAAIIIIBAhAWstfudNe9u2d+yLcJhEhoCCCCAAAKBCVAQC4yWhsstYLRukTYpiJUbdhDtyZSX2Owf5gpmiuY72yBGlVOGJWDVfa7grlh29cqNw2qHixFAAAEEEEAAAQQQQACBEASkGObLB/o+3Nbe8kwI3dEFAggggAACkRTgbeNIDgtB9SfgnG6RzaF4VEBA+yY2SyYqZSezf1gFbpKUdOms26V9+4U7Prl6saTM8ogpGXfSRAABBBBAAAEEEEAg7gJauSvb2jbfHvc8iB8BBBBAAIHhCFAQG44e14Yr4LtWlaEiFi76od58XWirRL+l9Gm1N8Ur5UKuQeDEAj+xPS/8zcE9DXkggAACCCCAAAIIIIAAAjERcE59cePmzT+KSbiEiQACCCCAQGACFMQCo6XhcgvklWvJKQpi5XYdTHueb2KzLJzRTmaIcZ8MZlw5Z5AC1q5VvvrkHZ9ctWKQV3AaAggggAACCCCAAAIIIBAJAWf970kx7B8jEQxBIIAAAgggUGEBU+H+6R6BQQv4pi82RZlBJxWXE7v7no9LqFIKmxKXWIkz4gJWHXC++srGDns2xbCIjxXhIYAAAggggAACCCCAwDECUgy7SYph1x9zgCcQQAABBBBIqQAzxFI68HFMO9fTuU7VUOsIfeys6r7j+vUdofdbaodGTyz1Uq5D4CUB2Rzs5/v22b998G9WxWj/PMYPAQQQQCCOArW1tTUjMpkPSOxvts5M1NrWxDEPYi5dQGudl589dlnnnlV95taWbS0tpbfGlQgggMBhAacWSTHsavkbex9zUyCAAAIIIHBYgIIYt0JsBJZdt3PvvEW1W40xk2ITdAICdUZtkDRi9AO0Pi0B7KRQOYGne/zCdfcubH6ociHQMwIIIIBAWgSm19Wd77T5leR78OcXc3DVZxbxSMv4H5lnceg9rT9ss/br9ZOn/n1r++ZvpNGBnBFAoEwCzi7e0NZ2lbQWo9fyZcqdZhBAAAEEEDiOAK+2joPDoegJaK3WRS+qZEeklf1jXDKc2TQzJ7GeEpd4iTNCAlbtsEpdcceW515PMSxC40IoCCCAQIIFGkY2THRO3SYvyPgwT4LHeaipyYf/vEzG+/qMqQ0fGuq1nI8AAggUBQoF/ytSDLtS/kgxjFsCAQQQQACBowSYIcYtESsBZ9U67ak5sQo67sH6Njb7h40/yfCGUtzvt7Djl33ClHHf2fXHrd98+Jud+8Lunv4QQAABBNIrYMapq7Q2Y9MrQObHE5B3sb8kx39+vHM4hgACCBwtYJX7jsww/frRz/N3BBBAAAEEEDgkQEGMOyFWAs6YtbEKOAHBOuPFZobYqFxeCmJVCVAnhRAEfKfcj/a6wld/d/marSH0RxcIIIAAAgi8QkBmh71dVj/ggUC/Atqo2bK/3PiOjo7Ofk/gSQQQQOAoAWvtgX3dB5qAQQABBBBAAIGBBSiIDWzDkQgK+K6wztPctmEOTT5GSybqHDPEwrw34tqXte422br+i0uuWbUmrjkQNwIIIIBAAgSMq1OKilgCRjKwFLLZrNwjioJYYMI0jECyBORDFo92drLqRbJGlWwQQAABBMotQGWh3KK0F6hAtuCtU8VdoniEJiDFg9jMEPO97Hi+qYV2a8SuI+vsPQVr/+7uhc2PxS54AkYAAQQQSJyAsW6UMhTEEjewZUzI9vWNLGNzNIUAAgkX0FrvTXiKpIcAAggggMCwBXjveNiENBCmwJIdK1vm1c7qlc2mWRcvBHirbM+9C5s3h9BVmbrwZR8Or0xt0UxSBJyzK3qlECb38kNJyYk8EEAAAQQQQCD5AplMhopp8oeZDBEom4BV6oyyNUZDCCCAAAIIJFTAJDQv0kqqQJOy2pjnk5peBPPaKDHJnt7xeGinxsUjUqIMQ8A69XCf8y9YcsWqt1MMC0OcPhBAAAEEEEAAAQQQQKBSAkbpM6bX1Z1fqf7pFwEEEEAAgTgIMEMsDqNEjK8QkI9JrpMnZsESvIBWOjbLJRY1POeNYyuO4O+LqPdQXBrRFNQ3ln5y1Yqox0p8CCCAAAIIIIAAAggggEC5BORDoj8eNWrUm7q6ul4oV5u0gwACCCCAQJIEKIglaTRTkovzC+u0x60bxnBbpdeH0U+5+pAlHscaxcTXcnnGqR0Zeycjf1u37fvG8ivXPxGn2IkVAQQQQAABBBBAAAEEECiLgDEzThsz9g+njRkzd8PmzavK0iaNIIAAAgggkCABqgoJGsy0pFLQZm02LclWOE9ZKzFWP0Abo1kyscL3TNjdW6vyxqifu4L7xzuuWt0cdv/0hwACCCCAAAIIIIAAAghESsCYKfJafvmkSZPmbN26dU2kYiMYBBBAAAEEKixAQazCA0D3Qxcwvl2l5B1wHsELeM7FqiCmrBrDBLHg74so9OCs26W1vdl05W+84/r17VGIiRgQQAABBBBAAAEEEEAAgSgIyFYTE6pzufumT578to3t7bFa+SUKfsSAAAIIIJBcAQpiyR3b5GaWb262XmNBamLcv0GOsrV2m9sZr0+TaTdasYlYkHdF5dt29o9Wue8V1q/+8d3fUvsrHxARIIAAAggggAACCCCAAALREzBKT1TGu3/ChAlv3bFjx4boRUhECCCAAAIIhC9AQSF8c3ocpsCy61TvvEVOCjV69jCb4vLjCWi18akrOw4c75TIHXNmNPWwyI3KsAMq7g+mnLrXV/b7d7U3366aZC4gDwQQQAABBBBAAAEEEEAAgeMLGFN7UlX1XQdGjXpTV1fXC8c/maMIIIAAAggkX4CCWPLHOJkZavcsBbGAh1bHa/+wooY1drRhzcSAb4zwmi8ui+ic+rFxB354x1Ubnw+vZ3pCAAEEEEAAAQQQQAABBBIiYMyMU8eMXzJ69Og5HR0x+9BrQoaANBBAAAEEoiNAQSw6Y0EkQxDQTj0rM4EuG8IlnDpkAR2r/cNmNs3MSTGseshpckHkBJxzT1nn/2B3V/PPHrledUcuQAJCAAEEEEAAAQQQQAABBGIkIFtOnFutM7+QkN8jv/wYhU6oCCCAAAIIlFWAglhZOWksLAFn/We1/ETHIziBvoKLVUFswqTdsn/Y+OBAaDlQAevsTpkN9tNC3v7onmuanwm0MxpHAAEEEEAAAQQQQAABBFImoLWZP62+/oZNra3XpCx10kUAAQQQQOBPAhTEuBliKVBwfc/mVDaWsccl6HzBxqogljMnnRQXW+I8LGCtlRUu7+0rqB95fav+q7g/IDYIIIAAAggggAACCCCAAALBCBilr66vr3+6tbV1cTA90CoCCCCAAALRFqAgFu3xIboBBO7+5IYd8xbP2iZL5E0c4BSeHoaAlCnye7PN64fRRPiXFsxIaqThs5fUo1WrlSn8tEdmhN17eXMQCoq2AAAgAElEQVRbSW1wEQIIIIAAAggggAACCCCAwJAFMkp/f/Lkyavb29sfGfLFXIAAAggggEDMBSiIxXwA0xy+tuZZmV1CQSyAm0Abte6py1U+gKYDazKX1TWBNU7Dwxaw1m0xzv+ZcoWf3nHV+meH3SANIIAAAggggAACCCCAAAIIlCKQy3ner8ePH//6zs7OjlIa4BoEEEAAAQTiKkBBLK4jR9zKOvesp/TFUAQiEKvlEg8K5E0NM8QCuRdKb9SqHbI32H86rX+27MqVD0pDrvTGuBIBBBBAAAEEEEAAAQQQQKAcAkabSaNH1NzaqdQcac8vR5u0gQACCCCAQBwEKIjFYZSIsV8BZ/Qz/R7gyWELWKdWDruRsBvQzBALm3yA/jqc7/9GW/3rO7avelA1KTvAeTyNAAIIIIAAAggggAACCCBQIQFtzPn1k6c2tbZv/rsKhUC3CCCAAAIIhC5AQSx0cjosl4D2/WdVxitXc7RzhIDnu/gVGz0KYpW6ia21G4xxtzkpgi25clVxHXpmglVqMOgXAQQQQAABBBBAAAEEEBikgDH6S5MnTr6vfVv7/YO8hNMQQAABBBCItQAFsVgPX7qDX7Z89boFFzZ2yz5iI9ItUf7s+9yBJ8vfatAt5mUPsWzQndD+IQHfKvewdfqOHutuX7Fw1VpgEEAAAQQQQAABBBBAAAEE4iVg5FGdVf8+atSoc7q6ul6IV/REiwACCCCAwNAFKIgN3YwroiLwS1nn+mL1lIRzflRCSkYcdvPdn9ywI265WJ3NmbgFHaN4Zd3DF4xz91htl+g+s2zp1St3xSh8QkUAAQQQQAABBBBAAAEEEOhPwJja08aNWyQFsff2d5jnEEAAAQQQSJIABbEkjWYKc5GdXx+VRRMpiJVx7K0zT5SxudCa0lblZLYgjzIJyDKIvbJ8xkNK2bv9vLtn2Sebi8toshRimXxpBgEEEEAAAQQQQAABBBCIjoC+dHrtlI9s7NjyH9GJiUgQQAABBBAovwAFsfKb0mKIAp5TjykdYocp6MroQgyXS5SyjVY5dpQr/Qa1VhW0Vn/QtvBAwdrle7rXPvjI9aq79Ba5EgEEEEAAAQQQQAABBBBAIC4CzjP/2jCy4b6W/S3b4hIzcSKAAAIIIDBUAQpiQxXj/EgJHJ4hFqmY4h6MLbhYFsQ87eeUoiQ2+PvP9illHnd+4UGrzAPdBfv7Fdc0dw3+es5EAAEEEEAAAQQQQAABBBBIioBsJzbWjlWL1H717qTkRB4IIIAAAggcLUBB7GgR/h4rgWVXPLdlweLGDgm6NlaBRzhYbTOxLIgVCiqX4TvagHeWLIG4VSZTPqqNezTvvEf27lv1JDPABuTiAAIIIIAAAggggAACCCCQOgFj1LtmTG340IbNLT9PXfIkjAACCCCQCgHePk7FMCc7SWftY9oYNn8twzBL0WTD0qtX7SpDU6E34XmyhxiPQwLWdiljnrG+e8K3/qO+UY/eu7C5DR4EEEAAAQQQQAABBBBAAAEEjidgtf2OHF8qv/Ye7zyOIYAAAgggEEcBCmJxHDVifoVAccaLPEFBrAz3hdEmlrPDiqn7vpdJ4wwx6+xO7fQftPOfLmj3B9PX+4el1258XkhcGW4JmkAAAQQQQAABBBBAAAEEEEiRgLwvMGlGXd3XNrS1XZeitEkVAQQQQKDCAgcKBdkdKfgHBbHgjekhYAHfmsc8E3AnKWnet4Un4pqql3FyF8iigAl9WKX2G2ubrdGrne+vsp5ebZy3atkVq7YkNGXSQgABBBBAAAEEEEAAAQQQqICAderq+vr6H7e2tv6hAt3TJQIIIIBACgXy+fyeMNKmIBaGMn0EKuCvX/mkd0ZjsYLsBdpRGhrXXmxniGlfFgb0Yv4tTdastMZs1tY9r7R+3tf+855v1+eNbb77inUtcgsy6ysNX4fkiAACCCCAAAIIIIAAAghUUMAYU3x/5Qfy603yi9ehFRwLukYAAQTSIGCV293Z2bk1jFxj/u5xGET0EXWBu7+l9s9fbFdpZc6OeqyRjk9qMXv/uC22n/5yJmPiMD+suMShLEHRqpRt9ZVrlVcWrdY3m/J5//lq2/zHZdep3kjfJwSHAAIIIIAAAggggAACCCCQeAFZguWNDVMbPtSyueVniU+WBBFAAAEEKirgrL5NAgjlAxgUxCo61HReLgHnq0e1pyiIDQPUarXu4W927htGExW91FlntFfJkpjts8psNdZtdUp+GbdV+16H1YWtMn1xa75PtTmtWldc09xVUSg6RwABBBBAAAEEEEAAAQQQQGAQAtqo/y2n/UZ+8cHNQXhxCgIIIIDA0AVkjsZOXch/dehXlnYFBbHS3LgqagJOPyYhLYxaWLGKx5nfxyreo4J1npUPsA1v1Uz5BtxrlNknxay98smEvUp+lw8n7FPyZ6P0HlnC8EUpar0oxzqzVr+oMn6nrNT4Yl4d6Lx34cZQ1rmN8xgROwIIIIAAAggggAACCCCAQHwE5EV2/YwpUz69YcuWb8YnaiJFAAEEEIiDgLwP67TRd+ad/fSWrVtlNa1wHhTEwnGml6AFCvsfVplRQfeS7PatezjOCeruwr/bEerxQkH72Yy2quD8gieLEWprvULWL7i8r71sj+/8npwr9BR6qnsKIwrdxvb2ePldPTuqdnY/tVDl42xA7AgggAACCCCAAAIIRFHAKk8W9ODRr4C1XUqrn/vFDygW1Fad8Q/0e14Kn3TOM/KhxCrj3EgpzIyTt80mZDzdIPstz1BKzxKSU1PIEnrKzst8qba29kcdHR2doXdOhwggkFaBB3y/cJ9nTKvTmpWWEnYXuHw+rzOZnW6fWbVpd8vusNOjIBa2OP0FIrD02o3r5y2etU1m90wMpIMUNGp7dKxniC391LonZZiKv3gggAACCCCAAAIIIIBAhASM8mVPCEpiRw+Jc/ZhvWvn+zZ0de04+hh/P7FAfX39JOX7b/K0fovW+iKlzcwTX8UZQxWQjQlOzmYyfyvXFX/xQAABBAITsMpt0859YGNb20OBdULDqReQD9nwQCAZAlrp3yUjkwpkYVXnnZ95bl0FeqZLBBBAAAEEEEAAAQQQQCB1AsX9MnoKhUsphpU+9K2trVtbt2z5zcbNmz+7oa3tLNvX2+Cc+qIse7+m9Fa5sj8B49Q1M0aNmtDfMZ5DAAEEyiFQXD6vr1B4H8WwcmjSxvEEKIgdT4djsRKQTy09GKuAIxSs7JkV69lhEaIkFAQQQAABBBBAAAEEEEDghAJauX9jCboTMg3phE2y/8jGtpZ/3NDaOtNZ/w1OuR/KG6zdQ2qEk/sVMMbUqHHjmCHWrw5PIoBAeQTMve3t7Y+Upy1aQWBgAQpiA9twJGYC3X19FMRKHDOtbKz3DysxbS5DAAEEEEAAAQQQQAABBCojYAzLQQUoL7PGntjY2nq12bWzOGvsn6SrfQF2l4qmZfLG1RNGjjwtFcmSJAIIhC5gXOHe0Dulw1QKUBBL5bAnM+nlV69b6azblczsgs3Kdx7FxGCJaR0BBBBAAAEEEEAAAQQQ+JOA7OHcDkfwAsUlKWXW2P/IO1t/uDCWD77XZPYgs8RGnDRm7OeSmR1ZIYBApQWsMS2VjoH+0yFAQSwd45yWLOXnW5ZNHOpgW6X2d7c/9+RQr+N8BBBAAAEEEEAAAQQQQACB0gSM6t5f2pVcVYpAW1vbrmJhzM+rRtlj7P5S2uAaEfC8K+W/o7FAAAEEyi0gS9x2lbtN2kOgPwEKYv2p8FxsBazz74tt8JUK3Nnfr2hShUp1T78IIIAAAggggAACCCCAAAIIhCHQ0tGyVvYYe0feL/ylVW53GH0mrI/R0+rri0UxHggggEBZBTLyaYWyNkhjCAwgQEFsABiejqdAb14tj2fklYvaKbOicr3TMwIIIIAAAggggAACCCCAAALhCrRt2fLvslrKa61VT4Tbc/x7M9Z9WrKQ9655IIAAAgggED8BCmLxGzMiPo7A/dc2r1bObj/OKRw6SqCgex8ABQEEEEAAAQQQQAABBBBAAIE0CbS2tm7atLnlfN+pG9KU97BzNWbK9Pr6Dw67HRpAAAEEEECgAgIUxCqATpfBClinWTZxsMRWdbdv8fhE3GC9OA8BBBBAAAEEEEAAAQQQQCBJAn0tbS2fLih3uexf4ycpsSBz0UpdG2T7tI0AAggggEBQAhTEgpKl3coJGApig8W32j7U3NTcN9jzOQ8BBBBAAAEEEEAAAQQQQACBpAnIbLH/U/AL75d9xXqSllsw+ejzpkyZ0hhM27SKAAIIIIBAcAIUxIKzpeUKCdh9ffdWqOvYdWu0wyp2o0bACCCAAAIIIIAAAggggAAC5RbY3NFxm7L2Yml3X7nbTmJ7WaWvTGJe5IQAAgggkGwBCmLJHt9UZnfnZ9e2yMa461OZ/BCTPuB7FMSGaMbpCCCAAAIIIIAAAggggAACyRTYtHnzg0q5SyU7VlI5wRBrz7ustra25gSncRgBBBBAAIFICVAQi9RwEEy5BJyyd5WrreS2Y1+8b+tzzyQ3PzJDAAEEEEAAAQQQQAABBBBAYGgCG1pb77POXiZ7itmhXZmus2UfsZNHZDIfSFfWZIsAAgggEHcBCmJxH0Hi71fAOJ+CWL8yLz/plOy11qT4Af8EThxGAAEEEEAAAQQQQAABBBBIl8CmtrZfWqM/na6sh56tdeajQ7+KKxBAAAEEEKicAAWxytnTc4AC+efXrFDKssTB8YydYrnE4/lwDAEEEEAAAQQQQAABBBBAILUCra2tN8pHSP8ttQCDSty+Y8LIkacN6lROQgABBBBAIAICFMQiMAiEUH6Bu7+l9itrHip/y8lpMa/67klONmSCAAIIIIAAAggggAACCCCAQHkFNmxuudoqt7a8rSanNWOMN2L8eJZNTM6QkgkCCCCQeAEKYokf4vQmWNDqzvRmf6LM3bq7r1i36URncRwBBBBAAAEEEEAAAQQQQACBFAvs1z09fyHbiXWn2OC4qWeU+shxT+AgAggggAACERKgIBahwSCU8gpo319S3haT05qvLMXC5AwnmSCAAAIIIIAAAggggAACCAQksHH79pXG2aaAmo99s9a688aPH18b+0RIAAEEEEAgFQIUxFIxzOlMctlVq5tlvW9mQfUz/C7vL+vnaZ5CAAEEEEAAAQQQCEnAGWND6opuEEAAAQSGKbBhy5bvKuXWDLOZRF4uyybqkSNHzktkciSFAAIIIJA4AQpiiRtSEjpSQGZC3YHIUQJWdfds73kAFwQQQAABBBBAAIHKCWhr91aud3pGAAEEEBiiQL6nt3DNEK9JzemybOL81CRLoggggAACsRagIBbr4SP4Ewk4v8CyiUchOW3vX9HU0nMiO44jgAACCCCAAAIIBCfgjF4fXOu0jAACCCBQboH2be33yyo0t5a73SS0J8smXih5VCUhF3JAAAEEEEi2AAWxZI9v6rPT+bUrZC2a/amHOAJAa81yidwQCCCAAAIIIIBApQWs5YNblR4D+kcAAQSGKJDX9h+sVH+GeFniT5dlE0fW1dW9NfGJkiACCCCAQOwFKIjFfghJ4HgCy65TvbIczd3HOydtxw7s7ro9bTmTLwIIIIAAAgggEDWBHt//MfvRRG1UiAcBBBA4vkBbW9tqbfR/Hf+sdB7Naj0nnZmTNQIIIIBAnAQoiMVptIi1JAGtfX5YfUnO2efu+9ym1pIguQgBBBBAAAEEEECgbAIdHR0H/E79Dll+67fMNigbKw0hgAACgQvk+/q+EXgnMezAWv2WGIZNyAgggAACKROQfS95IJBsgbw2d3hWFYxR3O9a/zbZo012CCCAAAIIIIBAfARa9rdsk8W93zN+/PjaEbncuRljJsgnFkfEJ4OhR+qbjFG2cLKnM2cqZd+pjBk39Fa4AgEEEKicwOatW5+cNrXhQXmPgSUCjxwG486Vvxb3Eeut3OjQMwIIIIAAAscXoEBwfB+OJkDgrstX71ywqPFBSeUdCUhnWCl0214KYsMS5GIEEEAAAQQQQKD8Ap2dnR3S6m3lbznaLdbW1tbklPcVz3hfjHakRIcAAgi8UkAr//8p5VEQO4LFKF09va7u3I1tbQ9xvyCAAAIIIBBVAZZMjOrIEFd5BYz7z/I2GL/WZCmercuvXP9k/CInYgQQQAABBBBAAIEkChSXjWzZvPlLzvrfS2J+5IQAAskV2Lh586+scj3JzbC0zHzn3ljalVyFAAIIIIBAOAIUxMJxppcKC+zd41L3idujybXWt8tz7ujn+TsCCCCAAAIIIIAAApUU6Nyz5x94Y7mSI0DfCCBQgsBeY3Xq32c42i2jvMajn+PvCCCAAAIIREmAgliURoNYAhN48G9WbVbWPhFYBzFo2C/kfxODMAkRAQQQQAABBBBAIGUCe/fu3amsfjxlaZMuAgjEXKDgCr+IeQrlD9+42eVvlBYRQAABBBAonwAFsfJZ0lLEBQra/DLiIQYZ3u4XzNr7guyAthFAAAEEEEAAAQQQKFXAGffHUq/lOgQQQKASAq1bttwrH7wtVKLv6PapZ0psXnTjIzIEEEAAgbQLUBBL+x2Qpvy7+tJcELv9qYUqn6bhJlcEEEAAAQQQQACB+AgYX++LT7REigACCBwU2KuMTvVKNP3cB1XTxo9/VT/P8xQCCCCAAAKREKAgFolhIIgwBO787NqWtC6bmHeFX4dhTB8IIIAAAggggAACCJQiYD1nS7mOaxBAAIGKCvj24Yr2H8HOCyNGNEQwLEJCAAEEEEDgoAAFMW6EVAk4pdK3xre1Xb3tB+5K1UCTLAIIIIAAAggggAACCCCAAAIBC+SdfSzgLmLXvDFmauyCJmAEEEAAgdQIZFKTKYkiIAL+/sKvMifl/jldGOaF6okjPzf/5kanvYJ1Bc/6nrbayp+LvzvPOfmzViavPZM3Lt9XUFn5va/PqlzeqkLe9WX6tMrnVVb3ZpQ94Hted3Zvvjs/Otu9d+/q7keuVz1iKvVGHggggAACCCCAAAIIIIAAAgikQ8Dr7V2pMtl0JDvILD2npwzyVE5DAAEEEEAgdAEKYqGT02HYAnNvGDva1kyaoHvMqa7Kn2CV3WaUmRh2HBXrz6hpGeP9w6H+M0rLV/3BL3zv8Je/PuLPxed19tBxnTs8hVTOqy4eePmH/INTS0d7B58ZN7pRLVislLj2SHmtWxo4oJXdZ43qkkmo+7Ry+7RTXdbK78Z0+aqwz/jePu25PcpXu/Ke212w3u4Rvvyes7vvumv1HvVLOcIDAQQQQAABBBBAAAEEEEAAgQgLbOrs/OOMkaP6JMRchMMMNTT51C0zxEIVpzMEEEAAgaEIUBAbihbnRkrgDTdOHjchM1I+eVQ12XlKfrdTtNJTrDKTjHNS+FITZNLSqTJdv8orRn6wqMMtH9QgSpGxWipoReUxxdVYX16PVSpu8n/jFStvxRF4qSInf5c/Fl815IoDJMezylPzLp7l1MVqn7Fqt4zlTimodWqtX1TWdUpDncpznQWnXzR+vtM53bn/gOns3Ge3Nzc1F1+E8EAAAQQQQAABBBBAAAEEEEAgLAFf9ipvU8a8KqwOo96PZ/W4qMdIfAgggAAC6RWgOpDesY985vN/MHuMVEimSzFluirIL09+OTVda9cg6/tNOViAOfw4VGo5WPY6VIjRsgDgwb8dOvLSefwefQEZ1+KgjZYBHC1jWPenMTxcUCv+PVM84/CyFKNPlpNPlmlwi2bvkuLZdjmyXYqh240222Sa2Xaj7HZXUNt7jOnQ3fval+/e9IJqkgltPBBAAAEEEEAAAQQQQAABBBAYpoDTqk1eolIQO+woL7ZrhknK5QgggAACCAQmQEEsMFoaHozAnKaGam9C1ekZ7Z2RyXpnOKvOkCLIa6zSM7RRUuo4/HjpTj1Y33qp2DWYHjgnLQLaaJmZVvx18B46+HipRCqrQB76iXzUSWpeTWPBLLZbldXtUntr963tMMU/K79dO7NFZp21bdrhb2HGWVruHPJEAAEEEEAAAQQQQAABBEoXkNeRnXwW92U/rS0FsdJvJ65EAAEEEAhYgIJYwMA0f0hgZtPM3PSJhTOV553tVLZRljc8U2l9hrauQZYW+NPqelIEO/h4ebk9BBEor4DcbfJ9z0yVm+zguuZe8fY7eMMd+nZYrLk2TDFu+uJGKZq5NqtcmzOmzRQKbQVPtdk+1eoyPZvuXbhxT3kjozUEEEAAAQQQQAABBBBAAIG4CTjly1L/hz6OGbfYg4hXtjygIBYELG0igAACCJRFgIJYWRhp5EiBuTdMPNVlT3mtyuQaPWelAKalAKbPUObQGneHFjF8qfLFkobcPdETOLxsY63MIKs1Sp93MMJMRlbwlEdV8T+j1LxbZu2UTwFulMUXN8rstE2ynOfG4i/r3KYdalXbUwtVPnqZERECCCCAAAIIIIAAAggggEA5Bawx3ZTDjhB17uCrZh4IIIAAAghEUYCCWBRHJUYxzb1h7GhTderrtJc511lzrjP6XCl11f8pBZnyRckrRgNKqIMWkD3KxsrJY2V22esPXlS80eWXJ/+ZpBr9BYtUm1NqvXL+875yz8u+d897zqzv3rqqdUWT7IrHAwEEEEAAAQQQQAABBBBAIPYCxuk+3vg4YhhliljsB5UEEEAAAQQSK0BBLLFDG0hi+u03zpxZU+W92Tr9Zk/ZN1ijXiM7eh3a2UsqYfzUE4g7jcZPwJNC2TT5epgmJbKLj/xGW1PbmJ+3SG1Sxj6vfL3eWLsmn/HW9trONSsWdnTGL1UiRgABBBBAAAEEEEAAAQRSLcBbIakefpJHAAEEEIiTAAWxOI1WyLHOaWqorpo8+lzZ5+vNxnPna6v/TJaGG1MMwzv4454sLBdyTHSHQNwFZMuy4sqLp8vXz+kynWy+7Kt38ImsN14tWDS+0ym3Rr6w1vrKrpEZZmvyuw+sue9zm9rkFPkrDwQQQAABBBBAAAEEEEAAgSgJOO0ymo8HR2lIiAUBBBBAAIEBBSiIDUiTvgOvu1llx6iZb8wYdYHR3juMcsW9k3KHql9SAaP6lb6bgozDFTBqvLyQeot0+pbM4U2Zs6ecJIWyWV2yLv1q2a9slXwZruztU6tsYd+q5Z/ZtD3cAOkNAQQQQAABBBBAAAEEEEDgSAHta+/wyzdgEEAAAQQQQCDiAhTEIj5AgYbXpMz8ybP/m9b2Ame9dzijzpc320e+3Cez/gP1p3EEBitgzCj52nyjFKXfWLykqrr435PUvMWNL8gfVjlrV3m+W9nt5Z850LV+1SPXq+7BNs15CCCAAAIIIIAAAggggAACpQs45csMMa/0BrgSAQQQQAABBEIToCAWGnU0Oppzc+34UXbcxc5zc2Xvr4tlVv94WQBRafb/isYAEQUCQxCQL9tT5fS3K2Pkl1Ij5Gt5xOhGf95iu042dn6moPQzxs8/U3B9z979yQ07htA0pyKAAAIIIIAAAggggAACCAxCQFMNG4QSpyCAAAIIIBANAQpi0RiH4KKQWWAXTZp5bk5l5soMsLna2derrOwExvrWwZnTMgKVFfBkd7+Z8iU+U77Bf0RlsrLuaVbNWzRrqzH6GQntqbzznzQq89SyK57bUtlQ6R0BBBBAAAEEEEAAAQQQiLeA1pr31uI9hESPAAIIIJAiAf7RTuBgz71BVXm52Rcoz75XOe/dMnNkQjHNgwsgFqeC8UAAgdQJGGMmSdLFX3Ozh1+vLbhl1nYnBTLruyed8Z7yd+168p4vbO5IHQ4JI4AAAggggAACCCCAAAIlCjitPTacKBGPyxBAAAEEEAhZgIJYyOBBdffOm6efnPNGzJdlEC/V1s1VRo8qLoXIRLCgxGkXgQQIaHOavHCb52XUvGI2mXFjZF+yk7cZZ57wlXq00Ksey9gtTyy7bufeBGRLCggggAACCCCAAAIIIIBA2QW0cxkl6ybyOCxgncUCAQQQQACBqApQEIvqyAwirmIRLOONujSj3Aet1e+UuV/Zg5fJgog8EEAAgVIEZLnFiVJIf5eU09/lVStlVa2bt7h2jXHqsYLWj/m9/mP3rGheqX6ppGbGAwEEEEAAAQQQQAABBBBItwAzxF45/tbofLrvCLJHAAEEEIiyAAWxKI9OP7Fd9Dk10px+5rtk/58PKeUukSJYVXEamGElxH60eAoBBIYrIAWyYoX9pT3JPpGpyqgFFzYesBe7J42zv7cF/bCfdb+/6/LVO4fbF9cjgAACCCCAAAIIIIAAAnET0FbWpOc9mZeHzVIQi9s9TLwIIIBAmgQoiMVgtOc0qUzNabMukRUQ/1LenF4gP2jVHAqbmWAxGD5CRCB5AvI9yCj9VqW9t5qD81Ktm3fLrLVGuYcLBfdwRvc8fMdVG59PXuJkhAACCCCAAAIIIIAAAgi8UsAZl9HsV/EnFKMtM8T4IkEAAQQQiKwABbHIDo1SC246/Wyrqz5mtP6oFMEmRDhUQkMAgRQLHJxFptWZQnBmJqsuV2qU7EXW+IJR9mGZQfY77akHlty98hmWWUzxTULqCCCAAAIIIIAAAggkVEBmiHnMEDticLWhIJbQe520EEAAgSQIUBCL2Che9MMZE0y2+qOe0h+TzcDOZtZ9xAaIcBBAYFAC8r3rVPkedqnJqEuLF8y7eNZec7F+2BXUA35BPfhCduWTTy1UvFAalCYnIYAAAggggAACCCCAQFQFZIZYjhliL4+OdcwQi+q9SlwIIIAAAkpREIvGXaDnL5p9gYSy0Cn9Hnkj+eAiZDwQQACBpAjILLLRkstcWV1/bkb+5ZlkGw8sWOwe8X31gGy6vKLTPvcoBbKkjDZ5IIAAAggggAACCCCQHgHZzKI6PdmeOFOtdd+Jz+IMBBBAAAEEKiNAQawy7gd7Lc4Gy+qaT8inia7QRs8oPseuYBUcELpGAIHwBA7uhagv8LPADSIAACAASURBVDx1gSe9nuY17p+/SD3ka7XcU+6+Je0rn1ZNyoYXED0hgAACCCCAAAIIIIAAAiUJnFLSVcm9aE9yUyMzBBBAAIG4C1AQq8AIXnTjmW/N5LxrjCkuJaaZWl+BMaBLBBCIloDMjB0p6+5fLP8oXVz8aMD82tm71CK3Qj4scJ/rdcuXXLNqTbQiJhoEEEAAAQQQQAABBBBAQASsO7W4rTKPwwLWUhDjZkAAAQQQiKwABbGQhmbuDarKZWd+2HiZT0sh7JyQuqUbBBBAIJYCUggbI4Wx90rw79VVWi1Y3NjhnLvHV/ou3b3j3mXXbXshlokRNAIIIIAAAggggAACCCRJwFPGnJakhIadi3O7h90GDSCAAAIIIBCQAAWxgGBfavYtN585abQxn9TOWyizHyYE3B3NI4AAAkkVqJW16D8m/2h9zNaMdwsWnfp0weq7Ms7evXG7/X1zUzPr1Cd15MkLAQReFigUnPL48f3IW6LAiuN8hSRYoFD8mueBAAKRFmiY2DBVAmQf+CNGyRpDQSzSdy3BIYAAAukW4BV1QOM/7+YzZiuT+VvlzAe1lh+OmD0fkDTNIoBA2gRMcT0So16bkV9KmS82TDH7py9qvN/Zwt1Wm6XLFq7akDYT8kUAgXQIWN/k05Hp4LPMebkRgz+bM6MsYKyVf9+LO4vyeEnAs1V8zXM7IBBxAW36TlcqF/EoQw7PNyyZGDI53SGAAAIIDF6AgtjgrQZ15jtvnnl+zjP/Q06ed/BNWwphg3LjJAQQQKBUgcP7jy3QJrNA3ka7YcHi2eusr5bKhxGWburwH2T2WKmyXIcAAlETyIzIMBv2qEEpGDcyauNEPKUJOGNkb2UeRwq4asfXPLcEAhEXMNns2REPMfTwfNe3K/RO6RABBBBAAIFBClAQGyTUCU7TlyxqfJdR9gvGmD87wbkcRgABBBAIVEC/Rj5g/hrp4rPTa03X9MWz7lV5t9TPeMuWXfHclkC7pnEEEEAgQIGM7+eVTI/l8bKAmIzDIxkCsjZgdTIyKV8WGWspiJWPk5YQCERAvne9lmL+K2mdtdsCwaZRBBBAAAEEyiBAQWw4iE3KXHzazD/Pepm/l+W7zpKlu4bTGtcigAACCJRbwJhR0uSlsnDtpcVFmOYvnvWsTN29vdv2/nb5leuflKfYm6Pc5rSHAAKBCVg/28cWYq/k9T1vYmDgNByqgPw7PTbUDmPQme3uZsnEGIwTIaZbQFt3fnFxIB5HCGQyHXgggAACCCAQVQEKYqWNjL74hzM/8HIhrLRGuAoBBBBAIFwB2ZykuKTJ2SNM9VcWLG7ssL693Tj9W79v5fJl16necKOhNwQQQGBoAl2Frr6Tq4p1fh4vCWjn6tBIhoBz7lQt6x3zeFnAjhzZpzo7IUEAgYgKTJgwYYYyZkpEw6tYWNba9op1TscIIIAAAgicQICC2AmAjjqs5y+e/efa6q8emhE2tIs5GwEEEEAgUgK1xjMLJaKFOtO4f94t6i6r1W97/M4lKxZ28O5TpIaKYBBAoChQU1PTjcRRAtq8CpOECGgzNSGZlC0N3an5mi+bJg0hUH6BESNGzC1/q/Fu0Sq3u6Oj40C8syB6BBBAAIEkC1AQG+TozvvhrAXK09+QpbZmszLiINE4DQEEEIiJgCx4O1Jp9T75/X2jvPH+/FvG/k4+pf5rtbf3P++4fj2fcIzJOBImAkkXaGtr2zNtap2TPWuZRvPSYFt7uvyxuCqun/TxT3h+WdlzZoo2LEF/5Di37G/ZlfBxJz0EYi1grH437w+9cgiNcyyXGOu7muARQACB5AtQEDvBGF9y4+w3eTn1T9rot5zgVA4jgAACCCRDwNPazJFU5tjRuRsWLJr9WEHr32hrf7Ns4aoNyUiRLBBAIKYCVvYp2SOxnxLT+MsethQHR9TV1Z0hxcLVZW+cBkMTmDF16mtk2TGqYUeIy5JjxRkWLOcc2l1IRwgMTWD8+PG1StkL2Ev+lW7WmS1Dk+RsBBBAAAEEwhWgIDaA9/zvzzpTV6lvKKUvHeAUnkYAAQQQSLiAKe6QbdR58o/lecoz35y/eNaz8u/Cbw70+L++/9pm3nxN+PiTHgKRFHBul9KagtgRg5Nx7o3yV74nR/KGHVxQzneNmnLYK7CEg9lhg7t9OAuBigicXF19GYX8fuiN+2M/z/IUAggggAACkRGgIHbUUFz0wxkTcpnqryttPiGHisuv8EAAAQQQQOCggFTHzpbfzh5Znfmf826ZtcYqe2uP9W5dsXDlWogQQACBMAQOv0k+LYy+YtOHMe+UWH8Um3gJ9FgBk3nDsU+m+xlHQSzdNwDZR1/AmI9FP8jwI3TOrQ+/V3pEAAEEEEBg8AIUxA5bzWyamaubnPm00fYrMuV99OAJORMBBBBAII0CRpszZQZZ0yhPNS24ZdZzzppfFDz/1rsuX82nItN4Q5AzAiEJFN8kZwOxV2LLHr/FgliRRXh4xFFAG3s+y469cuScMswQi+PNTMypEJhRW/tm+RD1zFQkO8QkPWspiA3RjNMRQAABBMIVoCAm3pcsanx3Rttvy8voV/FCLNwbkN4QQACBRAho06g91ZhV3tdkz7E/KGNvLezzf3HnZ9e2JCI/kkAAgcgISMVnGwWxY4bj1NpTa8/peKHj6WOO8ETkBWQPuDHWqXNkkWIeRwjIbNCtgCCAQDQFXDb7Zb5l9T82+/r6KIj1T8OzCCCAAAIREUh1Qay4T5jLqX+RF18XUgiLyB1JGAgggEDcBYx+ray4+9rMSd4/LVg86xHr3E8P2F2yrGJHZ9xTI34EEKi8gLZ2s+xpWPlAIhbBiJrsfAmJgljExmUw4bhC4SKTzbFU/dFYxm0++in+jgAClReYUVf3OpmUPLfykUQygvyOHTtaIhkZQSGAAAIIIHBYIJUFsTd9R40YO3LmV5w2n5diWJa7AQEEEEAAgWAEzJvk35k31ejx35u3eOxd1pmfvmA7b3tqYceBYPqjVQQQSLyA1rxJ3s8gO6v/Sp7+Wj+HeCriAplM5s8jHmJFwvMdBbGKwNMpAicScObvDi7Sy+NYAWeflyf9Yw/wDAIIIIAAAtERSF1BbMFNs+cpo29URk3jZ5jo3IhEggACCCRZwBgl/96a+VIcm3+aN37/vFvG/qev3U97t6y+d0WTKiQ5d3JDAIHyCjjf36INk2mOVtVGvbq4p8uGjo6Hjz7G36MrUFwuUfbkfFd0I6xcZK44G5QHAghESqD474xV9t2yj3Ck4opKMJaZ2lEZCuJAAAEEEDiOQGoKYgu+c/pkNbr6X8Ti/cfx4BACCCCAAAKBCsjL55GyCfdl8vtl2drGHfNulsKY3/fj5Vevey7QjmkcAQQSIdCbV5tHsL5B/2OZyXxcDlAQ618nks/KrfwXElhVJIOrcFAes0ErPAJ0j8AxAhnnZW4yhh0Pj5E5/IT23R8GOsbzCCCAAAIIREUgDR9r0Zcsnr1Qjc6tEXSKYVG584gDAQQQQKC4feUE4+nPjshVPTtvUePTCxY1fnruDRNPhQYBBBAYSKCrt6t1oGOpf16bDxZnHKXeIU4AWn8sTuGGGavetYuv9TDB6QuBEwjMqK//rDZm1glOS/Vhqz0KYqm+A0geAQQQiIdAomeIXXTLa6blXNViGYp3yKan8RgRokQAAQQQSKWALKt4jiT+PV094Z/nLTp1qfEL/2+rWXPHUwtVPpUgJI0AAv0K7N27d+epY8a+IAcpnh8rdFJGmU/L003HHuKZqAlMmTjxDfIa7U1RiysK8Vhrd27q6toRhViIAQEElGqY2NAgX5dfZXLYwHeD+Dizf9/TA5/BEQQQQAABBKIhkNQZYnr+TTM/ldFVK+XT91IM44EAAggggEA8BKQwlpUX2+9R2exvJunGjgW3NP7LvJvPmB2P6IkSAQTCELBWFVc+4NGPgNOuWBAb3c8hnoqYQFW2+ssRCyky4WjN13hkBoNAEFAqq7PqVlkqcSQYAwvIm4sbN+7atWfgMziCAAIIIIBANAQSN0Ns/g9mT1cZ9WNt9FuYExaNm4woEEAAAQRKFDBqvFx5nfFy182/pfFxXfAXd1n3sxXXNHeV2CKXIYBAAgTkZ9xiQeytCUil7CkYpU+pnzz1U63tm79e9sZpsGwCU6ZMabTKvsvIpxd5HCtw+Gv82AM8gwACoQtMn9Lwz9oomdHK43gCzujHjnecYwgggAACCERFIFGvQObdNPsTOueeKRbDogJMHAgggAACCJRDQD4t/gaV9RaNypqtst/Y4rm3NJ5XjnZpAwEE4idgtVobv6jDi9jLeJ9vGNkwMbwe6WmoAjIV+u9ltgWfXxwAzvmmeYBDPI0AAiEK1E+Z8j7tqeLMYx4nENDOPXiCUziMAAIIIIBAJAQSMUPs4sVnjc0qb5GIvp+9wiJxXxEEAggggEBQAsaMkk+z/LU0/9cLFjWult9vyRv/J3ddvnpnUF3SLgIIREvAd/4aT96h49G/gFRZTjbj3bfVfvXR/s/g2UoKzKivL+7vLK/beAwkwLKoA8nwPALhCchM1jcabf4tvB7j3ZNfMA/EOwOiRwABBBBIi0DsZ4jNu+nMC6UYtlIGjBdVablryRMBBBBA4JCAUWfJalPf85Run3/L7B9fdPPMN0KDAALJF8jt2sWm9ScYZq30R+omT77gBKdxOHyBnFXq++F3G68eD+x9ga/xeA0Z0SZMYNKkSWdWabOEfcMGN7BOqR0tHS3MXh8cF2chgAACCFRYILYFsTlNKrPg5pnfVBnvLjGsrbAj3SOAAAIIIFAxAdmDpVpr/bGcl3lUllN8WopjV170OcXG3xUbETpGIFiBDV1dO6So0BpsL/Fv3ctkf1BbW1sT/0ySk4Hs7/Y52eftjORkVP5M5I3lth37928vf8u0iAACgxGYXltbV5PJ3q2MGTeY8zlHKecsyyVyIyCAAAIIxEYglgUx2TdlSs3kxhXKy3xe3gRk7fnY3G4EigACCCAQtIAx6hwpjt2cOWNWx4KbZ9/49htnnhV0n7SPAAIVEHD2iQr0Gqsu5YXO6dWex2ykiIza9NNOm20y5u8iEk5kw5A3lh+PbHAEhkDCBaaNH/8al809KMWwKQlPtazpWa1ZLrGsojSGAAIIIBCkQOwKYrJf2CWeU09LGezNQcLQNgIIIIAAAnEWkA+MjFaevmZkdWbV/EWzH5y/ePYHirOr45wTsSOAwMsCRmveNB/EDaGN9/EZdXUfG8SpnBKswChXPeKXMjusOthu4t86X9vxH0MyiKdAw2kN55kRNQ/Lm2T18cygclE755ZWrnd6RgABBBBAYGgC8SmIfUB5l9zU+A3ZJ2Wp7JcyfmhpcjYCCCCAAALpFdBGv0X20/lFTe3sTQsWz/zinJtr+Xc0vbcDmSdEwPc1M8QGOZbWqR/U1dUxW3aQXkGcNq2u7iZ54fmaINpOWpvW2seSlhP5IBB1Afk34l06Z5ezTOLQR8oqt7atrW3j0K/kCgQQQAABBCojEIuCmMwKGzv/wtl3ZjLqiyyRWJkbhV4RQAABBOIvYIyW5V8y36jxxm5ecMusH134/ZnnxD8rMkAgnQItW1qKBbF8OrMfWtbGmBpPmyXjx49n3+Gh0ZXl7Pr6+muNNh8tS2PJb6Sv1/efTH6aZIhAZAQy9XV135RViG4r/lsRmahiFIjx7R0xCpdQEUAAAQQQkLlWEX/Mu/mM2RllnpBPt78z4qESHgIIIIAAArEQkA+XVCttPlFVlXm6uJziglsa/1zJTOxYBE+QCCDwksB+x0ySQd8NxSWwRo+ouavhlIZTBn0RJw5bQGaGfcBY9y/DbiglDVirHu3o6DiQknRJE4GKCkybNKl+Rn397zLafF6KYexNX+Jo9BbyFMRKtOMyBBBAAIHKCES6IDZv0RnvV17uEVnmaXpleOgVAQQQQACBZAsUl1NUWv1ywYWzNs67afb1c28YOzrZGZMdAgkS0Oa+BGUTeCramFnmJHu7dDQi8M7oQNVNnnyBzAz7d3mjOdKvOaM0VM4VlkcpHmJBIKECZvrUqVerXO4ZpfR5Cc0xlLRkucTdW7ZteziUzugEAQQQQACBMglE9cWJnnvLWV8zJvcrCXBkmXKlGQQQQAABBBAYSMCYOpPR39Y1tZvn39L4rbd+e9bUgU7leQQQiIaAcz5vng9xKKQodv60qQ13TR8z5uQhXsrpQxCYXld3fjaT/U+5JDeEy1J/qvO8e1OPkCIAmxnB7PyQx7vhtIbzZtTVyQpE3veN0swYHqa/tva/pInCMJvhcgQQQAABBEIViFxBbE5TQ/W8RbN+7mnvy6FK0BkCCCCAAAIIyFrKZrTW6m9GnWQ2zls0+z/m3zL7dbAggEA0BTZt3vyotZbl1YY4PDJf6S1u9MkPyt5Wk4Z4KacPQmBqbe17nNb3yKknDeJ0TnlZYF9ra+vjgKRHoOD3UJgPabgnTZp0pizh+hOds7+XZcNfG1K3ie/G+f7PEp8kCSKAAAIIJE4gUgWxOTfXjq+pHbVcVtX4i8RJkxACCCCAAAIxEpA3jDOyncKHtdZPLlg0a8XcxWe8S8Jnf4UYjSGhpkKgT5Y9fSAVmZY5SXkR1Ci/ft9Q23BGmZtOdXNSZLw842V+LTMvqlMNUUryVt0vlzHTohS7mF6T86pnxjT02IQ9ddKk10+vr/91dSa7WpZwvYy9wso3dE6pHZs6OpipXj5SWkIAAQQQCEkgMgWxeTdOP71Gj31UfkD5s5BypxsEEEAAAQQQGIyAMW/zVO63CxY1rrx40ay/nNOkMoO5jHMQQCB4Ae1ccbkiHiUISNGmwfPsEw1TGz5cwuVc8kqB7LT6+m9nlL5FXs+xDFwJd4evFF/LJbjF+RLn2ffFOf6oxj569OixDZMbrpKlER/O5aqekD3p30chrPyjpX3/F9KqfOvigQACCCCAQLwEIlEQe+fNM89XVTWPyA8pM+LFR7QIIIAAAgikSMCos7LG/FvNlMY/zr9p5qfe9B01IkXZkyoCkRTwXzS/lWUT5YPaPEoSMGaUZ9R/zKhruLlBNTCrqQTEhokNDbIv20NSYLy+hMu5RATka9jv8/tuByNdAjJj6Z1SkL80XVkHk+2MUaMm1E2ZctmMqQ3/deqYsVu9jPqhLI3Ih62D4T7Yao+z/xFg8zSNAAIIIIBAYAIV/4T3/2fvTuDrLMrFj8/Me5KuUJbSYndaaCVNqlBFWS1bIU3EFf173VCTpoWKiCD3ukbl6kXBBcE2bd03rnpdIEtpWSrIDoJJmm40PVmabumepEnO+8785xRUljZtkrO8yy+fT5XmvDPzPN85hJP3eWemqOLMIiljv7ebMHFTrR/TrLVI2INe9got9ihhOuw+/a69E5JQRtv/l4nk3221M2Hs3w91q6RjhHGEUY4y9nBrpYfZ64fbF4bb/a9G2H5OsP3Zv/OFAAIIIIBA3wL2vy+TRSx254nHz/rylUu8Ox2t7q66tm5P3614FQEE0iEQ74xvmzZ68lO277eno//I9CnFfDVRnzfNG7dgU1vbY5HJe5CJ2pvP/08rs9gWw04YZFeRbm63KH60raWtPdIIEU3eFuT/d/LEiV9IeN7itrY2zoQ8hvfB6NGjjxs6dGie4zj5MSPPsfc8ztPi0ENbbO19DH6puMR6r9+yZcsTqeiLPhBAAAEEEMi0QFYLYsWLCz6spfyZtOeUZDpxX46nxUGjRKstVLUaLVqUcVuNES1axdpc4+5W2uzNPejt6W3bsHfl7aIz1TnkleflThjbc4LqGXGiO8w9JVfqsVLkjhXSO1VIOd7GMlFJOUloOZHiWar16Q8BBBAInoAtjJ2iYs437LPtny9cPquiw0t899GytVuDlwkRIxBwAc/7k3BiFMQGOY1SqXwtYo+eNmHiT3qNvsXe7Ns1yC5D2/y00aNniOHD77IPNV5mi2GhzTNjiSX/HeYrqgK5MeXcbv89+rpdafmsVGaL8XSXre1EfuWvJ+0pmcbk2jfGUPtT5kQj1Wi7nHKi3VnopH+9WewL9jJ+CmX43x57b2hJhodkOAQQQAABBFImkLVCVPHygkVamDvtR5eI/Qale+3TNC8qodZ6xlvnuGqtiYl1O3t2x59elN1fuhvKG3ob7MGo9t2V/LO+r3fZpd8/bawamXu6I4acHhPmdFvAe6NdmWYPJ9enC/sJta+2vIYAAgggEDYBdZw9MOam4xxnUVHFzOVaObfVlNa2hi1L8kHArwL7e3r+ePzw2G1+jS9Icb18zsynhmr5rimTJt0ab25eauM/GKQc0hnr1BNPHKVHjrzFHhP2OTtO8kY1X4MUsNsl6n1dXX8cZDc0D7iA/dmT3K3lIlveEdLhGL7kdB5SeMXtokM3jrjVkPV3uv2RdVBL8fOsB0IACCCAAAIIDFAgKwWxouUFX7GfbL4W+ud4tNihlX5GG/2MfbzrBaene21Xe2Pj6nLx0jaGA5w0PzR78IbN220cyT+v2lImeZ7M8JHT83NFrMBu0zhLCidZJJtlP7me7Ie4iQEBBBBAIH0C9mGPofbuxSJH6PnFS2f9pGv/gf956KbNTekbkZ4RQCApsHPnzhePnzTscc5LSeH7QanR9mbs90+bPOW/hDC3b25qWmx7T/kODSmMOK1djRs3bvSwnJwb7ANw9me8GJXWwSLWub3f//Du3bt5iCRi8066CARVwAj1u+bmOFulB3UCiRsBBBBAIPNbFdqVYXZrJfmlsNnbM732KWWeFbb4pY33bK9RzzxQ1tActjyPls8TNyafoN3wjL0u+edfX5dV5E2Kqdj5jvbOs0+8nW9fsEWylx76OlqfvI4AAgggEDQBZc+qFAuGHn/cp4qXzfy5Sahv2TPGGoOWBfEiEDCBX9h4zwtYzL4P1257MNb+7vKdaRMn3aKV/IXS+qebWlrqfR94igI8bcyYN5mhwz8pjS6xDsmzh/lKsYCr9c9S3CXdIYAAAmkTsMd5JB8Q4QsBBBBAAIHACmR0hVjhspm32l+kvhhYrVcGrnWHXQH1qGvkw44wD1W31T0vyoXdDZGvwwm8XBxMFgh/m3x9zt15I3NM7G2xHHOePZfsfKm0vYGjjjtcW76HAAIIIBBMAburTY599qHEbg18zbzlBb9Sbuc3Kxc0bgxmNkSNgL8FvP3qf51R4gc2yiH+jjSg0dkVY7Y4dqNQzo3TJk16zrXnIKve3vs2b90aulWwJ5100oQTjzvuQ0bLj9qjeQoOzZj9B77SInDAFsTYLjEttHSKAAKpFrA3vJ5qbW19KtX90h8CCCCAAAKZFMhYQayoIu+/pXS+kMnkUjmW3Se5x+7m/aiW8mHTYx7ubq9/JgxbH6bSqD99rb6uocNe/+DLf8TsCpEzRhacZ3/xviIWE1dqod9st97iIdT+oHItAggg4FMBWxiznzfkNSI28qNFywp+5Up96/0la170abiEhUAgBeJ743tPO37SfUqq9wcygSAFLdVs+0Nttsgd8sOpE6dsNMqssp9hV4nd4sl4Z3xbkFJJxprcDjEWi50bE+oCI8UVtvT1puT3qYGlfyaNMH9oa2vrSv9IjIAAAggMXsCeHf8/g++FHhBAAAEEEMiuQEYKYlcumfVN6Qi7/37AvrRo94SolqL33q6Euv/lIk7AkghGuM+ViYQQdX+10Sb/fGHu4mljcuSQucZRVyij5tqtt8YEIxOiRAABBBDoQ8CRUn48RzgfsSvGfmk8c2tNWf2mPq7nJQQQ6IeA3Z70xyJXUBDrh9lgL7VFozPsQ3Nn2M+q14rRQpx28qSt9omuBmHMRiGdJumJbUYk2ns80Sljsku4rj1aOLNfzpAhMenJXGUSI43jnGR3Zxhrn/KforScJoTOF0qN/2dEPI2W2bmxv2suz+yIjIYAAggMVMCsjbc0/WWgrWmHAAIIIICAXwTSXhArqpj1xSAVw+xZYBuMEvdqI+69f1Xt4+L3wv6ewlemBVYu3LTDjvmrl//IoqX55xoj3y8c+V771OrkTMfDeAgggAACKRVwlF0xZlddJwtjv6IwllJbOouwQHxr/P7TJk/ZYD8rTY8wQ1ZTtyv03mADeIOQ4tJDgSTXx9rdY4f+87cuJ+2/fh0+fyf57Rwby0tfhzZA/Pf/HL4N302vgNHPNTU3P57eQegdAQQQSJGAMbfZnjL+UEeKoqcbBBBAAAEE/iWQ1t/I5i2beZ2U4la/e9snJJu0K37T47q/fnhRwxq/xxvB+EzV/PrkL4vJPzdeunT6W3PNkPdLad6nlLJPtvKFAAIIIBBEgX9upZgsjBUvy/+lSchbq66tawxiLsSMgE8EjPDcu4QTu9Mn8RAGAggcQcD+Dsq/p0ew4dsIIOAzAS1aNrU0/8ZnUREOAggggAACAxJIW0GseHHBh7U0PxxQVBlopI3ebbfi+123cX/9QFnDY3ZInnTJgHsqhnhw/oZnbD/JP7dcfnfem3Nj4mrpqI/ax1wnpqJ/+kAAAQQQyKzAS4Ux9QkTEx+lMJZZe0YLn8CB7u6fjRox8r9tZseFLzsyQiAcArYYtn1zc/M94ciGLBBAIOwCrjJftznaYy74QgABBBBAIPgCaSmIFS5/4zu1lj+z2yH5aht6ux1iQgrzF0/IX+409TUvnVsV/EmMcgarrmt4web/gigXXy4aV3CJrWteI4V6r90CZliUXcgdAQQQCKLAKwtj8yryf5zYu+/rq25paQtiLsSMQLYE2tvbD4waPvxnQqpPZysGxkUAgb4FpBEV9orevq/iVQQQQCD7AraAv76pqemn2Y+ECBBAAAEEEEiNQMoLYoXLZr1dCv27l25qpSbIQfeidbMxammX6/549XUN2wbdHx34T6Bc6CpR94AN7IHCO086Xg6f8AG75u8aJcX5/guWiBBAAAEE+hJ4uTBWNuTEEz9WWHHCD7Wjb7u/KZg9swAAIABJREFUZM3uvtrwGgII/FvAlfJ7Ma0XCqVS/lkfZwQQGJyA1rpr557ddw2uF1ojgAACmRHQnvsFO5KXmdEYBQEEEEAAgfQLpPSX5KIfFUw1UtyrhBqa/tCPMoL9TcPGssK4YnH19vpqu4LIPtjCVxQEaq7fvV+I3cttrsuLl0w9w4uNnC+N/qQ95PykKORPjggggEBoBOxqX0fIz0vtlBVVzPpOYmPt91feLjpDkx+JIJAmAfsk9+apEyf+ym7VcE2ahqBbBBAYoIBScnFHR8fOATanGQIIIJAxAbvL0tNNra1/zNiADIQAAggggEAGBFSqxrDFsBNlrqi2HZ6Sqj4H2M9eI8xtbqc7raq0vqh6YX0lxbABSoagWeWCxo01JbU37zlQP8EYXWI/0CW3WOQLAQQQQCBAAnbF2CjpiFtzZ+RvKl5esCivPC83QOETKgJZEeg15pv2+TCe6M6KPoMicHgB++/kwQPt7d85/Kt8FwEEEPCbgHez3yIiHgQQQAABBAYrkJKCWPLGlIyZPwkhZww2oIG2N1ps8Tz3pj0b2iZVldT954rProsPtC/ahU/giRvFQVsg/XH1/NqzekTPBUaIe5JnyoUvUzJCAAEEQiwg1Vj7WeOHUybE1hcvO/Nj9oGXlHyOCbEYqUVYoLW1daOQ4p4IE5A6Ar4TsOdZV+zo7Nzuu8AICAEEEHiNgH3Q/DebW1oeAQYBBBBAAIGwCaTkRtLkcbFl9oyCd2QDRxu9Vrvmk5vb3Kk1ZQ13PPbt9gPZiIMxgyOwqmT9Y1UltR/qSriTjPG+Yd9DnEsTnOkjUgQQQCBZBZsiZM7Pi8fNqi2qOLMIEgQQOLyAcdWtrBI7vA3fRSDTAsnVYZ5S3870uIyHAAIIDEBgv26XnxtAO5oggAACCCDge4FBF8SKl876jKPExzKeqTZPulq8q7q0fmb1grqfNpQ39GY8BgYMtMDq6xq2VZWu+UpXr57sCu9Ge+pca6ATIngEEEAgagJKzJROTqX9LPJg4eK8s6KWPvkicDSBeFt8nZLiJ0e7jtcRQCD9AvZ3jTvs+X5b0z8SIyCAAAKDE/CM/kq8M75tcL3QGgEEEEAAAX8KDKogVrw4f44W4vYMp/a8cE1R5fy6c1fMr73Xjm13v+MLgYEL2MJYx4qSNd/bbuqmJlcbCq3XDbw3WiKAAAIIZFxAiUscRz1btKzgZ8XfnT4+4+MzIAI+FvB2qa/YzzYdPg6R0BAIvYAWZlvTlpbbQp8oCSKAQOAF7D2+f8Sbm+8KfCIkgAACCCCAwBEEBlwQu+iO/Ik6R/3OHnQfO0Lfqf22LVLYPYw/UFlSO7tyQV11ajunNwSEeK5MJJKrDSvn1+eJROK99ubRM7gggAACCAREQCklpfy4GDl0Y/Hygm/MuTtvZEAiJ0wE0ipw6AlvJdmmLa3KdI5A3wL2BvOX7BUUpvtm4lUEEMi2gNZ2Iyb7kLAQXrZDYXwEEEAAAQTSJTCggtic8ilDjzte/sk2PiVdgf2zX/vLQ9xNuJ+oXFWfX1VS93v7fVaEpRud/k3lwrV/soWxczzRe5XW4gVIEEAAAQQCIqDEMCHkl0bmqhftirH54mrhBCRywkQgbQIHE4k77IM+W9I2AB0jgMARBezvs7V2q8SfHvECXkAAAQR8ImC3SvyG/Xn1d5+EQxgIIIAAAgikRWBABbHhE0bcYZ/Cnp2WiF7u1Gizx/Xcz8Rb3RkrFjb8TPyeJ1TS6U3fhxeoKVl3X/X82rNtGfZqLXTD4a/iuwgggAACvhOQaqz9rFJRfPmsf8xdmlfou/gICIEMCrS1tXX1eu7nMjgkQyGAgBXQ9uAwob1PJ/8REAQQQMDPAkbrZ+Otrd/0c4zEhgACCCCAQCoE+l0QK1qS/14lnGtTMfgR+vDsrwtLOs2u6SvKGu5sKG/oPcJ1fBuBTAmYytLaP1S31heIhPmIXaK4MVMDMw4CCCCAwCAFlJiZq2LVRcvyq4qXTD1jkL3RHIHACrS0tf2v3WhhRWATIHAEAiigpFi+uaXlkQCGTsgIIBAhAbtNYvdBN/Exm7IbobRJFQEEEEAgogL9KohdVpE3ScbUj9NmpfVfhds9u3J+7cLVZW3taRuHjhEYiEC50JUL635ddX/tmcboEttF20C6oQ0CCCCAQOYFpFTzRGx4fWFFwW2cL5Z5f0b0h4DXIxfaFStd/oiGKBAIt4C9wbzN268+H+4syQ4BBMIgYJew3rR169a1YciFHBBAAAEEEDiawDEXxOaUi1iuVL+1HZ5wtE77/brWzYmE+0F7ZtOcygUb/tHv9jRAIJMCdvvOqtL6H2/12s9wjVtuPzx2ZnJ4xkIAAQQQGKiAynUc+fmRQ2Lri5bkfWSgvdAOgaAKxLfF40rJ8qDGT9wIBErAmM/E98b3BipmgkUAgcgJGGHuseeG3R25xEkYAQQQQCCyAsdcEBsxfuZXlFLnpVJKa+Ha//jetquj/o33L2z4XSr7pi8E0i3wXFlb14rShq8d8BJn2MMBfpI8JCDdY9I/AggggEBKBMbJWOyX85bN+lvh4ryzUtIjnSAQEIFNTU3fE0Y/F5BwCROBYApo8ZfNzc38fhvM2SNqBCIjYFeyrmtsaiqNTMIkigACCCCAgBU4poJY0bKC2cY4/5ViseeN555TVVL3n0/cKA6muG+6QyBjAo+Wrd1aVVL/Kbvn9lna6FUZG5iBEEAAAQQGJWDPdjnfcdSz8yryl8ypGDd6UJ3RGIHgCLi6q+vDbJ0YnAkj0mAJJLdK3L6nnRvMwZo2okUgcgL2c0CnZ8z7beIdkUuehBFAAAEEIi1w1IJY4Z1iiDTy50qJWCqktNDdxjX/2dFae07NwobnU9EnfSDgB4EHr11fW11aP9d4iWL74XKTH2IiBgQQQACBowjY5e/KUWUj5Mkb5i2beZ0oP7aHhY7SKy8j4GuBze3t66VWN/k6SIJDIIAC9ncA42p9TUdHx84Ahk/ICCAQEYHkzyohxSebm5vXRCRl0kQAAQQQQOBfAkctiDnDZiZvDc1MhZl9Wu4R5XbNqlpQd9vqcuGmok/6QMBvAlVla6tMd/1Mux3oV4Vm9aPf5od4EEAAgcMJSCVPVNK5q3hc/pNso3g4Ib4XNoHGLfHFxuiqsOVFPghkU8BI9cOWlpb7sxkDYyOAAAJHE7D1sC+xrevRlHgdAQQQQCCsAn0WxOZW5L1NSOfmQSevRZfR4rrqkro5lQsaNw66PzpAwOcCNdeLHrsd6Nd7ZU+yMHavz8MlPAQQQACBfwoo9VYnJ/ZMUUXB9+bcnTcSGATCLCB37/6k3e55a5hzJDcEMiVgDxP+h2gWt2RqPMZBAAEEBiJg70/8tGlLyzcH0pY2CCCAAAIIhEHgiAWxOeUilqvUUpukM8hEn+8wZnbV/Nof2X7MIPuiOQKBElhZun6zLYy9K7mNov3g2Rio4AkWAQQQiK6AIx15w/AcZ23x4jPfE10GMg+7wKaOjh3Kda+2eSbCniv5IZBOAVtY3uMZ/d64iHencxz6RgABBAYnYB5ubGoqG1wftEYAAQQQQCDYAkcsiA0/teB6IdWsgaZnzwoznhC3N7a6b19dVrduoP3QDoEwCCS3UexsPTDTGO8bWnPTKQxzSg4IIBB+AaXkBJGT88fiZbPuveT20yaHP2MyjKLApra2x1xhboxi7uSMQCoE7Fk82iTUf9izeHj4LRWg9IEAAmkSMM97++R7bec8BJMmYbpFAAEEEAiGwGELYoXLZk1QynxtECm0SS3n1pTU3txQ3tA7iH5oikBoBFaXx7urStd8xfUSZxsjng5NYiSCAAIIhF1AincOPeG4NUVL829KrqAPe7rkFz2Bpqamu+wKl19FL3MyRmDwArYc9uX41viKwfdEDwgggECaBIxuOJhIzI3vje9N0wh0iwACCCCAQGAEDlsQc6T4vlBqgOdm6D/v6N41q2p+3QOBUSBQBDIosHLh2vqqLbXnekZ81p410JnBoRkKAQQQQGCAAvYD0wip1HdGjs9/bt4PZ7xlgN3QDAHfCmxubp5vtH7WtwESGAI+FLCF5D/Ys3i+5cPQCAkBBBB4SUDrF10pL2tra2uHBAEEEEAAAQSEeF1B7IrlM6+0MO8bAI7nee5NlSX173l60ZZdA2hPEwSiI1AudE1p7ff1gd58IfTK6CROpggggEDABex20mrYkCcLKwpum1M+ZWjAsyF8BF4pcLBj965iLUwcFgQQOLqAMfox06w+aq/knOyjc3EFAghkQcA+gNtkPPdSuxJ8axaGZ0gEEEAAAQR8KfCqglhyGyDHyO/2O1ItdoiEvqymrOGOfrelAQIRFljx2XVxW0S+QpjEx402eyJMQeoIIIBAkAQcx5GfHznhuBcuXz7j/CAFTqwI9CWwo7Nzu0nIQnsk0u6+ruM1BKIuYAvH69r37r0qLuLdUbcgfwQQ8KeALYat33dg/4WNbW3N/oyQqBBAAAEEEMiOwKsKYkMnFHxKSXVmf0Kx/5F9ypNiduXC+tX9ace1CCDwb4HK0rW/6N2zN18bwfkDvDEQQACBwAjIGUN0ziOFy2d+f+5NYkRgwiZQBPoQiLfF17lu4t32kp4+LuMlBCIrYIth20yPLNy/fz+F48i+C0gcAb8LmOd37mq/cPfu3S1+j5T4EEAAAQQQyLTAvwpisyvGDVfafLU/AWhPV8Rb3Yvs1m+t/WnHtQgg8HqBVbe0tFWX1ha6wiwQWne8/gq+gwACCCDgOwGllCOcz+S8saC2qGLGxb6Lj4AQGIBAy9atj4pe90P284g7gOY0QSC0AvbMsD3GlYXxbfF4aJMkMQQQCLSAPQ/0b2b//os7Ojp2BjoRgkcAAQQQQCBNAv8qiI0RJyy093TecGzj6F7tmk9Wl9UvaChv6D22NlyFAALHIrCipK7C/qL9JruF4qPHcj3XIIAAAghkX0AKOdU4OQ/Oq8hfUnjnScdnPyIiQGBwApu2tv5JS/Fhu32iN7ieaI1AOATsQWH73ERibnxL/IVwZEQWCCAQNgEjzJ8aW5rnNu7Zsy9suZEPAggggAACqRI4VBA797timKPUzcfSqX0qbndvt3d59YK6nx7L9VyDAAL9F6i6tq6xqq1ujn2662Z7I4oti/pPSAsEEEAg4wJK2I2nHVXmDB9Xf/ldsy7NeAAMiECKBTY3N/9OKvlx+1nE7pLOFwKRFtjf29M9166efDbSCiSPAAK+FfC0963Gpqb32QAP+jZIAkMAAQQQQMAHAocKYqOOL/iYkGrs0eKxvwtv0p3qvJWL1j5ytGt5HQEEBilQLnTV/PrbhXHfKrRYM8jeaI4AAgggkDEBNTFnqF6VPFtsTvmUoRkbloEQSIOAvbn2a6XVpyiKpQGXLoMicKDbTVzZum3b00EJmDgRQCBSAj3aTXws3tLyBZu1XczKFwIIIIAAAgj0JXCoIBbT8tN9XfTSa/oJ091+7oobatcf/VquQACBVAlUl62r29VR+1ZjxOJU9Uk/CCCAAALpFUiuFkueLTZ8wsjnLqmYdXZ6R6N3BNIrsGlL/GdCig/ZUdgqPb3U9O4/gZ29vT2XbNmy5Qn/hUZECCAQdQG7g9NWewb5JZu3bPll1C3IHwEEEEAAgWMVUFfeVXCuUGJmXw3sPsS/72jtuKTm+m0cytkXFK8hkCaBJ24UB6tKa6/t9cx7hNC70jQM3SKAAAIIpFjAFsbyhkrxZOGyWV8QVwsnxd3THQIZE0hun6gTve+0K8U6MzYoAyGQRQG7T2iTcRMXsE1iFieBoRFA4IgCdjPjlWr37jc3NTU9fsSLeAEBBBBAAAEEXieg5FD9wdd995Xf8NzvVJXUfXB1eby7z+t4EQEE0i6wsqzuz2J/75vsL+gPp30wBkAAAQQQSImAUiLHkeK/512e/0hhRf60lHRKJwhkQWBzW9vKhNGXCs3DOVngZ8gMCthzfOsPdHac17hly4YMDstQCCCAwFEF7IMpnut6X9zcEr9yU0fHjqM24AIEEEAAAQQQeJWAcowsOqxJ8qAA4y2qLGv4vH2dfYgPi8Q3Eci8QOWNG7ZUt9Ze5hnxRTu6l/kIGBEBBBBAYCACSqnzbGHsheLFM0sH0p42CPhBoLW19SnPUxfYotiLfoiHGBBItYAx+iFXiova29vbUt03/SGAAAKDEtCixXUTFzdtafmm7Yf7dIPCpDECCCCAQFQFlJbiME8q615XeB+uLl1zd1RhyBsBXwuUC11TWvvN3u7EJbZ0vdXXsRIcAggggMC/BZQaadeLLS1aXvCXc+4afzI0CARRIN4WX7dz39632cLBg0GMn5gROJKA9ry7G5ubr2hubt5zpGv4PgIIIJAVAaOXbWqJ59ttXB/NyvgMigACCCCAQEgElNKveapEix293d7lK+avvSckOZIGAqEVWLlo7SM9XZ1nCS0eCm2SJIYAAgiEUEAKedUpuSf/Y+5dZ14UwvRIKQIC+/fv320LB1cmCwgRSJcUwy+QEEaXbW5tWWRTdcOfLhkigEBQBOwysGZ7hucVm5qb59uY9wclbuJEAAEEEEDArwLKKPkdIXSv0WaPFt6POkz7zORNdr8GTFwIIPBqgQdv2Ly9sq32cmO8b9jti+zxYnwhgAACCARBQCoxPndozkN2tdhXRLlQQYiZGBF4jYB7qIBgCwn2GTvOG+btEUgB+97dZo/kuczebF4ayAQIGgEEQilw6BQTYRbv7+zIT57hGcokSQoBBBBAAIEsCMiXx0z+P/sPZ2ECGBKBVAoUVuTPdaT6tb2tOjqV/dIXAggggEB6BezTDA8ndu35yKpbWjizJr3U9J4mgdPGjHmTGDb8f21ld0aahqBbBFIvoMX9Yk/7xzZ1dOxIfef0+EqBqRMn/lQq5xpUEEDgGASMfvzgQXdR286254/hai7JgsDkyZPPjgn5XBaG9u2Qdivtx+zuARf4NkCfBTZ18uT/s7uGvNdnYWU3HM+dt6m1tSa7QTB6FAT++TQyxbAozDY5hl6gpqx+pSfFWfbG6lOhT5YEEUAAgRAJ2A9kF+ecfOILc5fmFYYoLVKJkMDmHTv+sbkpPtuuFvtlhNIm1aAKaG2PzHZvsefxFFIMC+okEjcC4RM4tGLV6I/bFasXUAwL3/ySEQIIIICAPwTYnscf80AUCKRMoKa0tjXe6l5kt1dYlrJO6QgBBBBAIO0C9kPZKTGlqgqXz/rO7AqRk/YBGQCB1At02pt4H0vezLNP2+1Lfff0iEAKBLR+0etVF9onkL9te+PB0BSQ0gUCCAxa4IAx4usHOjunb25u/gU/mwbtSQcIIIAAAggcUYCC2BFpeAGB4Ao0lDf0VpXUzTfGlCXPCAxuJkSOAAIIREtACSUdIW46Vc362yW3nzY5WtmTbVgEkjfz9h7Yn28fzmHLk7BMagjyOHQej/a+f9Bz3xTfHn8yBCmRAgIIBFzgpfM3zR0HE71TG5vjX21vbz8Q8JQIHwEEEEAAAd8LUBDz/RQRIAIDF6gqrVvqGfUO2wNn0gyckZYIIIBAxgWkFOcMP2HEc8mzITM+OAMikAKB3bt3tzY2Nc2zWyheY2/47U1Bl3SBwIAF7Hbi67WSFza2tHy2ra2ta8Ad0RABBBBIgUCyEGYfGlm8v6Pj9E1NTTfZn0vtKeiWLhBAAAEEEEDgGAQoiB0DEpcgEGQBu4Xikx097mybw9+CnAexI4AAAtETUCc7UtQUVcz6os1dRi9/Mg6DgN1C8ed2C6iZQovfhSEfcgicQI/dFfGbpkm8uamp6fHARU/ACCAQKgG7UHW363q3ql27JtuHRq7dtWvXllAlSDIIIIAAAggEQICCWAAmiRARGKzA6usatm31ai+xWyguHWxftEcAAQQQyKCAUsk9FG8tXjbrL5dVTB2VwZEZCoGUCdgtoNo2tcQ/6HniYqN1fco6piME+hCw+yNWHjjYNdOuvvhiXMS7+7iUlxBAAIG0CtifR5uF535mc0vzpKYtLV/e1NGxI60D0jkCCCCAAAIIHFGAgtgRaXgBgXAJPFcmEnYLxTLjutfbzLxwZUc2CCCAQMgFpHjnUDX82XkVbywIeaakF2KBeGt8dWNL81nJm4Jsoxjiic5yanZ7xA32PTbPnmX3zh07dmzKcjgMjwACURXQ2rXbIv6xV3tX2p9Hp29qbb3TUnRGlYO8EUAAAQQQ8IsABTG/zARxIJAhgaoFDT/UbqLQDsd5HhkyZxgEEEAgJQJSna5k7pPFiws+nJL+6ASB7Ai4yZuCva57uvC82+32UQezEwajhk3ArsDY6gqzaHNTPN++x2rClh/5IIBAQAS03mSM+IK3W0202yK+r6Wl5X4bua3V84UAAggggAACfhCgIOaHWSAGBDIsUL1g7Srd3fE2re0TtHwhgAACCARHQInhIkf+qnBp/p2zK0ROcAInUgReLbBly5Zdm1pbbrZb2p1un6BfbF9NYITAgAS03mXPCfu8XYExzZ4TdjfvpQEp0ggBBAYjoHWrXfn8XaO9cza1NJ/e2Bz/Vrwzvm0wXdIWAQQQQAABBNIjQEEsPa70ioDvBaoXNW7oatv/Nvs07SrfB0uACCCAAAKvEnCU+vSpKn/lOXeNPxkaBIIskDxfzD5Bf61d2TNDe96PbS69Qc6H2DMoYAthnud+1d58nmrPCfuOHZnVhhnk7/dQSpl+t6EBAj4WsAWwuF3pfJcx+kL7c2jS5qamzzW2tDzj45AJLYUC0pWs+nuNpzEKk368x6SRHGXyGi+7cwQm/XgPcenABSiIDdyOlggEXmB1eXxv9cr6QruBw5LAJ0MCCCCAQMQEpFRzRuee+FTR3flnRix10g2hgF3Zs3lza0uJLYxNsVtN3WbvnO8LYZqklAoBoxuTWyMe9NxJ8dbWr9su96eiW/pIr4A28kB6R6B3BNIukLDFr4dc7d3U1duTZwtgp9mVzp9ubG7+mx2Zgm/a+f01QGdvZ4e/Isp+NFIZfs73axo0n3Vf42W8XD7T9es9xMUDFaAgNlA52iEQFoHfC69yfu1C+4TtTcI+jhGWtMgDAQQQiIKAUmqaGSKenLs0L3k2JF8IBF7AFsa22q2m/nN/Z8fE5E1H+8GkKfBJkUBKBOyn1KftzgYf3NTcPD25NWJbW1tXSjqmk0wJbM7UQIyDQIoEeoXRj7/0kIYp3tfZcbItfl3a1NJyx9atW9emaAy6CajAiJ0jWm3obPf8ivkznubnfD/ez8Yz/Bx5hZe9HWlEj1jXD0IuRWDAAnLALWmIAAKhEyhefOZ7hJPza6HEsNAlR0IIIIBAuAU8V3g3ryhZ871wp0l2ERRQ0yZMuEI4znyhTbFQKhZBgyinfMCeyfNrrZ2K+Jb4C1GGCHrukyZNmpkjVX3Q8yD+8Aokt0C0N8ie91z9nOcl/ta6bdvTNlu2Yg3vlA86s6mTJj1od2y4ZNAdhaSD3kTvu1va2v4SknTSnsaECRPOsP9dXGcfcGSxykvaf93UFJ+TdngGQMAKUBDjbYAAAq8SuHTp9LcOk7n3CanGQoMAAgggEDAB4y3fqtdc+1wZT6wGbOYI9xgERo8ePW7UiBGfsoWxj9vC2LRjaMIlARWwKwOfsjenl9uVYL+1KXQGNA3Cfo3AtElTfmfvQFwNDAJZFthpV35tNMZsENqp7fESL+R05zwf3xvfm+W4GD5gAhNOPfUdOTm5D1HQsHuGav1sY0vz2+0UcgZUP97H0yZM/KF96GtRP5qE9dLenp7uC19+ECGsOZKXjwQoiPloMggFAb8IXHL7aZOHH39clV0pNtMvMREHAggggMCxCdibyI90ebvet7qsrf3YWnAVAsETmDpx4lu1Uh9ytPmALY6ND14GRPxaAaNFnae9e4wj72lubm587ev8PRQCI0+bNGmJPW3pP+wNZO5FhGJKfZaE1q6NaJsWqk0p02aL623a1W2OMZuFIzeKjo4NjXv2cG6Pz6YtyOHYn2lXKyN+ZD+LjA5yHoOJ3W5n/IDZpT4a74xvG0w/EW3rTJ005ctSihtt/sdF0kDrNb1uYmHL1q2PRjJ/ks6KAB9Cs8LOoAj4X+Cyiqmjhqjhf7ZbAMzxf7REiAACCCDwSgEjTKPXIeetuKF2PTIIhFxA2Se0LxwSy3m/dlSxEnJKyPMNVXq2gP+CvVl9n12hcc+2bdsaQpUcyRxRwG6fODVmzBwhnclGmpGGnWuOaBXlF+zNKvv2kAnP7l8opUnYHXMT9hsJ5Xm9nowdcFx3r8h19glj9u0/eHBfTk7OXnu24G5rxrnYUX7jZCH3KWLKUDXZXGrfsQV2+BO1NDlZCCNjQyb/3bT/7e5yhNMmlffoppYWtsMdvP6IaZMnv82utJsijRnphfyhESOl6yS8PdKRtfb9s8by2Y8CfCGQOQEKYpmzZiQEAieQV56XO3V87Bd2a5MPBi54AkYAAQQiL6B32RUXV1XNr3888hQAREbg1FNPzRsxZEiRvb9eJLQ+nzPH/DX19sD0TiXUA9q4VQe6u6va29vb/BUh0SCAAAIIIIAAAggggECYBSiIhXl2yQ2B1AjIeRUFdyhHfjY13dELAggggEDGBLQ9DN5LfLhy4do/ZWxMBkLAPwLHT508+UL7xPZFdnXBRbZINtuGFuqntv1D/1IkyQKYfbDqCSXlX+0/P7K5peUp+0qP3+IkHgQQQAABBBBAAAEEEIiGAAWxaMwzWSIwaIErl8/8rN2G6A77VC8/NwatSQcIIIBABgXsXWi7dcv11aVr7s7gqAyFgO8Exo0bNzwm5bk5sdh5NrizjZBn2w81k3wXaEADSv6osSvyNkph/u5p/ZxnzN9aW1ufs+kkz/ThCwEEEEAAAQQQQAABBBDIugA3trM+BQSAQHAE5i7J/2BMiZ/bQ7CHBCdqIkUAAQQQSArYc8Vuqyqp+69D/8gXAggcEhj6b61XAAAgAElEQVQ/fvzJQxznLKn12ULGZgplpmttptvPOidBdGQBe0DPdntKzwYl9Xq7NWWdUervjc3NL9gWHUduxSsIIIAAAggggAACCCCAQHYFKIhl15/REQicQFHFjIulk/MXIdRxgQuegBFAAIGIC9iDmn+9uU1/sqG8oTfiFKSPQJ8CyUKZvWD6UMeZLqScZLQcb6Qer4QYp6Uab4tAY2zRLJS/Sx1a6SXFdmnEFinUFq3MFu3qLY4x8YTxNrRs3brB2uzvE5AXEUAAAQQQQAABBBBAAAEfCoTylzgfOhMSAqESuKRi1tnDpagRSowJVWIkgwACCERCwDzodW15b831u7mhHYn5Jsk0CcSmjRx5khk16gS7TeAoV8oTHCFOsIWyE+xqqeFSyhxpZI7Wbq7jODnG/rORJpamWPrs1sZhwzMJz/MSSsV6bRwJY+wfKTuN6+6NOc5eYcy+XmP2Jr86Ojp22w69PjvlRQQQQAABBBBAAAEEEEAggAIUxAI4aYSMgB8EipdMPUPHRq60T0pP8UM8xIAAAggg0A8Bbf7eYXZdsbqsrb0frbgUAQQQQAABBBBAAAEEEEAAAQQQCKyAvZfNFwIIINB/gcoFjRsTu/acbw+iqe9/a1oggAACCGRVQMmzh6uTHrn8tonjshoHgyOAAAIIIIAAAggggAACCCCAAAIZEmCFWIagGQaBsAoU/ajgRBMzlfYcjfPCmiN5IYAAAqEV0GJzr+y5dGXp+s2hzZHEEEAAAQQQQAABBBBAAAEEEEAAAStAQYy3AQIIDFpgdsW44WPV6P+zR8tfOejO6AABBBBAINMCbaZHX1Z1Xf3aTA/MeAgggAACCCCAAAIIIIAAAggggECmBNgyMVPSjINAiAWeK2vrim9x32W0+UOI0yQ1BBBAIKwC42SOeqRwcd5ZYU2QvBBAAAEEEEAAAQQQQAABBBBAAAFWiPEeQACB1AlcLZziufnLhFSfSF2n9IQAAgggkAkBrcW+hOopWlWy/rFMjMcYCCCAAAIIIIAAAggggAACCCCAQCYFKIhlUpuxEIiGgCxcPvN7jnA+E410yRIBBBAIj4AWolNq8+6q+XUPhCcrMkEAAQQQQAABBBBAAAEEEEAAAQSEYMtE3gUIIJBqAVNTsuYGz/W+nuqO6Q8BBBBAIL0C9oPhCKPMfUVLCy5L70j0jgACCCCAAAIIIIAAAggggAACCGRWgBVimfVmNAQiJVBYkfc5x4ndHqmkSRYBBBAIg4AWB3ulV7yydM1DYUiHHBBAAAEEEEAAAQQQQAABBBBAAAEKYrwHEEAgrQJFS2dda5S+SwnFz5u0StM5AgggkGIBLbo8YebVzK/7a4p7pjsEEEAAAQQQQAABBBBAAAEEEEAg4wLcoM44OQMiED2BeUsKPqGUWS6UYpvW6E0/GSOAQIAFkmeKeUYU3l9a+2iA0yB0BBBAAAEEEEAAAQQQQAABBBBAQFAQ402AAAIZEbhy2awPKSN+YUtisYwMyCAIIIAAAqkR0LqjRyWuXFWy/rHUdEgvCCCAAAIIIIAAAggggAACCCCAQOYFKIhl3pwREYisQPHiM98jcpx7hFC5kUUgcQQQQCCQAvqA2y2vWLGo7olAhk/QCCCAAAIIIIAAAggggAACCCAQeQEKYpF/CwCAQGYF5i7NK4wp9Ud7ptjQzI7MaAgggAACgxHQQu9XQl9eWdLw9GD6oS0CCCCAAAIIIIAAAggggAACCCCQDQHO88mGOmMiEGGBlfMbaoTrXSW0OBhhBlJHAAEEAidgH2Q43q7wrS5cMjMvcMETMAIIIIAAAggggAACCCCAAAIIRF6AFWKRfwsAgEB2BOYum3lJrnHuE0oMz04EjIoAAgggMBABrU1rr/HOf6CsoXkg7WmDAAIIIIAAAggggAACCCCAAAIIZEOAFWLZUGdMBBAQK0vXPNTbmygUWnfAgQACCCAQHAGl5IRcGVtVeOeppwQnaiJFAAEEEEAAAQQQQAABBBBAAIGoC1AQi/o7gPwRyKLAykVrH+lRiSuF0AeyGAZDI4AAAgj0U0ApMV0NO6Xm/M+PPq6fTbkcAQQQQAABBBBAAAEEEEAAAQQQyIoAWyZmhZ1BEUDglQKFy2a9XUp9/0vn02CDAAIIIBAUAS3Ew6artrDmetETlJiJEwEEEEAAAQQQQAABBBBAAAEEoinACrFozjtZI+ArgZrS2iddT8/VWuzzVWAEgwACCCDQp4D9IHmxGpr/W3G1cPq8kBcRQAABBBBAAAEEEEAAAQQQQACBLAtQEMvyBDA8Agi8JLCyrOEppVyKYrwhEEAAgYAJSKXeM+/yWRUBC5twEUAAAQQQQAABBBBAAAEEEEAgYgIUxCI24aSLgJ8FKksanqYo5ucZIjYEEEDg8AL2TLFPXblk5pcO/yrfRQABBBBAAAEEEEAAAQQQQAABBLIvwBli2Z8DIkAAgdcIXLp0+luHqaEr7bdPAAcBBBBAIBgCWmijjfrwitLa3wYjYqJEAAEEEEAAAQQQQAABBBBAAIEoCVAQi9JskysCARKgKBagySJUBBBA4GUBrXVPQiUuXVWy/jFQEEAAAQQQQAABBBBAAAEEEEAAAT8JUBDz02wQCwIIvEqgeHneOVrHVtqtuEZBgwACCCAQEAEt2j2j315TVr8pIBETJgIIIIAAAggggAACCCCAAAIIRECAglgEJpkUEQiywNyKvLfFHLVSCXV8kPMgdgQQQCBaAma96RXnVl1btydaeZMtAggggAACCCCAAAIIIIAAAgj4VUD5NTDiQgABBJICK8santLd8koh9AFEEEAAAQSCIiBniBzzx9kVIicoERMnAggggAACCCCAAAIIIIAAAgiEW4CCWLjnl+wQCIXAikV1TxgtKIqFYjZJAgEEoiIgpZoz1ilYGpV8yRMBBBBAAAEEEEAAAQQQQAABBPwtQEHM3/NDdAgg8LJA1fz6x7s9PU9o3QEKAggggEAwBJSQ18xbUnBjMKIlSgQQQAABBBBAAAEEEEAAAQQQCLMAZ4iFeXbJDYEQCsy968yLcnNzaoQSw0OYHikhgAACYRTwjNdzeVXZ+ofDmBw5IYAAAggggAACCCCAAAIIIIBAMAQoiAVjnogSAQReIVBUMeNiKYdU2aLYMGAQQAABBPwvoIXY2eu5b3mgrKHZ/9ESIQIIIIAAAggggAACCCCAAAIIhFGALRPDOKvkhEDIBZKrDLROvEsL3R3yVEkPAQQQCIWA/cB5yhDl/HFO+ZShoUiIJBBAAAEEEEAAAQQQQAABBBBAIHACFMQCN2UEjAACSYHqBWtXecK8R2vdgwgCCCCAgP8FpJSzh084brH/IyVCBBBAAAEEEEAAAQQQQAABBBAIowAFsTDOKjkhEBGB+0vWrJDGe58QujciKZMmAgggEGgBJeQ1RUtnXRvoJAgeAQQQQAABBBBAAAEEEEAAAQQCKcAZYoGcNoJGAIFXClyxLO9djon9XimRgwwCCCCAgL8FtBaJhOq5eFXJ+sf8HSnRIYAAAggggAACCCCAAAIIIIBAmAQoiIVpNskFgQgLzFv6RrtSLPceWxSLRZiB1BFAAIFACNjtbre63sE3r1y4aUcgAiZIBBBAAAEEEEAAAQQQQAABBBAIvABbJgZ+CkkAAQSSAtXz1/2fXXTwUfuPHiIIIIAAAv4WUEq9IccZ8QsbJQ9n+XuqiA4BBBBAAAEEEEAAAQQQQACB0Ag4ocmERBBAIPICL97XXn/GvJMb7d3Vdwspucka+XcEAAgg4GcB+1P69KnvHNv54n3bH/dznMSGAAIIIIAAAggggAACCCCAAALhEOCGcTjmkSwQQOAVAvOWFHxCxMyPlVD8jOOdgQACCPhYIHmemFLuBZUlDU/7OExCQwABBBBAAAEEEEAAAQQQQACBEAiwZWIIJpEUEEDg1QLVC+p+Ko1coIU22CCAAAII+FfAnvuYI3Tsnssqpo7yb5REhgACCCCAAAIIIIAAAggggAACYRCgIBaGWSQHBBB4nUBVad1SqdWi173ANxBAAAEE/CWgxGlD1cgKfwVFNAgggAACCCCAAAIIIIAAAgggEDYBzhAL24ySDwII/Etg433bn5lePHavkOJKWBBAAAEEfCwgRf7pV43dsvHe7X/3cZSEhgACCCCAAAIIIIAAAggggAACARbgfJ0ATx6hI4DAsQkULc2/SSr1nWO7mqsQQAABBLIioEWXp7231ixY05CV8RkUAQQQQAABBBBAAAEEEEAAAQRCLcAKsVBPL8khgEBSYON9Ox6fftXJvUKoSxFBAAEEEPCpgBQ5Sshzx83e8ZP4aqF9GiVhIYAAAggggAACCCCAAAIIIIBAQAUoiAV04ggbAQT6J7Dh3p1/m1Y0RislL+5fS65GAAEEEMiYgJRvyDl+jLfx3h1/zdiYDIQAAggggAACCCCAAAIIIIAAApEQoCAWiWkmSQQQSAq8WLnjkWnzRiv79Q5EEEAAAQT8KWC0vGDKlSff11i9c5s/IyQqBBBAAAEEEEAAAQQQQAABBBAIogAFsSDOGjEjgMCABV6s3Ln6jKKTc+2ZYhcOuBMaIoAAAgikTUBK4cQccV5s9uif7Fy900vbQHSMAAIIIIAAAggggAACCCCAAAKREqAgFqnpJlkEEEgKbKzc+dAZV40ZJoW8ABEEEEAAAR8KSDn2+OOMevG+nQ/5MDpCQgABBBBAAAEEEEAAAQQQQACBAArIAMZMyAgggEBKBIor8r5t1yHcnJLO6AQBBBBAINUC3kHdfe6D8zc8k+qO6Q8BBBBAAAEEEEAAAQQQQAABBKInwAqx6M05GSOAwMsCGyp3rjrjnWOPs9tznQcKAggggIDvBJQj1AXjZw//cXz1Xtd30REQAggggAACCCCAAAIIIIAAAggESoCCWKCmi2ARQCDVAhvv275y+lWjjxdCnZvqvukPAQQQQGBwAlLKU5wRubkvVu54YHA90RoBBBBAAAEEEEAAAQQQQAABBKIuwJaJUX8HkD8CCBwSKKoo+J505A1wIIAAAgj4S0Br4QrTe3Z12bo6f0VGNAgggAACCCCAAAIIIIAAAgggECQBFaRgiRUBBBBIl0BVWd1nhfC+m67+6RcBBBBAYGACSomYkLEltjUPcg2MkFYIIIAAAggggAACCCCAAAIIIGAF2DKRtwECCCDwssCGe3euPOOqMcOkkBeAggACCCDgHwG7deLE6YWjt2yo2vl3/0RFJAgggAACCCCAAAIIIIAAAgggECQBnrQN0mwRKwIIZESgcNnMWx3pfDEjgzEIAggggMAxCRht9ujunTNqrt+285gacBECCCCAAAIIIIAAAggggAACCCDwCgG2TOTtgAACCLxGoKZ0zZdc45YDgwACCCDgHwGp5Ili6Jjb/RMRkSCAAAIIIIAAAggggAACCCCAQJAE2DIxSLNFrAggkDGBF+/b+dczisa6UolLMjYoAyGAAAII9CmgpHjT9MJT/rqhake8zwt5EQEEEEAAAQQQQAABBBBAAAEEEHiNAAUx3hIIIIDAEQQ2Vm5/dPpVow8KoS4/wiV8GwEEEEAg0wLSvD02e/Synat3epkemvEQQAABBBBAAAEEEEAAAQQQQCC4AhTEgjt3RI4AAhkQ2HDvzsdOnzfmgN2q64oMDMcQCCCAAAJHE5By9InH64P25/PfjnYpryOAAAIIIIAAAggggAACCCCAAAL/FJBQIIAAAggcXeDKirzrY07sB0e/kisQQAABBNIvoA8c7Og848EbNm9P/1iMgAACCCCAAAIIIIAAAggggAACYRBQYUiCHBBAAIF0C6woa7jT8/S1WmiT7rHoHwEEEEDgaALquKEjR37jaFfxOgIIIIAAAggggAACCCCAAAIIIPBPAVaI8V5AAAEE+iFQuDTvk45Qy4RSPFDQDzcuRQABBNIg4Gmv96zqsnV1aeibLhFAAAEEEEAAAQQQQAABBBBAIGQC3NAN2YSSDgIIpFegZn7DTxKe/pDWIpHekegdAQQQQOAoAvb5hNgdR7mGlxFAAAEEEEAAAQQQQAABBBBAAIFDAqwQ442AAAIIDECgqOLMIuM4f1BCDR1Ac5oggAACCKRKwDVFlQvqqlPVHf0ggAACCCCAAAIIIIAAAggggEA4BVghFs55JSsEEEizQFXZ2irpJeYJrTvSPBTdI4AAAgj0IaAdc/ucchHr4xJeQgABBBBAAAEEEEAAAQQQQAABBAQFMd4ECCCAwAAFqsrWP9xr9GVGmz0D7IJmCCCAAAKDFFBSnTli3Kz5g+yG5ggggAACCCCAAAIIIIAAAgggEHIBtkwM+QSTHgIIpF/g0h/NmDUsNmSVfcRgTPpHYwQEEEAAgdcKaCF2dvW4U1df18Cq3dfi8HcEEEAAAQQQQAABBBBAAAEEEDgkwAox3ggIIIDAIAUevHZ9re7tuFAI3TLIrmiOAAIIIDAAAfuB9pRhubHrB9CUJggggAACCCCAAAIIIIAAAgggEBEBVohFZKJJEwEE0i9wye2nTR4+asQDQqrT0z8aIyCAAAIIvFIguX2t7t4ypeb63fuRQQABBBBAAAEEEEAAAQQQQAABBF4rwAqx14rwdwQQQGCAAg/dtLmpo1dfaISoH2AXNEMAAQQQGKCAVPJEM+zUzw6wOc0QQAABBBBAAAEEEEAAAQQQQCDkAqwQC/kEkx4CCGReoOhHBSeamKlUSp2X+dEZEQEEEIiugNZin3TNaVXX1u2JrgKZI4AAAggggAACCCCAAAIIIIDA4QRYIXY4Fb6HAAIIDEIgeSN2T0f9ZVroqkF0Q1MEEEAAgX4KKCVG6Rz9uX4243IEEEAAAQQQQAABBBBAAAEEEIiAAAWxCEwyKSKAQOYFnrhRHOxqrX+3MebnmR+dERFAAIHoCjhSXn/OXeNPjq4AmSOAAAIIIIAAAggggAACCCCAwOEEnMN9k+8hgAACCAxeIL5a6I337fjLtKvGjrBPH7B94uBJ6QEBBBA4BgE5ZKgcJl6s3PHAMVzMJQgggAACCCCAAAIIIIAAAgggEBEBzhCLyESTJgIIZFegaGn+TUaJbyuh+Lmb3algdAQQiIKAFl0dpn3y6rK29iikS44IIIAAAggggAACCCCAAAIIIHB0AbZMPLoRVyCAAAKDFqiaX3+7FuoTWgt30J3RAQIIIIBA3wJKDB8pRi/q+yJeRQABBBBAAAEEEEAAAQQQQACBKAlQEIvSbJMrAghkVWBFSe3PhaffI7Q4mNVAGBwBBBCIgoAU1537XTEsCqmSIwIIIIAAAggggAACCCCAAAIIHF2AgtjRjbgCAQQQSJlA9cL6SiP0ZUabPSnrlI4QQAABBF4voMTok0bO+sTrX+A7CCCAAAIIIIAAAggggAACCCAQRQEKYlGcdXJGAIGsCtjtEx/v6vUuFFo3ZzUQBkcAAQRCLmAfQLhRXC2ckKdJeggggAACCCCAAAIIIIAAAgggcAwCFMSOAYlLEEAAgVQLPLyoYU3Pnn3n2jPFXkh13/SHAAIIIPCSgFJqWtEVBe/FAwEEEEAAAQQQQAABBBBAAAEEEKAgxnsAAQQQyJLAqlta2va92HaR0eL+LIXAsAgggEDoBaQ2N4c+SRJEAAEEEEAAAQQQQAABBBBAAIGjCrCFzFGJuAABBBBIn0DLY12942dvvyc2cux4KcXZ6RuJnhFAAIGICkg5flrxmNUv3rejKaICpI0AAggggAACCCCAAAIIIIAAAlaAghhvAwQQQCDLAvHVQm+8b/u904rGaKXkxVkOh+ERQACB8AlIc8rGe3f8JnyJkRECCCCAAAIIIIAAAggggAACCByrgDzWC7kOAQQQQCD9AsXLzvyYNjnLlRI56R+NERBAAIFoCGihjeyVp1ddW9cYjYzJEgEEEEAAAQQQQAABBBBAAAEEXivAGWKvFeHvCCCAQBYFKkvX/iLRKwrtzdv9WQyDoRFAAIFQCSihpHZEWaiSIhkEEEAAAQQQQAABBBBAAAEEEOiXACvE+sXFxQgggEBmBOZVvLFAyJxqu4XihMyMyCgIIIBAuAW0EDvjre6EhvKG3nBnSnYIIIAAAggggAACCCCAAAIIIHA4AVaIHU6F7yGAAAJZFqguW1enOnrebsN4PsuhMDwCCCAQCgH7ofeUSeNj7wtFMiSBAAIIIIAAAggggAACCCCAAAL9FqAg1m8yGiCAAAKZEai8ccOWrV77BUbrP2VmREZBAAEEwi3gGLMw3BmSHQIIIIAAAggggAACCCCAAAIIHEmALROPJMP3EUAAAf8IyKLlBd+SQt7in5CIBAEEEAimQGe3m//wooY1wYyeqBFAAAEEEEAAAQQQQAABBBBAYKACrBAbqBztEEAAgcwJmKqSuv90hbhGCM3ZN5lzZyQEEAihwPAcuSCEaZESAggggAACCCCAAAIIIIAAAggcRYAVYkcB4mUEEEDATwJXLJt1YY4RfxRKjPZTXMSCAAIIBEVAa7Fvu2kf91xZW1dQYiZOBBBAAAEEEEAAAQQQQAABBBAYvAArxAZvSA8IIIBAxgTuL6191LjmbdrotRkblIEQQACBEAkoJUadok/4QIhSIhUEEEAAAQQQQAABBBBAAAEEEDgGAQpix4DEJQgggICfBKqurWvs1V3n2u0TV/opLmJBAAEEgiIQy3E+EpRYiRMBBBBAAAEEEEAAAQQQQAABBFIjwJaJqXGkFwQQQCDzAlcLp/iygh8IR16X+cEZEQEEEAiwgNa6Z8++iatuaWkLcBaEjgACCCCAAAIIIIAAAggggAAC/RBghVg/sLgUAQQQ8JXA74VXWVa3yBVmgT0TJ+Gr2AgGAQQQ8LOAUir3xFH/4ecQiQ0BBBBAAAEEEEAAAQQQQAABBFIrQEEstZ70hgACCGRcYEVJXUWvcS8RRm/P+OAMiAACCARVQAm2TQzq3BE3AggggAACCCCAAAIIIIAAAgMQoCA2ADSaIIAAAn4TeKCs4W+eUG8RWj/jt9iIBwEEEPCjgBTqTXMXn5nvx9iICQEEEEAAAQQQQAABBBBAAAEEUi9AQSz1pvSIAAIIZEWgprS2taOt4yJPi19kJQAGRQABBAImkJMTY5VYwOaMcBFAAAEEEEAAAQQQQAABBBAYqIAcaEPaIYAAAgj4V6Bw2awbHClutxE6/o2SyBBAAIFsC+iWypL6yTYKk+1IGB8BBBBAAAEEEEAAAQQQQAABBNIrwAqx9PrSOwIIIJAVAbta7Pu9xpsrhN6VlQAYFAEEEAiEgJpYvDj/HYEIlSARQAABBBBAAAEEEEAAAQQQQGBQAhTEBsVHYwQQQMC/AitL1zzkHnDfYoT+h3+jJDIEEEAgywJKvj/LETA8AggggAACCCCAAAIIIIAAAghkQICCWAaQGQIBBBDIlsCKz66Lb/N2n2f3ArsnWzEwLgIIIOBnAS3Fu/wcH7EhgAACCCCAAAIIIIAAAggggEBqBDhDLDWO9IIAAgj4XqBoSd6njYrdoZTI8X2wBIgAAghkUEAf7Hlr9afXP5vBIRkKAQQQQAABBBBAAAEEEEAAAQQyLMAKsQyDMxwCCCCQLYGqBQ0/NFJcpLVpzVYMjIsAAgj4UcAMjb3bj3EREwIIIIAAAggggAACCCCAAAIIpE6AgljqLOkJAQQQ8L1ATWntk6Z759lGmwd8HywBIoAAAhkScIxDQSxD1gyDAAIIIIAAAggggAACCCCAQLYE2DIxW/KMiwACCGRToFyo4gkFX9PCfFEJxX8LsjkXjI0AAr4QSAjvjPtL1rzoi2AIAgEEEEAAAQQQQAABBBBAAAEEUi7ACrGUk9IhAgggEACBcqErS+q+LD3vnXa12J4AREyICCCAQFoFYlqySiytwnSOAAIIIIAAAggggAACCCCAQHYFKIhl15/REUAAgawKVJWtrfI6E2cbY57LaiAMjgACCGRZQCr1riyHwPAIIIAAAggggAACCCCAAAIIIJBGAbbJSiMuXSOAAAJBESi8UwyRQ/J/oBxVFpSYiRMBBBBIqYDW2utuP7Xm+m07U9ovnSGAAAIIIIAAAggggAACCCCAgC8EWCHmi2kgCAQQQCC7AjXXi57qsvoFiYT7Qa3FvuxGw+gIIIBAFgSUUmbYmMuyMDJDIoAAAggggAACCCCAAAIIIIBABgQoiGUAmSEQQACBoAjcv7Dhd67sOcsY8XRQYiZOBBBAIFUCMaEvT1Vf9IMAAggggAACCCCAAAIIIIAAAv4SoCDmr/kgGgQQQCDrAitL12/epmsvsEWxO7TQJusBEQACCCCQKQEpWCGWKWvGQQABBBBAAAEEEEAAAQQQQCDDApwhlmFwhkMAAQSCJFC8pGCeUPLnQonRQYqbWBFAAIGBCujujhnVixo3DLQ97RBAAAEEEEAAAQQQQAABBBBAwJ8CrBDz57wQFQIIIOALgcoFddU9e/a8yRi92hcBEQQCCCCQZgGZO5JVYmk2pnsEEEAAAQQQQAABBBBAAAEEsiFAQSwb6oyJAAIIBEhg1S0tbVVb6i91jVtuw/YCFDqhIoAAAgMQ0BTEBqBGEwQQQAABBBBAAAEEEEAAAQT8LsCWiX6fIeJDAAEEfCQw964zL8rNdX4plJrko7AIBQEEEEilwN7K+2tHi9/zAEAqUekLAQQQQAABBBBAAAEEEEAAgWwLsEIs2zPA+AgggECABFYuWvtIt+maJYz5TYDCJlQEEECgPwInzL0s7y39acC1CCCAAAIIIIAAAggggAACCCDgfwEKYv6fIyJEAAEEfCXwQFnjvsrSug+7RvyHDWyvr4IjGAQQQCAFAo6KXZqCbugCAQQQQAABBBBAAAEEEEAAAQR8JEBBzEeTQSgIIIBAkARWlNb+dv8+PUsL8XCQ4iZWBBBA4GgCjjQXHO0aXkcAAQQQQAABBBBAAAEEEEAAgWAJUBAL1nwRLQIIIOArgRrVMRYAABT3SURBVEc+V99S3Vp7mdH6ZiF0r6+CIxgEEEBggALamLfZppy1O0A/miGAAAIIIIAAAggggAACCCDgRwF+0ffjrBATAgggEECB4iXT3yTU0F8LJWYGMHxCRgABBF4l4HaIN664oXY9LAgggAACCCCAAAIIIIAAAgggEA4BVoiFYx7JAgEEEMi6QOWCDf/oaNv/Fk94P9BCm6wHRAAIIIDAYASGuOcOpjltEUAAAQQQQAABBBBAAAEEEEDAXwIUxPw1H0SDAAIIBFpgdXm8u6ZkzQ0qIS4RWmwOdDIEjwACkRZwYg4FsUi/A0geAQQQQAABBBBAAAEEEEAgbAIUxMI2o+SDAAII+ECgcmH96t4NtQVaeD9itZgPJoQQEECg3wLGCApi/VajAQIIIIAAAggggAACCCCAAAL+FeAMMf/ODZEhgAACoRAoqphxsXGG/MQ+gTElFAmRBAIIRENAa73nxW0nPPbt9gPRSJgsEUAAAQQQQAABBBBAAAEEEAi3ACvEwj2/ZIcAAghkXaCqbP3DXT1ugV1tsZjVYlmfDgJAAIFjFVBKDZ807pxjvZzrEEAAAQQQQAABBBBAAAEEEEDA3wIUxPw9P0SHAAIIhEJg9XUNHVWltdcmutXlWoimUCRFEgggEHoBJ+axbWLoZ5kEEUAAAQQQQAABBBBAAAEEoiJAQSwqM02eCCCAgA8EVi2qfdCuFsvXnq7wQTiEgAACCPQpoBznrD4v4EUEEEAAAQQQQAABBBBAAAEEEAiMAAWxwEwVgSKAAALhEEiuFqsuq18gEvpiI8TGcGRFFgggEEYBJfSsMOZFTggggAACCCCAAAIIIIAAAghEUYCCWBRnnZwRQAABHwhULqxf3dm6f5ZnvP/WWiR8EBIhIIAAAq8WMGLq3JvECFgQQAABBBBAAAEEEEAAAQQQQCD4AjL4KZABAggggEDQBeYuPjM/14ktE0q+Pei5ED8CCIRNwH1bZUnD02HLinwQQAABBBBAAAEEEEAAAQQQiJoAK8SiNuPkiwACCPhQYOXCtfWVbXXnC2E+LYQ+4MMQCQkBBCIqoEWMbRMjOvekjQACCCCAAAIIIIAAAgggEC4BCmLhmk+yQQABBIIrUC50ZUndXZ5ReVqbvwQ3ESJHAIEwCRjNOWJhmk9yQQABBBBAAAEEEEAAAQQQiK4ABbHozj2ZI4AAAr4UqCmtba2eX/durXvfbwNs82WQBIUAApERcIRghVhkZptEEUAAAQQQQAABBBBAAAEEwixAQSzMs0tuCCCAQIAFquev+789G9reqD3zPa2FG+BUCB0BBAIsoKUoCHD4hI4AAggggAACCCCAAAIIIIAAAi8LSCQQQAABBBDwu8DcxWfm5zrOXUKpd/g9VuJDAIEQCuzvnlB544YtIcyMlBBAAAEEEEAAAQQQQAABBBCIjAArxCIz1SSKAAIIBFdg5cK19ZXz6+eIhPmIFnpbcDMhcgQQCKKAHu7kBTFuYkYAAQQQQAABBBBAAAEEEEAAgX8LUBDj3YAAAgggEBiByoV1vzZdbTOMZ77PNoqBmTYCRSAEAnJaCJIgBQQQQAABBBBAAAEEEEAAAQQiLUBBLNLTT/IIIIBA8ARqrt+9v6qs7rPC9J5ttHk0eBkQMQIIBE1AOrHTgxYz8SKAAAIIIIAAAggggAACCCCAwKsFKIjxjkAAAQQQCKRAddm6uqr5dRcd2kZRm9ZAJkHQCCAQCAEpNSvEAjFTBIkAAggggAACCCCAAAIIIIDAkQUoiB3ZhlcQQAABBAIgkNxGcbvZNcM1brnQoisAIRMiAggETEBrtkwM2JQRLgIIIIAAAggggAACCCCAAAKvE6Ag9joSvoEAAgggEDSB58raulaUNnxNdHRPt7H/UgttgpYD8SKAgI8FlJzq4+gIDQEEEEAAAQQQQAABBBBAAAEEjkFAHsM1XIIAAggggECgBOb9cMZb1LAh37NBXxCowAkWAQR8K9DR475h9XUN23wbIIEhgAACCCCAAAIIIIAAAggggECfAqwQ65OHFxFAAAEEgihQ/en1z1aW1F5ohPmAFiIexByIGQEE/CWQM8TjHDF/TQnRIIAAAggggAACCCCAAAIIINAvAQpi/eLiYgQQQACBIAlUldT93nTVvtH1zH9pLfYFKXZiRQABfwkMMYqCmL+mhGgQQAABBBBAAAEEEEAAAQQQ6JcABbF+cXExAggggEDQBGquFz0ryur+x1PeVGPEHfZ8se6g5UC8CCDgAwGdwzliPpgGQkAAAQQQQAABBBBAAAEEEEBgoAIUxAYqRzsEEEAAgUAJ3F+yZndVae1NHfvEdCP0T2zwXqASIFgEEMiugPLGZzcARkcAAQQQQAABBBBAAAEEEEAAgcEIUBAbjB5tEUAAAQQCJ/DI5+pbqkrqP2V6dIEQ+s+BS4CAEUAgOwLGOTU7AzMqAggggAACCCCAAAIIIIAAAgikQoCCWCoU6QMBBBBAIHACVdfVr60sqX+PZ8S5WphHApcAASOAQEYFjDRvyOiADIYAAggggAACCCCAAAIIIIAAAikVoCCWUk46QwABBBAImkBNae2T1SV17+jV7jyhzd+DFj/xIoBAZgSklBTEMkPNKAgggAACCCCAAAIIIIAAAgikRUCmpVc6RQABBBBAIKACVyzLe1eOjH3Vhn9WQFMgbAQQSIOA1sKtbqsdIsqFTkP3dIkAAggggAACCCCAAAIIIIAAAmkWoCCWZmC6RwABBBAIpsDcioJ3x6T8qlLizcHMgKgRQCDVAr2JzrErF27akep+6Q8BBBBAAAEEEEAAAQQQQAABBNIvwJaJ6TdmBAQQQACBAAqsLKv7c/X82rNFIvFeI/Q/ApgCISOAQIoFcqXDtokpNqU7BBBAAAEEEEAAAQQQQAABBDIlQEEsU9KMgwACCCAQRAFTuXDtn6pK6s+iMBbE6SNmBFIrkIjlUBBLLSm9IYAAAggggAACCCCAAAIIIJAxAQpiGaNmIAQQQACBAAv8qzDW65n32AOEngpwLoSOAAIDFJAJc+oAm9IMAQQQQAABBBBAAAEEEEAAAQSyLEBBLMsTwPAIIIAAAoESMIe2Uiypfbvxei4RQq8MVPQEiwACgxJwpDN2UB3QGAEEEEAAAQQQQAABBBBAAAEEsiZAQSxr9AyMAAIIIBBkgaqy9Q9XltRf4SXcs7XWvxP2f4KcD7EjgMDRBTwhRx39Kq5AAAEEEEAAAQQQQAABBBBAAAE/ClAQ8+OsEBMCCCCAQGAEahY2PF89v/6DCWVmGGOW2rpYT2CCJ1AEEOiXQEya4/vVgIsRQAABBBBAAAEEEEAAAQQQQMA3AhTEfDMVBIIAAgggEGSB+0vWvFhVWld2wHineZ75ts1lb5DzIXYEEHi9gFaGFWKvZ+E7CCCAAAIIIIAAAggggAACCARCgIJYIKaJIBFAAAEEgiLwaNnarTVldbf0rqudYLS4TgizPiixEycCCPQtIKVkhVjfRLyKAAIIIIAAAggggAACCCCAgG8FpG8jIzAEEEAAAQTCISCLlxQUasfcoKS6PBwpkQUCERXQ+q+V8+vnRDR70kYAAQQQQAABBBBAAAEEEEAg0AKsEAv09BE8AggggEAABEzlgrrq6tL6uZ7rzUyeMya0OBiAuAkRAQReK6AUK8Rea8LfEUAAAQQQQAABBBBAAAEEEAiIACvEAjJRhIkAAgggEB6Bc+4af/KYoaPmC60WCKUmhSczMkEg3AJGmMaqkrpp4c6S7BBAAAEEEEAAAQQQQAABBBAIpwAFsXDOK1khgAACCARBoFyoeWPz54kcsUBpUWiLY6zcDsK8EWOEBfSuypL60REGIHUEEEAAAQQQQAABBBBAAAEEAitAQSywU0fgCCCAAAJhErisIm/SUMcp1dp8ytbF3hCm3MgFgbAIaC0S1fNrc8OSD3kggAACCCCAAAIIIIAAAgggECUBCmJRmu3/3979xMZxlnEcf573nbW9cdJ1bTXBTmyFxkrcdRJUIw6OCHL6R9ioAiMRtZeqHJBcUYSKOHDdK5eAuKAKrpQDOZUijJoqVlGRgKSibnEd2rqW4jrghGITx157Z96X1+oJJZXsdteemf1aWjme3Xnf5/m8IznyT+8MvSKAAAIIpF5gpCLRvp6Bb6gUnvXGP2rE8Ls69atGgc0kcCOZbrk6IbVm6pleEUAAAQQQQAABBBBAAAEEEMiDAH9ky8Mq0gMCCCCAQC4FvvrLwf5IzHdU9OnQYE8um6QpBDImcCO51X51YnEtY2VTLgIIIIAAAggggAACCCCAAAJNL0Ag1vSXAAAIIIAAAqkXOC929JGBx2yh5dte3HjYNdaW+popEIGcClST1Y5LE3MrOW2PthBAAAEEEEAAAQQQQAABBBDIrQCBWG6XlsYQQAABBPIo8NgLD5Yi2/5UJP4ZETOcxx7pCYE0C6wmtx6Ymli8leYaqQ0BBBBAAAEEEEAAAQQQQAABBO4WIBC724QjCCCAAAIIZEJg9KenT0ibPGOMf9oYPZKJoikSgYwLrG7E3VPPzfwz421QPgIIIIAAAggggAACCCCAAAJNJ0Ag1nRLTsMIIIAAArkTqIgZ6zl11qg+6VW+ZUQeyF2PNIRASgT+u+L6Xvvh29dTUg5lIIAAAggggAACCCCAAAIIIIDANgUIxLYJxccQQAABBBDIgsBIRaJi98lHrJGnRM03Q80dWaibGhHIioDf9Md+99235rJSL3UigAACCCCAAAIIIIAAAggggMDHAgRiXAkIIIAAAgjkVKBcKbf09USjkfonxfuvizH7c9oqbSGwawLxqgxMPj99bdcmZCIEEEAAAQQQQAABBBBAAAEEEKiLAIFYXRgZBAEEEEAAgXQLDF+QYlfxodHEFsZV3RNGTWe6K6Y6BNIpcKcan7z8vZm/p7M6qkIAAQQQQAABBBBAAAEEEEAAgU8SIBD7JBmOI4AAAgggkFOBrdsqtnefOKumdVy8Gw87x/py2iptIVB3gY2N+OFXnpv5W90HZkAEEEAAAQQQQAABBBBAAAEEEGioAIFYQ3kZHAEEEEAAgfQLjP28/LCojlur4+G5Y6fTXzEVIrDLAs45ETOVSPyr9cW1F6cq89VdroDpEEAAAQQQQAABBBBAAAEEEEDgMwoQiH1GQE5HAAEEEEAgTwKjPxk4qvuiMWvMWNg9do7njuVpdellxwLOv5H45MV4+favX/nR9cUdn88JCCCAAAIIIIAAAggggAACCCCQGgECsdQsBYUggAACCCCQLoFypdxy5LB+2aodMyKj4T8NJ9NVIdUg0AAB76YTpxfXRX4zNfHWbANmYEgEEEAAAQQQQAABBBBAAAEEENgDAQKxPUBnSgQQQAABBLIoMPaL00dUZXQrHHNh95hR05nFPqgZgbsEwk4wMclFiasXX3527t273ucAAggggAACCCCAAAIIIIAAAghkXoBALPNLSAMIIIAAAgjsgUBFzNih8hd8QUcib885L18xRkp7UAlTIrBjgfBEsJox/rU4SV6SNffS5A9m53c8CCcggAACCCCAAAIIIIAAAggggECmBAjEMrVcFIsAAggggEBKBUJA9rWuE0PaWhgRlXNhJ9lZEXMgpdVSVlMKuH97J5M1J791ujZ5aWJupSkZaBoBBBBAAAEEEEAAAQQQQACBJhUgEGvShadtBBBAAAEEGipwXuyjjx8fKkrbmRCQDYu6MyEg623onAyOwP8LJM65P6vRP6gkky8vzFyRijiQEEAAAQQQQAABBBBAAAEEEECgOQUIxJpz3ekaAQQQQACBXRd44sLxw3Kgbdg5f8ZshWTGD4WQrGXXC2HC/Ao4NxuuqSknm5fWFquvTlXml/PbLJ0hgAACCCCAAAIIIIAAAggggMBOBAjEdqLFZxFAAAEEEECgbgJjP5NWb04NSSH5kjV2yHsJAZk+FJ5FFtVtEgbKt4B373nVy4nXy3dcbeqPE+/cyHfDdIcAAggggAACCCCAAAIIIIAAAp9WgEDs08pxHgIIIIAAAgjUXWCkcrRt/5F9p10sQxrZIQkhmao/xU6yulNncEC3KU7fCAHY65K4P1Wrd15/9fkP/pXBRigZAQQQQAABBBBAAAEEEEAAAQT2QIBAbA/QmRIBBBBAAAEEti/wxRek0O2Pl8W3noxVB43xZaN+MIRlD4oJ+8n4yp2AE+dVzHvq/V9jdVcSif9SW9i4Gm6BWM1dszSEAAIIIIAAAggggAACCCCAAAK7IkAgtivMTIIAAggggAAC9RYYviDFjmJ5IDyPbDCRqGwjP+idDhjjjrKjrN7ajRvPOYlDqnlN1L8p6t7cqNqrvrB65dLE3ErjZmVkBBBAAAEEEEAAAQQQQAABBBBoNgECsWZbcfpFAAEEEEAg7wLnxY6eGei17YV+75J+tVG/qjvmxfSrk2NipJh3glT255zzRue9+HfUm1mV2vTGpk5/eFNmZiozm6msmaIQQAABBBBAAAEEEEAAAQQQQCA3AgRiuVlKGkEAAQQQQACBbQjo4z/u7Y467+8Lt13s9bH0qoaX1V7vJbxcb9itdIhbMW5D8l4fCaGXE10MoeNceHvOxe59G5lrPqnN+o3Zf/z++7Jxr9M4hgACCCCAAAIIIIAAAggggAACCDRagECs0cKMjwACCCCAAAKZEth6Zlnp9ud7ive1H9YkORQXooOayEEj7qBYc0idP+g0/BxeTqTTSPhXk3yFtGtFjPswhIYLPrxc7Bc0stcTSRZ01X6gZnqe0KtJLgbaRAABBBBAAAEEEEAAAQQQQCBjAk3zB5yMrQvlIoAAAggggEAGBEYqEhU7P3e/29dVsutxR01bS4WWzY5we8ZSuD1gSWPpkEhKxpsO8dLujS8aZ4ohVAq3bTRt4lzRGROOhds4hmPu4/dsw0K2rQ1cImth7jVnZC3Me8eJWwm75JZDff9Rr8uJccsmfFdNlmpqlmqJXWo1siTr0zcJuzJwUVIiAggggAACCCCAAAIIIIAAAgjcU4BA7J4sHEQAAQQQQAABBPZUQEPYZpekbEr3zdgD4SaEtq/Tmuiwvek+Ml2tXUVT8y1xizOFeF3j6n5jC84461Xj9VhNe7xhk1iXb8dRsVZb/6itVuycXyfQ2tM1ZXIEEEAAAQQQQAABBBBAAAEEENhDgf8BwYyDvt92ezMAAAAASUVORK5CYII=;" parent="1" vertex="1">
          <mxGeometry x="90" y="145.73000000000002" width="120.1" height="48.54" as="geometry" />
        </mxCell>
      </root>
    </mxGraphModel>
  </diagram>
</mxfile>
